<svg width="300" height="300" viewBox="0 0 300 300" fill="none" xmlns="http://www.w3.org/2000/svg">
<g clip-path="url(#clip0_106_2)">
<rect width="300" height="300" fill="url(#paint0_radial_106_2)"/>
<g filter="url(#filter0_dddd_106_2)">
<path d="M86.5191 214C85.2401 208.768 84.0194 203.478 82.8567 198.13C81.8103 192.782 80.7639 187.491 79.7175 182.26C78.6711 176.911 77.6829 171.563 76.7528 166.215C75.8226 160.867 74.9506 155.518 74.1368 150.17C73.3229 144.822 72.6253 139.474 72.044 134.126C71.4627 128.661 71.172 123.255 71.172 117.907V85.8173H84.7751V117.907C84.7751 124.534 85.0076 131.219 85.4727 137.962C85.9377 144.59 86.4609 151.275 87.0423 158.018C87.7398 164.645 88.4374 171.331 89.135 178.074C89.9489 184.701 90.7627 191.328 91.5766 197.955L101.692 137.09H111.109L121.224 197.955C122.038 191.328 122.794 184.701 123.491 178.074C124.305 171.331 125.003 164.645 125.584 158.018C126.282 151.275 126.863 144.59 127.328 137.962C127.793 131.219 128.026 124.534 128.026 117.907V85.8173H141.629V117.907C141.629 123.255 141.338 128.661 140.757 134.126C140.176 139.474 139.478 144.822 138.664 150.17C137.85 155.518 136.978 160.867 136.048 166.215C135.118 171.563 134.13 176.911 133.083 182.26C132.037 187.491 130.932 192.782 129.77 198.13C128.723 203.478 127.561 208.768 126.282 214H116.864L106.4 151.217L95.9366 214H86.5191ZM193.425 215.395C190.519 215.395 187.612 215.163 184.705 214.698C181.799 214.233 179.008 213.419 176.334 212.256C173.776 210.977 171.393 209.349 169.184 207.373C166.975 205.396 165.115 203.187 163.603 200.746C162.208 198.188 161.161 195.456 160.464 192.549C159.766 189.642 159.418 186.736 159.418 183.829V182.608H173.021V183.48C173.021 186.154 173.486 188.77 174.416 191.328C175.346 193.886 176.741 196.095 178.601 197.955C180.578 199.816 182.845 201.153 185.403 201.967C188.077 202.78 190.751 203.187 193.425 203.187C196.099 203.187 198.773 202.78 201.447 201.967C204.122 201.153 206.389 199.757 208.249 197.781C210.226 195.804 211.679 193.537 212.609 190.979C213.539 188.305 214.004 185.631 214.004 182.957C214.004 179.934 213.365 177.028 212.086 174.237C210.923 171.331 209.295 168.831 207.203 166.738C205.226 164.529 202.901 162.669 200.227 161.157C197.669 159.646 195.053 158.193 192.379 156.797C189.705 155.402 187.031 154.007 184.356 152.612C181.799 151.1 179.357 149.415 177.032 147.554C174.706 145.694 172.556 143.659 170.579 141.45C168.602 139.125 166.858 136.683 165.347 134.126C163.952 131.452 162.905 128.661 162.208 125.755C161.51 122.732 161.161 119.709 161.161 116.686C161.161 113.895 161.452 111.105 162.033 108.315C162.731 105.408 163.719 102.676 164.998 100.118C166.393 97.5601 168.079 95.2348 170.056 93.142C172.149 91.0493 174.474 89.3634 177.032 88.0845C179.59 86.6893 182.264 85.7592 185.054 85.2941C187.961 84.7128 190.867 84.4221 193.774 84.4221C196.681 84.4221 199.529 84.6547 202.319 85.1197C205.11 85.5848 207.784 86.4568 210.342 87.7357C212.9 89.0146 215.225 90.7005 217.318 92.7932C219.41 94.7698 221.096 97.0369 222.375 99.5948C223.77 102.036 224.759 104.652 225.34 107.443C226.038 110.233 226.386 113.082 226.386 115.988V117.209H212.783V116.337C212.783 113.779 212.376 111.279 211.563 108.838C210.749 106.28 209.47 104.071 207.726 102.211C205.982 100.234 203.831 98.8391 201.273 98.0252C198.831 97.0951 196.332 96.63 193.774 96.63C191.216 96.63 188.658 97.0951 186.1 98.0252C183.543 98.9553 181.392 100.409 179.648 102.385C177.904 104.245 176.625 106.454 175.811 109.012C174.997 111.57 174.59 114.186 174.59 116.86C174.59 119.883 175.171 122.79 176.334 125.58C177.497 128.37 179.125 130.87 181.217 133.079C183.31 135.288 185.635 137.149 188.193 138.66C190.751 140.171 193.367 141.625 196.041 143.02C198.715 144.299 201.331 145.694 203.889 147.205C206.563 148.717 209.063 150.403 211.388 152.263C213.83 154.123 216.039 156.216 218.015 158.541C219.992 160.75 221.678 163.192 223.073 165.866C224.468 168.424 225.514 171.156 226.212 174.063C227.026 176.969 227.433 179.934 227.433 182.957C227.433 185.98 227.084 188.945 226.386 191.851C225.689 194.642 224.642 197.374 223.247 200.048C221.852 202.606 220.05 204.931 217.841 207.024C215.632 209.001 213.19 210.628 210.516 211.907C207.958 213.186 205.168 214.058 202.145 214.523C199.238 215.105 196.332 215.395 193.425 215.395Z" fill="white"/>
</g>
</g>
<defs>
<filter id="filter0_dddd_106_2" x="18.172" y="74.4221" width="262.261" height="325.973" filterUnits="userSpaceOnUse" color-interpolation-filters="sRGB">
<feFlood flood-opacity="0" result="BackgroundImageFix"/>
<feColorMatrix in="SourceAlpha" type="matrix" values="0 0 0 0 0 0 0 0 0 0 0 0 0 0 0 0 0 0 127 0" result="hardAlpha"/>
<feOffset dy="8"/>
<feGaussianBlur stdDeviation="9"/>
<feColorMatrix type="matrix" values="0 0 0 0 0 0 0 0 0 0 0 0 0 0 0 0 0 0 0.2 0"/>
<feBlend mode="normal" in2="BackgroundImageFix" result="effect1_dropShadow_106_2"/>
<feColorMatrix in="SourceAlpha" type="matrix" values="0 0 0 0 0 0 0 0 0 0 0 0 0 0 0 0 0 0 127 0" result="hardAlpha"/>
<feOffset dy="33"/>
<feGaussianBlur stdDeviation="16.5"/>
<feColorMatrix type="matrix" values="0 0 0 0 0 0 0 0 0 0 0 0 0 0 0 0 0 0 0.09 0"/>
<feBlend mode="normal" in2="effect1_dropShadow_106_2" result="effect2_dropShadow_106_2"/>
<feColorMatrix in="SourceAlpha" type="matrix" values="0 0 0 0 0 0 0 0 0 0 0 0 0 0 0 0 0 0 127 0" result="hardAlpha"/>
<feOffset dy="74"/>
<feGaussianBlur stdDeviation="22.5"/>
<feColorMatrix type="matrix" values="0 0 0 0 0 0 0 0 0 0 0 0 0 0 0 0 0 0 0.05 0"/>
<feBlend mode="normal" in2="effect2_dropShadow_106_2" result="effect3_dropShadow_106_2"/>
<feColorMatrix in="SourceAlpha" type="matrix" values="0 0 0 0 0 0 0 0 0 0 0 0 0 0 0 0 0 0 127 0" result="hardAlpha"/>
<feOffset dy="132"/>
<feGaussianBlur stdDeviation="26.5"/>
<feColorMatrix type="matrix" values="0 0 0 0 0 0 0 0 0 0 0 0 0 0 0 0 0 0 0.01 0"/>
<feBlend mode="normal" in2="effect3_dropShadow_106_2" result="effect4_dropShadow_106_2"/>
<feBlend mode="normal" in="SourceGraphic" in2="effect4_dropShadow_106_2" result="shape"/>
</filter>
<radialGradient id="paint0_radial_106_2" cx="0" cy="0" r="1" gradientUnits="userSpaceOnUse" gradientTransform="translate(150 150) rotate(90) scale(150)">
<stop stop-color="#6D8AFF"/>
<stop offset="1" stop-color="#2842AF"/>
</radialGradient>
<clipPath id="clip0_106_2">
<rect width="300" height="300" fill="white"/>
</clipPath>
</defs>
</svg>
