<svg width="2027" height="1113" viewBox="0 0 2027 1113" fill="none" xmlns="http://www.w3.org/2000/svg">
<rect x="330" y="264" width="1311" height="512" rx="256" fill="#FF5656" stroke="white" stroke-width="56"/>
<rect x="366" y="300" width="1239" height="440" rx="220" fill="#FF5656" stroke="black" stroke-width="16"/>
<path d="M560.954 607C558.394 607 557.114 606.061 557.114 604.184C557.114 602.648 558.223 601.624 560.442 601.112L566.33 600.088C569.914 599.405 572.218 598.467 573.242 597.272C574.437 596.077 575.034 593.688 575.034 590.104V439.576C575.034 435.992 574.437 433.603 573.242 432.408C572.218 431.213 569.914 430.275 566.33 429.592L560.442 428.568C558.223 428.056 557.114 427.032 557.114 425.496C557.114 423.619 558.394 422.68 560.954 422.68H612.922C621.455 422.68 629.05 424.472 635.706 428.056C642.362 431.64 647.567 436.504 651.322 442.648C655.247 448.792 657.21 455.789 657.21 463.64C657.21 471.32 654.906 478.488 650.298 485.144C645.861 491.629 639.375 497.091 630.842 501.528C629.818 502.04 629.306 502.723 629.306 503.576C629.306 504.429 629.903 505.027 631.098 505.368C642.703 509.293 651.663 515.608 657.978 524.312C664.293 532.845 667.45 543 667.45 554.776C667.45 564.845 665.146 573.891 660.538 581.912C655.93 589.763 649.53 595.907 641.338 600.344C633.317 604.781 624.186 607 613.946 607H560.954ZM606.778 501.784C615.823 501.784 623.333 498.285 629.306 491.288C635.45 484.12 638.522 475.245 638.522 464.664C638.522 454.083 635.621 445.549 629.818 439.064C624.015 432.408 616.335 429.08 606.778 429.08C597.733 429.08 593.21 432.493 593.21 439.32V487.704C593.21 492.653 594.234 496.237 596.282 498.456C598.501 500.675 601.999 501.784 606.778 501.784ZM610.618 600.6C621.711 600.6 630.757 596.419 637.754 588.056C644.751 579.523 648.25 568.173 648.25 554.008C648.25 539.843 644.666 528.664 637.498 520.472C630.501 512.28 621.029 508.184 609.082 508.184C598.501 508.184 593.21 512.365 593.21 520.728V582.936C593.21 594.712 599.013 600.6 610.618 600.6ZM673.732 607C671.172 607 669.892 606.147 669.892 604.44C669.892 602.733 671.087 601.624 673.476 601.112L677.316 600.344C680.729 599.661 683.289 598.04 684.996 595.48C686.703 592.749 688.153 588.995 689.348 584.216L729.028 424.216C729.369 422.509 729.881 421.4 730.564 420.888C731.417 420.376 732.185 420.12 732.868 420.12C733.721 420.12 734.489 420.376 735.172 420.888C736.025 421.4 736.623 422.509 736.964 424.216L777.412 586.52C778.607 591.299 779.972 594.627 781.508 596.504C783.044 598.381 785.433 599.661 788.676 600.344L792.516 601.112C794.905 601.624 796.1 602.733 796.1 604.44C796.1 606.147 794.82 607 792.26 607H748.484C746.095 607 744.9 606.061 744.9 604.184C744.9 602.307 746.351 601.283 749.252 601.112L754.116 600.6C757.017 600.259 758.809 599.32 759.492 597.784C760.345 596.248 760.345 593.603 759.492 589.848L749.764 550.168C748.74 545.731 745.924 543.512 741.316 543.512H714.436C709.999 543.512 707.183 545.731 705.988 550.168L697.284 584.472C694.724 594.2 697.284 599.576 704.964 600.6L708.804 601.112C711.705 601.624 713.156 602.648 713.156 604.184C713.156 606.061 711.961 607 709.572 607H673.732ZM713.668 535.832H741.828C744.559 535.832 745.668 534.381 745.156 531.48L728.772 462.872H727.492L710.34 531.48C709.828 534.381 710.937 535.832 713.668 535.832ZM855.966 609.304C843.337 609.304 832.243 605.379 822.686 597.528C813.299 589.677 805.961 578.669 800.67 564.504C795.55 550.168 792.99 533.272 792.99 513.816C792.99 495.043 795.806 478.659 801.438 464.664C807.241 450.499 814.921 439.576 824.478 431.896C834.206 424.045 844.958 420.12 856.734 420.12C863.731 420.12 869.875 420.803 875.166 422.168C880.457 423.363 885.15 424.984 889.246 427.032C891.294 428.227 892.318 430.019 892.318 432.408L893.086 471.32C893.086 474.221 892.062 475.672 890.014 475.672C888.137 475.672 886.942 474.563 886.43 472.344L883.87 462.872C880.286 449.56 876.105 440.344 871.326 435.224C866.718 430.104 861.171 427.544 854.686 427.544C842.739 427.544 832.755 434.968 824.734 449.816C816.883 464.493 812.958 485.827 812.958 513.816C812.958 532.931 814.921 549.059 818.846 562.2C822.942 575.341 828.147 585.24 834.462 591.896C840.947 598.552 847.774 601.88 854.942 601.88C862.622 601.88 868.766 599.491 873.374 594.712C878.153 589.933 882.163 580.717 885.406 567.064L888.478 554.52C888.99 551.96 890.355 550.851 892.574 551.192C894.451 551.533 895.39 552.984 895.39 555.544L894.366 597.016C894.366 599.405 893.257 601.197 891.038 602.392C886.942 604.44 882.078 606.061 876.446 607.256C870.985 608.621 864.158 609.304 855.966 609.304ZM914.454 607C911.894 607 910.614 606.061 910.614 604.184C910.614 602.648 911.723 601.624 913.942 601.112L919.83 600.088C923.414 599.405 925.718 598.467 926.742 597.272C927.937 596.077 928.534 593.688 928.534 590.104V439.576C928.534 435.992 927.937 433.603 926.742 432.408C925.718 431.213 923.414 430.275 919.83 429.592L913.942 428.568C911.723 428.056 910.614 427.032 910.614 425.496C910.614 423.619 911.894 422.68 914.454 422.68H961.302C963.862 422.68 965.142 423.704 965.142 425.752C965.142 427.288 964.203 428.227 962.326 428.568L955.414 429.592C951.83 430.104 949.441 431.043 948.246 432.408C947.222 433.773 946.71 436.248 946.71 439.832V508.952C946.71 510.659 947.222 511.683 948.246 512.024C949.27 512.365 950.209 511.768 951.062 510.232L993.046 444.44C998.678 435.736 998.166 430.787 991.51 429.592L985.622 428.568C983.403 428.056 982.294 426.947 982.294 425.24C982.294 423.533 983.489 422.68 985.878 422.68H1029.4C1031.79 422.68 1032.98 423.619 1032.98 425.496C1032.98 427.373 1031.87 428.397 1029.65 428.568L1024.79 429.08C1019.5 429.592 1015.15 431.128 1011.73 433.688C1008.32 436.248 1004.48 440.856 1000.21 447.512L971.286 492.824C969.579 495.725 969.494 498.541 971.03 501.272L1019.16 591.896C1020.52 594.627 1021.89 596.589 1023.25 597.784C1024.79 598.979 1026.58 599.747 1028.63 600.088L1034.77 601.112C1036.82 601.283 1037.85 602.307 1037.85 604.184C1037.85 606.061 1036.65 607 1034.26 607H988.694C986.305 607 985.11 606.061 985.11 604.184C985.11 602.477 986.219 601.453 988.438 601.112L992.79 600.6C999.446 599.747 1000.81 595.565 996.886 588.056L960.022 517.912C959.339 516.547 958.571 515.864 957.718 515.864C956.865 515.693 956.011 516.291 955.158 517.656L949.782 526.104C948.587 527.811 947.734 529.432 947.222 530.968C946.881 532.504 946.71 534.467 946.71 536.856V589.848C946.71 593.432 947.222 595.907 948.246 597.272C949.441 598.637 951.83 599.576 955.414 600.088L962.326 601.112C964.203 601.453 965.142 602.392 965.142 603.928C965.142 605.976 963.862 607 961.302 607H914.454ZM1038.45 607C1035.89 607 1034.61 606.061 1034.61 604.184C1034.61 602.648 1035.72 601.624 1037.94 601.112L1043.83 600.088C1047.41 599.405 1049.72 598.467 1050.74 597.272C1051.94 596.077 1052.53 593.688 1052.53 590.104V439.576C1052.53 435.992 1051.94 433.603 1050.74 432.408C1049.72 431.213 1047.41 430.275 1043.83 429.592L1037.94 428.568C1035.72 428.056 1034.61 427.032 1034.61 425.496C1034.61 423.619 1035.89 422.68 1038.45 422.68H1124.47C1128.4 422.68 1130.53 424.643 1130.87 428.568L1132.92 471.064C1133.26 473.965 1132.15 475.416 1129.59 475.416C1127.54 475.416 1126.35 474.307 1126.01 472.088L1124.47 462.616C1122.59 451.011 1118.75 442.563 1112.95 437.272C1107.15 431.811 1099.13 429.08 1088.89 429.08C1082.06 429.08 1077.28 430.104 1074.55 432.152C1071.99 434.029 1070.71 437.443 1070.71 442.392V504.088C1070.71 506.477 1071.9 507.672 1074.29 507.672H1087.09C1094.6 507.672 1099.21 503.661 1100.92 495.64L1103.48 482.84C1104.16 480.28 1105.61 479.171 1107.83 479.512C1109.71 479.853 1110.65 481.304 1110.65 483.864V541.464C1110.65 544.024 1109.71 545.475 1107.83 545.816C1105.61 546.157 1104.16 545.048 1103.48 542.488L1100.92 529.944C1099.72 523.971 1098.02 520.045 1095.8 518.168C1093.75 516.291 1090.76 515.352 1086.84 515.352H1074.29C1071.9 515.352 1070.71 516.547 1070.71 518.936V583.192C1070.71 589.336 1072.25 593.773 1075.32 596.504C1078.56 599.235 1084.36 600.6 1092.73 600.6C1101.26 600.6 1108.51 598.467 1114.49 594.2C1120.63 589.763 1124.9 581.571 1127.29 569.624L1130.36 554.52C1130.87 552.301 1132.15 551.192 1134.2 551.192C1136.59 551.192 1137.61 552.643 1137.27 555.544L1134.71 601.112C1134.37 605.037 1132.24 607 1128.31 607H1038.45ZM1255.57 609.304C1252.84 609.304 1250.54 607.256 1248.66 603.16L1179.29 452.632C1178.77 451.437 1178.09 450.925 1177.24 451.096C1176.56 451.267 1176.21 452.035 1176.21 453.4V584.984C1176.21 589.763 1176.98 593.432 1178.52 595.992C1180.22 598.381 1183.21 599.917 1187.48 600.6L1190.81 601.112C1193.02 601.283 1194.13 602.307 1194.13 604.184C1194.13 606.061 1192.85 607 1190.29 607H1153.69C1151.13 607 1149.85 606.061 1149.85 604.184C1149.85 602.307 1150.96 601.283 1153.17 601.112L1156.5 600.6C1160.94 599.917 1164.01 598.381 1165.72 595.992C1167.42 593.432 1168.28 589.763 1168.28 584.984V439.576C1168.28 435.992 1167.68 433.603 1166.49 432.408C1165.46 431.213 1162.99 430.275 1159.06 429.592L1153.17 428.568C1150.96 428.056 1149.85 427.032 1149.85 425.496C1149.85 423.619 1151.13 422.68 1153.69 422.68H1181.08C1185.34 422.68 1188.33 424.557 1190.04 428.312L1250.45 561.176C1250.97 562.2 1251.56 562.627 1252.25 562.456C1253.1 562.285 1253.53 561.688 1253.53 560.664V444.696C1253.53 439.235 1252.59 435.48 1250.71 433.432C1248.83 431.213 1246.44 429.848 1243.54 429.336L1238.93 428.568C1236.72 428.056 1235.61 427.032 1235.61 425.496C1235.61 423.619 1236.89 422.68 1239.45 422.68H1276.05C1278.61 422.68 1279.89 423.619 1279.89 425.496C1279.89 427.373 1278.78 428.397 1276.57 428.568L1273.24 429.08C1268.8 429.763 1265.73 431.213 1264.02 433.432C1262.32 435.48 1261.46 439.235 1261.46 444.696V601.112C1261.46 604.184 1260.86 606.317 1259.67 607.512C1258.65 608.707 1257.28 609.304 1255.57 609.304ZM1292.7 607C1290.14 607 1288.86 606.061 1288.86 604.184C1288.86 602.648 1289.97 601.624 1292.19 601.112L1298.08 600.088C1303.88 599.064 1306.78 595.736 1306.78 590.104V439.576C1306.78 435.992 1306.19 433.603 1304.99 432.408C1303.97 431.213 1301.66 430.275 1298.08 429.592L1292.19 428.568C1289.97 428.056 1288.86 427.032 1288.86 425.496C1288.86 423.619 1290.14 422.68 1292.7 422.68H1344.42C1357.73 422.68 1369.25 426.605 1378.98 434.456C1388.7 442.136 1396.21 452.973 1401.5 466.968C1406.79 480.963 1409.44 497.176 1409.44 515.608C1409.44 534.211 1406.62 550.339 1400.99 563.992C1395.53 577.645 1387.77 588.227 1377.7 595.736C1367.63 603.245 1355.68 607 1341.86 607H1292.7ZM1342.88 600.344C1358.07 600.344 1369.59 593.091 1377.44 578.584C1385.46 564.077 1389.47 543.085 1389.47 515.608C1389.47 488.301 1385.63 467.139 1377.95 452.12C1370.44 436.931 1359.26 429.336 1344.42 429.336C1331.45 429.336 1324.96 435.565 1324.96 448.024V581.656C1324.96 588.483 1326.33 593.347 1329.06 596.248C1331.96 598.979 1336.57 600.344 1342.88 600.344Z" fill="white"/>
<rect opacity="0.56" x="201.391" y="509" width="413" height="481" rx="32" transform="rotate(22.6703 201.391 509)" fill="black"/>
<rect x="185.391" y="472" width="413" height="481" rx="32" transform="rotate(22.6703 185.391 472)" fill="white"/>
<rect x="157.291" y="585.975" width="375" height="248" transform="rotate(22.6703 157.291 585.975)" fill="black"/>
<path d="M199.644 971.051C244.202 989.663 288.527 997.992 324.361 996.102C359.563 994.245 389.516 982.202 400.156 956.728C410.797 931.253 398.309 901.483 374.887 875.139C351.045 848.322 313.965 822.647 269.406 804.035C224.848 785.423 180.523 777.095 144.689 778.985C109.487 780.842 79.5342 792.884 68.8935 818.359C58.2528 843.833 70.7406 873.604 94.1625 899.947C118.005 926.765 155.085 952.439 199.644 971.051Z" fill="#0047AB" stroke="black" stroke-width="16"/>
<path d="M231.635 894.464C276.193 913.076 320.519 921.405 356.352 919.514C391.554 917.658 421.507 905.615 432.148 880.14C442.788 854.666 430.301 824.896 406.879 798.552C383.036 771.734 345.956 746.06 301.397 727.448C256.839 708.836 212.514 700.507 176.68 702.398C141.479 704.254 111.525 716.297 100.885 741.772C90.244 767.246 102.732 797.017 126.154 823.36C149.997 850.178 187.077 875.852 231.635 894.464Z" fill="#0047AB" stroke="black" stroke-width="16"/>
<path d="M263.625 817.877C308.184 836.489 352.509 844.818 388.343 842.927C423.544 841.07 453.497 829.028 464.138 803.553C474.779 778.079 462.291 748.308 438.869 721.965C415.026 695.147 377.946 669.473 333.388 650.861C288.829 632.249 244.504 623.92 208.67 625.81C173.469 627.667 143.516 639.71 132.875 665.185C122.234 690.659 134.722 720.429 158.144 746.773C181.987 773.59 219.067 799.265 263.625 817.877Z" fill="#0047AB" stroke="black" stroke-width="16"/>
<path d="M295.615 741.289C340.174 759.901 384.499 768.23 420.333 766.34C455.534 764.483 485.487 752.44 496.128 726.966C506.769 701.491 494.281 671.721 470.859 645.377C447.016 618.56 409.936 592.886 365.378 574.274C320.82 555.662 276.494 547.333 240.66 549.223C205.459 551.08 175.506 563.123 164.865 588.597C154.225 614.072 166.712 643.842 190.134 670.186C213.977 697.003 251.057 722.677 295.615 741.289Z" fill="#0047AB" stroke="black" stroke-width="16"/>
<g opacity="0.56">
<circle cx="1490.3" cy="311.447" r="125.304" fill="#0047AB" stroke="black" stroke-width="56" stroke-linejoin="round"/>
<circle cx="1827.12" cy="276.874" r="159.877" fill="#0047AB" stroke="black" stroke-width="56" stroke-linejoin="round"/>
<circle cx="1718.06" cy="174.937" r="129.937" fill="#0047AB" stroke="black" stroke-width="56" stroke-linejoin="round"/>
<circle cx="1577.63" cy="204.164" r="87.1662" fill="#0047AB" stroke="black" stroke-width="56" stroke-linejoin="round"/>
<rect x="1456.24" y="198.262" width="391.751" height="238.489" fill="#0047AB" stroke="black" stroke-width="56" stroke-linejoin="round"/>
</g>
<circle cx="1502.3" cy="294.447" r="125.304" fill="#0047AB" stroke="white" stroke-width="56" stroke-linejoin="round"/>
<circle cx="1839.12" cy="259.874" r="159.877" fill="#0047AB" stroke="white" stroke-width="56" stroke-linejoin="round"/>
<circle cx="1730.06" cy="157.937" r="129.937" fill="#0047AB" stroke="white" stroke-width="56" stroke-linejoin="round"/>
<circle cx="1589.63" cy="187.164" r="87.1662" fill="#0047AB" stroke="white" stroke-width="56" stroke-linejoin="round"/>
<rect x="1468.24" y="181.262" width="391.751" height="238.489" fill="#0047AB" stroke="white" stroke-width="56" stroke-linejoin="round"/>
<circle cx="1502.3" cy="294.447" r="105.304" fill="#0047AB" stroke="black" stroke-width="16" stroke-linejoin="round"/>
<circle cx="1839.12" cy="259.874" r="139.877" fill="#0047AB" stroke="black" stroke-width="16" stroke-linejoin="round"/>
<circle cx="1730.06" cy="157.937" r="109.937" fill="#0047AB" stroke="black" stroke-width="16" stroke-linejoin="round"/>
<circle cx="1589.63" cy="187.164" r="67.1662" fill="#0047AB" stroke="black" stroke-width="16" stroke-linejoin="round"/>
<rect x="1488.24" y="201.262" width="351.751" height="198.489" fill="#0047AB" stroke="black" stroke-width="16" stroke-linejoin="round"/>
<circle cx="1502.3" cy="294.447" r="97.3035" fill="#00C2FF"/>
<circle cx="1839.12" cy="259.874" r="131.877" fill="#00C2FF"/>
<circle cx="1730.06" cy="157.937" r="101.937" fill="#00C2FF"/>
<circle cx="1589.63" cy="187.164" r="59.1662" fill="#00C2FF"/>
<rect x="1496.24" y="209.262" width="335.751" height="182.489" fill="#00C2FF"/>
<rect opacity="0.56" x="1108.86" y="785.814" width="705" height="226" rx="48" transform="rotate(-12.7804 1108.86 785.814)" fill="#00FF66" stroke="black" stroke-width="32"/>
<rect x="1132.86" y="798.814" width="705" height="226" rx="48" transform="rotate(-12.7804 1132.86 798.814)" fill="#00FF66" stroke="white" stroke-width="32"/>
<rect x="1161.57" y="816.91" width="657" height="178" rx="24" transform="rotate(-12.7804 1161.57 816.91)" fill="#00FF66" stroke="black" stroke-width="16"/>
<path d="M1261.55 932.661L1240.88 841.536L1255.86 838.139L1301.39 909.842C1300.75 907.799 1299.97 905.308 1299.04 902.369C1298.18 899.328 1297.28 896.162 1296.36 892.871C1295.5 889.477 1294.74 886.283 1294.06 883.287L1282.45 832.107L1293.31 829.644L1313.98 920.769L1299 924.167L1253.59 852.435C1254.21 854.394 1254.95 856.895 1255.82 859.936C1256.66 862.894 1257.51 866.07 1258.37 869.463C1259.29 872.754 1260.1 875.939 1260.8 879.018L1272.41 930.198L1261.55 932.661ZM1362.9 910.985C1357.4 912.231 1352.42 912.267 1347.96 911.092C1343.57 909.899 1339.86 907.592 1336.81 904.172C1333.82 900.649 1331.71 896.183 1330.49 890.774L1321.14 849.58C1319.9 844.088 1319.87 839.15 1321.06 834.767C1322.34 830.365 1324.7 826.68 1328.14 823.712C1331.66 820.726 1336.17 818.609 1341.66 817.364C1347.15 816.118 1352.09 816.091 1356.47 817.285C1360.94 818.459 1364.66 820.766 1367.62 824.205C1370.67 827.626 1372.81 832.041 1374.04 837.45L1383.41 878.768C1384.64 884.177 1384.62 889.125 1383.37 893.61C1382.17 897.993 1379.82 901.678 1376.29 904.665C1372.85 907.632 1368.39 909.739 1362.9 910.985ZM1360.6 900.874C1365.51 899.76 1368.94 897.538 1370.9 894.206C1372.92 890.773 1373.35 886.476 1372.18 881.317L1362.83 840.123C1361.66 834.963 1359.44 831.313 1356.15 829.17C1352.93 826.926 1348.86 826.361 1343.95 827.475C1339.13 828.57 1335.7 830.834 1333.68 834.267C1331.64 837.618 1331.21 841.872 1332.38 847.032L1341.72 888.226C1342.89 893.385 1345.13 897.078 1348.43 899.303C1351.72 901.445 1355.77 901.969 1360.6 900.874ZM1411.5 898.648L1390.83 807.523L1414.42 802.172C1420.33 800.831 1425.66 800.803 1430.41 802.087C1435.25 803.353 1439.3 805.76 1442.55 809.309C1445.89 812.839 1448.19 817.392 1449.45 822.968L1457.69 859.293C1458.96 864.869 1458.86 870.011 1457.39 874.719C1455.98 879.326 1453.37 883.243 1449.55 886.472C1445.82 889.681 1441 891.956 1435.09 893.297L1411.5 898.648ZM1420.47 886.113L1432.82 883.31C1438.32 882.064 1442.25 879.553 1444.63 875.775C1447.1 871.979 1447.71 867.334 1446.46 861.842L1438.22 825.517C1436.99 820.107 1434.45 816.222 1430.59 813.86C1426.81 811.479 1422.18 810.912 1416.68 812.158L1404.33 814.961L1420.47 886.113ZM1487.34 881.443L1466.67 790.318L1519.1 778.426L1521.42 788.662L1480.1 798.034L1486.5 826.246L1523.45 817.864L1525.75 827.975L1488.8 836.357L1496.13 868.687L1537.45 859.315L1539.77 869.551L1487.34 881.443ZM1587.44 860.05C1584.28 860.768 1581.53 860.428 1579.2 859.031C1576.96 857.616 1575.48 855.368 1574.79 852.289C1574.05 849.044 1574.38 846.256 1575.78 843.927C1577.26 841.579 1579.58 840.046 1582.74 839.329C1585.9 838.611 1588.62 839.002 1590.88 840.501C1593.23 841.981 1594.77 844.343 1595.51 847.589C1596.21 850.668 1595.81 853.34 1594.31 855.605C1592.89 857.851 1590.6 859.333 1587.44 860.05ZM1658.54 843.921C1649.81 845.904 1642.38 845.006 1636.28 841.229C1630.17 837.451 1626.15 831.318 1624.23 822.83L1635.46 820.282C1636.73 825.857 1639.17 829.854 1642.78 832.273C1646.45 834.589 1650.95 835.143 1656.28 833.935C1661.61 832.727 1665.38 830.295 1667.62 826.638C1669.92 822.879 1670.43 818.212 1669.17 812.636L1656.76 757.961L1634.92 762.917L1632.6 752.681L1665.68 745.177L1680.4 810.088C1682.33 818.576 1681.31 825.851 1677.35 831.913C1673.47 837.955 1667.2 841.958 1658.54 843.921ZM1737.64 825.98C1731.65 827.34 1726.26 827.511 1721.48 826.496C1716.78 825.461 1712.84 823.336 1709.66 820.119C1706.48 816.903 1704.27 812.725 1703.01 807.584L1714.25 805.035C1715.29 809.613 1717.65 812.883 1721.33 814.848C1725.1 816.794 1729.77 817.134 1735.34 815.869C1740.59 814.68 1744.37 812.465 1746.7 809.225C1749.11 805.965 1749.8 802.047 1748.76 797.47C1747.93 793.808 1746.2 790.831 1743.58 788.538C1741.04 786.226 1737.82 784.944 1733.92 784.693L1720.68 783.626C1714 783.128 1708.45 781.019 1704.02 777.299C1699.67 773.56 1696.81 768.653 1695.43 762.578C1694.32 757.669 1694.44 753.179 1695.79 749.11C1697.2 744.938 1699.68 741.401 1703.22 738.498C1706.75 735.511 1711.21 733.404 1716.62 732.177C1724.61 730.365 1731.53 731.159 1737.37 734.557C1743.2 737.873 1747 743.225 1748.76 750.613L1737.53 753.161C1736.51 748.667 1734.34 745.483 1731.03 743.61C1727.78 741.634 1723.7 741.203 1718.79 742.317C1713.96 743.412 1710.44 745.436 1708.22 748.389C1706.09 751.323 1705.49 754.871 1706.44 759.031C1707.29 762.776 1709.02 765.795 1711.64 768.089C1714.26 770.382 1717.58 771.686 1721.59 772.002L1734.98 773.165C1741.48 773.701 1746.92 775.88 1751.29 779.702C1755.66 783.524 1758.54 788.514 1759.94 794.672C1761.07 799.665 1760.89 804.298 1759.41 808.572C1757.93 812.845 1755.31 816.504 1751.53 819.547C1747.85 822.571 1743.21 824.716 1737.64 825.98Z" fill="white"/>
</svg>
