<svg width="1494" height="1592" viewBox="0 0 1494 1592" fill="none" xmlns="http://www.w3.org/2000/svg">
<circle cx="414" cy="414" r="386" fill="#0047AB" stroke="white" stroke-width="56"/>
<circle cx="414" cy="414" r="350" fill="#0047AB" stroke="black" stroke-width="16"/>
<rect x="744" y="349" width="722" height="722" rx="109" fill="#00FF66" stroke="white" stroke-width="56"/>
<rect x="780" y="385" width="650" height="650" rx="73" fill="#00FF66" stroke="black" stroke-width="16"/>
<path d="M901.802 1334L591.765 797C570.981 761 519.019 761 498.235 797L188.198 1334C167.413 1370 193.394 1415 234.963 1415H855.037C896.606 1415 922.587 1370 901.802 1334Z" fill="#FF5656" stroke="white" stroke-width="56" stroke-linejoin="round"/>
<path d="M560.588 815L870.626 1352C877.554 1364 868.893 1379 855.037 1379H234.963C221.107 1379 212.446 1364 219.374 1352L529.412 815C536.34 803 553.66 803 560.588 815Z" fill="#FF5656" stroke="black" stroke-width="16" stroke-linejoin="round"/>
<rect opacity="0.56" x="447" y="291" width="778" height="1002" rx="121" fill="black"/>
<rect x="419" y="259" width="778" height="1002" rx="121" fill="white"/>
<rect x="477" y="318" width="661" height="880" rx="80" fill="#FA00FF" stroke="black" stroke-width="16"/>
<path d="M573.408 772C568.288 772 565.728 770.123 565.728 766.368C565.728 763.296 567.947 761.248 572.384 760.224L584.16 758.176C595.765 756.128 601.568 749.472 601.568 738.208V437.152C601.568 429.984 600.373 425.205 597.984 422.816C595.936 420.427 591.328 418.549 584.16 417.184L572.384 415.136C567.947 414.112 565.728 412.064 565.728 408.992C565.728 405.237 568.288 403.36 573.408 403.36H676.832C703.456 403.36 726.496 411.211 745.952 426.912C765.408 442.272 780.427 463.947 791.008 491.936C801.589 519.925 806.88 552.352 806.88 589.216C806.88 626.421 801.248 658.677 789.984 685.984C779.061 713.291 763.531 734.453 743.392 749.472C723.253 764.491 699.36 772 671.712 772H573.408ZM673.76 758.688C704.139 758.688 727.179 744.181 742.88 715.168C758.923 686.155 766.944 644.171 766.944 589.216C766.944 534.603 759.264 492.277 743.904 462.24C728.885 431.861 706.528 416.672 676.832 416.672C650.891 416.672 637.92 429.131 637.92 454.048V721.312C637.92 734.965 640.651 744.693 646.112 750.496C651.915 755.957 661.131 758.688 673.76 758.688ZM813.464 772C808.344 772 805.784 770.293 805.784 766.88C805.784 763.467 808.173 761.248 812.952 760.224L820.632 758.688C827.459 757.323 832.579 754.08 835.992 748.96C839.405 743.499 842.307 735.989 844.696 726.432L924.056 406.432C924.739 403.019 925.763 400.8 927.128 399.776C928.835 398.752 930.371 398.24 931.736 398.24C933.443 398.24 934.979 398.752 936.344 399.776C938.051 400.8 939.245 403.019 939.928 406.432L1020.82 731.04C1023.21 740.597 1025.94 747.253 1029.02 751.008C1032.09 754.763 1036.87 757.323 1043.35 758.688L1051.03 760.224C1055.81 761.248 1058.2 763.467 1058.2 766.88C1058.2 770.293 1055.64 772 1050.52 772H962.968C958.189 772 955.8 770.123 955.8 766.368C955.8 762.613 958.701 760.565 964.504 760.224L974.232 759.2C980.035 758.517 983.619 756.64 984.984 753.568C986.691 750.496 986.691 745.205 984.984 737.696L965.528 658.336C963.48 649.461 957.848 645.024 948.632 645.024H894.872C885.997 645.024 880.365 649.461 877.976 658.336L860.568 726.944C855.448 746.4 860.568 757.152 875.928 759.2L883.608 760.224C889.411 761.248 892.312 763.296 892.312 766.368C892.312 770.123 889.923 772 885.144 772H813.464ZM893.336 629.664H949.656C955.117 629.664 957.336 626.763 956.312 620.96L923.544 483.744H920.984L886.68 620.96C885.656 626.763 887.875 629.664 893.336 629.664Z" fill="white"/>
<rect x="545" y="792" width="525" height="137" fill="white"/>
<rect x="545" y="944" width="525" height="137" fill="white"/>
<path d="M560.08 901C558.88 901 558.28 900.56 558.28 899.68C558.28 898.96 558.8 898.48 559.84 898.24L562.6 897.76C565.32 897.28 566.68 895.72 566.68 893.08V822.52C566.68 820.84 566.4 819.72 565.84 819.16C565.36 818.6 564.28 818.16 562.6 817.84L559.84 817.36C558.8 817.12 558.28 816.64 558.28 815.92C558.28 815.04 558.88 814.6 560.08 814.6H584.32C590.56 814.6 595.96 816.44 600.52 820.12C605.08 823.72 608.6 828.8 611.08 835.36C613.56 841.92 614.8 849.52 614.8 858.16C614.8 866.88 613.48 874.44 610.84 880.84C608.28 887.24 604.64 892.2 599.92 895.72C595.2 899.24 589.6 901 583.12 901H560.08ZM583.6 897.88C590.72 897.88 596.12 894.48 599.8 887.68C603.56 880.88 605.44 871.04 605.44 858.16C605.44 845.36 603.64 835.44 600.04 828.4C596.52 821.28 591.28 817.72 584.32 817.72C578.24 817.72 575.2 820.64 575.2 826.48V889.12C575.2 892.32 575.84 894.6 577.12 895.96C578.48 897.24 580.64 897.88 583.6 897.88ZM622.541 901C621.341 901 620.741 900.56 620.741 899.68C620.741 898.96 621.261 898.48 622.301 898.24L625.061 897.76C626.741 897.44 627.821 897 628.301 896.44C628.861 895.88 629.141 894.76 629.141 893.08V822.52C629.141 820.84 628.861 819.72 628.301 819.16C627.821 818.6 626.741 818.16 625.061 817.84L622.301 817.36C621.261 817.12 620.741 816.64 620.741 815.92C620.741 815.04 621.341 814.6 622.541 814.6H662.861C664.701 814.6 665.701 815.52 665.861 817.36L666.821 837.28C666.981 838.64 666.461 839.32 665.261 839.32C664.301 839.32 663.741 838.8 663.581 837.76L662.861 833.32C661.981 827.88 660.181 823.92 657.461 821.44C654.741 818.88 650.981 817.6 646.181 817.6C642.981 817.6 640.741 818.08 639.461 819.04C638.261 819.92 637.661 821.52 637.661 823.84V852.76C637.661 853.88 638.221 854.44 639.341 854.44H645.341C648.861 854.44 651.021 852.56 651.821 848.8L653.021 842.8C653.341 841.6 654.021 841.08 655.061 841.24C655.941 841.4 656.381 842.08 656.381 843.28V870.28C656.381 871.48 655.941 872.16 655.061 872.32C654.021 872.48 653.341 871.96 653.021 870.76L651.821 864.88C651.261 862.08 650.461 860.24 649.421 859.36C648.461 858.48 647.061 858.04 645.221 858.04H639.341C638.221 858.04 637.661 858.6 637.661 859.72V889.84C637.661 892.72 638.381 894.8 639.821 896.08C641.341 897.36 644.061 898 647.981 898C651.981 898 655.381 897 658.181 895C661.061 892.92 663.061 889.08 664.181 883.48L665.621 876.4C665.861 875.36 666.461 874.84 667.421 874.84C668.541 874.84 669.021 875.52 668.861 876.88L667.661 898.24C667.501 900.08 666.501 901 664.661 901H622.541ZM694.916 902.08C693.316 902.08 691.516 901.92 689.516 901.6C687.596 901.28 685.756 900.88 683.996 900.4C682.316 899.92 680.996 899.4 680.036 898.84C679.476 898.52 679.036 898.2 678.716 897.88C678.476 897.48 678.356 896.84 678.356 895.96L677.756 877.12C677.756 875.52 678.276 874.72 679.316 874.72C680.196 874.72 680.796 875.44 681.116 876.88L682.196 881.44C684.916 892.88 689.996 898.6 697.436 898.6C701.436 898.6 704.596 897.28 706.916 894.64C709.316 891.92 710.516 888.12 710.516 883.24C710.516 878.52 709.276 874.12 706.796 870.04C704.396 865.96 700.516 861.92 695.156 857.92C689.236 853.68 684.916 849.6 682.196 845.68C679.476 841.68 678.116 837.44 678.116 832.96C678.116 827.04 680.156 822.32 684.236 818.8C688.396 815.2 693.676 813.4 700.076 813.4C702.476 813.4 704.796 813.68 707.036 814.24C709.276 814.8 711.116 815.6 712.556 816.64C713.036 816.96 713.396 817.32 713.636 817.72C713.956 818.12 714.116 818.64 714.116 819.28L714.476 837.4C714.476 838.76 713.956 839.44 712.916 839.44C712.196 839.44 711.676 838.88 711.356 837.76L710.516 834.76C708.756 828.6 706.916 824.12 704.996 821.32C703.156 818.44 700.476 817 696.956 817C693.516 817 690.756 818.12 688.676 820.36C686.676 822.6 685.676 825.76 685.676 829.84C685.676 833.28 686.796 836.56 689.036 839.68C691.276 842.8 695.196 846.6 700.796 851.08C706.796 855.96 711.156 860.68 713.876 865.24C716.676 869.72 718.076 874.52 718.076 879.64C718.076 884.12 717.076 888.04 715.076 891.4C713.076 894.76 710.316 897.4 706.796 899.32C703.356 901.16 699.396 902.08 694.916 902.08ZM725.08 901C723.88 901 723.28 900.56 723.28 899.68C723.28 898.96 723.8 898.48 724.84 898.24L727.6 897.76C729.28 897.44 730.36 897 730.84 896.44C731.4 895.88 731.68 894.76 731.68 893.08V822.52C731.68 820.84 731.4 819.72 730.84 819.16C730.36 818.6 729.28 818.16 727.6 817.84L724.84 817.36C723.8 817.12 723.28 816.64 723.28 815.92C723.28 815.04 723.88 814.6 725.08 814.6H746.8C748 814.6 748.6 815.04 748.6 815.92C748.6 816.64 748.08 817.12 747.04 817.36L744.28 817.84C742.6 818.16 741.48 818.6 740.92 819.16C740.44 819.72 740.2 820.84 740.2 822.52V893.08C740.2 894.76 740.44 895.88 740.92 896.44C741.48 897 742.6 897.44 744.28 897.76L747.04 898.24C748.08 898.48 748.6 898.96 748.6 899.68C748.6 900.56 748 901 746.8 901H725.08ZM785.803 902.08C779.323 902.08 773.843 900.24 769.363 896.56C764.883 892.88 761.483 887.72 759.163 881.08C756.843 874.36 755.683 866.44 755.683 857.32C755.683 848.52 757.043 840.84 759.763 834.28C762.483 827.64 766.203 822.52 770.923 818.92C775.723 815.24 781.203 813.4 787.363 813.4C790.483 813.4 793.323 813.72 795.883 814.36C798.443 814.92 800.683 815.68 802.603 816.64C803.643 817.2 804.163 818.04 804.163 819.16L804.523 837.4C804.523 838.76 804.043 839.44 803.083 839.44C802.203 839.44 801.643 838.92 801.403 837.88L800.443 834.28C798.683 827.64 796.683 823.08 794.443 820.6C792.203 818.12 789.123 816.88 785.203 816.88C779.363 816.88 774.523 820.36 770.683 827.32C766.923 834.2 765.043 844.2 765.043 857.32C765.043 870.84 766.963 881.16 770.803 888.28C774.723 895.32 779.723 898.84 785.803 898.84C789.083 898.84 791.563 898.12 793.243 896.68C794.923 895.24 795.763 892.56 795.763 888.64V862.36C795.763 860.68 795.483 859.52 794.923 858.88C794.443 858.24 793.363 857.84 791.683 857.68L787.003 857.2C785.963 857.12 785.443 856.64 785.443 855.76C785.443 854.88 786.043 854.44 787.243 854.44H809.203C810.403 854.44 811.003 854.92 811.003 855.88C811.003 856.6 810.563 857.04 809.683 857.2L807.883 857.44C806.123 857.68 805.083 858.16 804.763 858.88C804.443 859.6 804.283 860.8 804.283 862.48V895C804.283 895.88 804.043 896.6 803.563 897.16C803.083 897.64 802.243 898.2 801.043 898.84C799.123 899.8 796.923 900.56 794.443 901.12C791.963 901.76 789.083 902.08 785.803 902.08ZM864.941 902.08C863.661 902.08 862.581 901.12 861.701 899.2L829.181 828.64C828.941 828.08 828.621 827.84 828.221 827.92C827.901 828 827.741 828.36 827.741 829V890.68C827.741 892.92 828.101 894.64 828.821 895.84C829.621 896.96 831.021 897.68 833.021 898L834.581 898.24C835.621 898.32 836.141 898.8 836.141 899.68C836.141 900.56 835.541 901 834.341 901H817.181C815.981 901 815.381 900.56 815.381 899.68C815.381 898.8 815.901 898.32 816.941 898.24L818.501 898C820.581 897.68 822.021 896.96 822.821 895.84C823.621 894.64 824.021 892.92 824.021 890.68V822.52C824.021 820.84 823.741 819.72 823.181 819.16C822.701 818.6 821.541 818.16 819.701 817.84L816.941 817.36C815.901 817.12 815.381 816.64 815.381 815.92C815.381 815.04 815.981 814.6 817.181 814.6H830.021C832.021 814.6 833.421 815.48 834.221 817.24L862.541 879.52C862.781 880 863.061 880.2 863.381 880.12C863.781 880.04 863.981 879.76 863.981 879.28V824.92C863.981 822.36 863.541 820.6 862.661 819.64C861.781 818.6 860.661 817.96 859.301 817.72L857.141 817.36C856.101 817.12 855.581 816.64 855.581 815.92C855.581 815.04 856.181 814.6 857.381 814.6H874.541C875.741 814.6 876.341 815.04 876.341 815.92C876.341 816.8 875.821 817.28 874.781 817.36L873.221 817.6C871.141 817.92 869.701 818.6 868.901 819.64C868.101 820.6 867.701 822.36 867.701 824.92V898.24C867.701 899.68 867.421 900.68 866.861 901.24C866.381 901.8 865.741 902.08 864.941 902.08Z" fill="#FA00FF"/>
<path d="M591.376 1054.08C586.976 1054.08 583.216 1053.12 580.096 1051.2C576.976 1049.2 574.576 1046.6 572.896 1043.4C571.296 1040.12 570.496 1036.6 570.496 1032.84C570.496 1026.84 572.096 1021.4 575.296 1016.52C578.576 1011.56 582.856 1007.44 588.136 1004.16C589.016 1003.6 589.176 1002.84 588.616 1001.88C586.296 998.04 584.536 994.68 583.336 991.8C582.136 988.84 581.536 985.8 581.536 982.68C581.536 979.4 582.296 976.44 583.816 973.8C585.416 971.16 587.656 969.04 590.536 967.44C593.416 965.84 596.736 965.04 600.496 965.04C603.856 965.04 606.696 965.8 609.016 967.32C611.336 968.84 613.096 970.76 614.296 973.08C615.496 975.32 616.096 977.6 616.096 979.92C616.096 984 614.816 987.72 612.256 991.08C609.696 994.44 605.576 997.6 599.896 1000.56C598.936 1001.2 598.736 1001.96 599.296 1002.84L614.536 1027.32C614.936 1027.88 615.336 1028.16 615.736 1028.16C616.136 1028.08 616.496 1027.76 616.816 1027.2C617.696 1025.36 618.536 1023.48 619.336 1021.56C620.216 1019.56 620.896 1017.96 621.376 1016.76C622.256 1014.44 622.536 1012.76 622.216 1011.72C621.896 1010.6 620.936 1009.92 619.336 1009.68L615.136 1009.08C614.096 1009 613.576 1008.52 613.576 1007.64C613.576 1006.84 614.136 1006.44 615.256 1006.44H636.256C637.376 1006.44 637.936 1006.88 637.936 1007.76C637.936 1008.64 637.416 1009.12 636.376 1009.2L634.096 1009.44C632.336 1009.6 630.656 1010.24 629.056 1011.36C627.536 1012.48 626.136 1014.56 624.856 1017.6C624.136 1019.36 623.256 1021.44 622.216 1023.84C621.176 1026.24 620.096 1028.56 618.976 1030.8C618.336 1032.16 618.376 1033.48 619.096 1034.76L626.056 1045.92C626.856 1047.12 627.536 1048.04 628.096 1048.68C628.736 1049.32 629.536 1049.68 630.496 1049.76L635.776 1050.24C636.736 1050.32 637.216 1050.8 637.216 1051.68C637.216 1052.56 636.656 1053 635.536 1053H623.296C621.776 1053 620.616 1052.36 619.816 1051.08L614.296 1042.44C613.576 1041.32 612.816 1041.28 612.016 1042.32C608.736 1046.56 605.336 1049.6 601.816 1051.44C598.376 1053.2 594.896 1054.08 591.376 1054.08ZM598.096 998.04C601.776 995.8 604.496 993.08 606.256 989.88C608.096 986.68 609.016 983.52 609.016 980.4C609.016 978.48 608.736 976.6 608.176 974.76C607.696 972.92 606.816 971.4 605.536 970.2C604.256 968.92 602.376 968.28 599.896 968.28C596.616 968.28 593.976 969.52 591.976 972C590.056 974.48 589.096 977.2 589.096 980.16C589.096 982.8 589.576 985.32 590.536 987.72C591.496 990.12 593.256 993.36 595.816 997.44C596.296 998.48 597.056 998.68 598.096 998.04ZM592.936 1048.44C595.736 1048.44 598.536 1047.76 601.336 1046.4C604.136 1045.04 606.896 1042.68 609.616 1039.32C610.496 1037.96 610.536 1036.6 609.736 1035.24L592.096 1007.4C591.376 1006.44 590.576 1006.28 589.696 1006.92C585.856 1009.64 583.016 1013 581.176 1017C579.336 1021 578.416 1025.48 578.416 1030.44C578.416 1035.4 579.576 1039.64 581.896 1043.16C584.296 1046.68 587.976 1048.44 592.936 1048.44ZM880.476 1053C879.276 1053 878.676 1052.6 878.676 1051.8C878.676 1051 879.236 1050.48 880.356 1050.24L882.156 1049.88C883.756 1049.56 884.956 1048.8 885.756 1047.6C886.556 1046.32 887.236 1044.56 887.796 1042.32L906.396 967.32C906.556 966.52 906.796 966 907.116 965.76C907.516 965.52 907.876 965.4 908.196 965.4C908.596 965.4 908.956 965.52 909.276 965.76C909.676 966 909.956 966.52 910.116 967.32L929.076 1043.4C929.636 1045.64 930.276 1047.2 930.996 1048.08C931.716 1048.96 932.836 1049.56 934.356 1049.88L936.156 1050.24C937.276 1050.48 937.836 1051 937.836 1051.8C937.836 1052.6 937.236 1053 936.036 1053H915.516C914.396 1053 913.836 1052.56 913.836 1051.68C913.836 1050.8 914.516 1050.32 915.876 1050.24L918.156 1050C919.516 1049.84 920.356 1049.4 920.676 1048.68C921.076 1047.96 921.076 1046.72 920.676 1044.96L916.116 1026.36C915.636 1024.28 914.316 1023.24 912.156 1023.24H899.556C897.476 1023.24 896.156 1024.28 895.596 1026.36L891.516 1042.44C890.316 1047 891.516 1049.52 895.116 1050L896.916 1050.24C898.276 1050.48 898.956 1050.96 898.956 1051.68C898.956 1052.56 898.396 1053 897.276 1053H880.476ZM899.196 1019.64H912.396C913.676 1019.64 914.196 1018.96 913.956 1017.6L906.276 985.44H905.676L897.636 1017.6C897.396 1018.96 897.916 1019.64 899.196 1019.64ZM988.508 1054.08C981.548 1054.08 977.108 1049.52 975.188 1040.4L972.428 1027.08C971.548 1022.76 970.548 1019.48 969.428 1017.24C968.388 1015 966.908 1013.48 964.988 1012.68C963.148 1011.88 960.588 1011.48 957.308 1011.48C956.188 1011.48 955.308 1011.8 954.668 1012.44C954.028 1013 953.708 1013.72 953.708 1014.6V1044.6C953.708 1046.28 954.028 1047.44 954.668 1048.08C955.308 1048.64 956.748 1049.12 958.988 1049.52L963.428 1050.24C964.308 1050.4 964.748 1050.84 964.748 1051.56C964.748 1052.52 964.148 1053 962.948 1053H938.588C937.388 1053 936.788 1052.56 936.788 1051.68C936.788 1050.96 937.308 1050.48 938.348 1050.24L941.108 1049.76C942.788 1049.44 943.868 1049 944.348 1048.44C944.908 1047.88 945.188 1046.76 945.188 1045.08V974.52C945.188 972.84 944.908 971.72 944.348 971.16C943.868 970.6 942.788 970.16 941.108 969.84L938.348 969.36C937.308 969.12 936.788 968.64 936.788 967.92C936.788 967.04 937.388 966.6 938.588 966.6H962.948C967.668 966.6 971.868 967.52 975.548 969.36C979.228 971.2 982.108 973.76 984.188 977.04C986.268 980.24 987.308 983.96 987.308 988.2C987.308 993.24 985.788 997.8 982.748 1001.88C979.708 1005.88 975.868 1008.72 971.228 1010.4C970.668 1010.56 970.348 1010.84 970.268 1011.24C970.268 1011.56 970.548 1011.84 971.108 1012.08C973.668 1013.28 975.668 1014.96 977.108 1017.12C978.628 1019.28 979.788 1022.16 980.588 1025.76L983.228 1038C984.108 1042.16 985.148 1045.12 986.348 1046.88C987.548 1048.64 989.068 1049.52 990.908 1049.52C991.548 1049.52 992.108 1049.44 992.588 1049.28C993.148 1049.04 993.828 1048.64 994.628 1048.08C995.268 1047.68 995.868 1047.6 996.428 1047.84C996.988 1048 997.268 1048.4 997.268 1049.04C997.268 1050.4 996.388 1051.6 994.628 1052.64C992.868 1053.6 990.828 1054.08 988.508 1054.08ZM961.748 1008.48C967.188 1008.48 971.308 1006.68 974.108 1003.08C976.908 999.4 978.308 994.52 978.308 988.44C978.308 982.52 976.668 977.92 973.388 974.64C970.188 971.28 965.748 969.6 960.068 969.6C955.828 969.6 953.708 971.2 953.708 974.4V1001.88C953.708 1006.28 956.388 1008.48 961.748 1008.48ZM1007.85 1053C1006.65 1053 1006.05 1052.56 1006.05 1051.68C1006.05 1050.8 1006.57 1050.32 1007.61 1050.24L1013.01 1049.4C1014.61 1049.16 1015.69 1048.76 1016.25 1048.2C1016.81 1047.56 1017.09 1046.4 1017.09 1044.72V972.72C1017.09 971.6 1016.85 970.8 1016.37 970.32C1015.89 969.84 1014.89 969.6 1013.37 969.6C1010.41 969.6 1007.49 970.88 1004.61 973.44C1001.73 976 999.848 980.12 998.968 985.8L998.368 989.76C998.208 990.8 997.648 991.32 996.688 991.32C995.488 991.32 994.968 990.64 995.128 989.28L996.208 967.56C996.368 965.72 997.088 964.8 998.368 964.8C998.928 964.8 999.448 964.96 999.928 965.28C1000.41 965.52 1001.21 965.8 1002.33 966.12C1003.53 966.44 1005.41 966.6 1007.97 966.6H1034.73C1037.29 966.6 1039.13 966.44 1040.25 966.12C1041.45 965.8 1042.29 965.52 1042.77 965.28C1043.33 964.96 1043.85 964.8 1044.33 964.8C1045.61 964.8 1046.33 965.72 1046.49 967.56L1047.57 989.28C1047.73 990.64 1047.21 991.32 1046.01 991.32C1045.05 991.32 1044.49 990.8 1044.33 989.76L1043.73 985.8C1042.93 980.12 1041.09 976 1038.21 973.44C1035.33 970.88 1032.37 969.6 1029.33 969.6C1027.81 969.6 1026.81 969.84 1026.33 970.32C1025.85 970.8 1025.61 971.6 1025.61 972.72V1044.72C1025.61 1046.4 1025.89 1047.56 1026.45 1048.2C1027.09 1048.76 1028.17 1049.16 1029.69 1049.4L1035.09 1050.24C1036.13 1050.32 1036.65 1050.8 1036.65 1051.68C1036.65 1052.56 1036.05 1053 1034.85 1053H1007.85Z" fill="#FA00FF"/>
</svg>
