<svg width="1922" height="1634" viewBox="0 0 1922 1634" fill="none" xmlns="http://www.w3.org/2000/svg">
<circle cx="979.5" cy="1050.5" r="461" fill="#006AFF" stroke="white" stroke-width="65"/>
<circle cx="979.5" cy="1050.5" r="420.5" fill="#006AFF" stroke="black" stroke-width="16"/>
<path d="M917.483 774.816C933.818 715.351 1017.99 714.91 1034.95 774.201L1167.37 1237.21C1182.54 1290.24 1125.13 1334.57 1077.66 1306.48L1006.82 1264.56C987.327 1253.02 963.044 1253.24 943.757 1265.12L881.839 1303.27C834.692 1332.32 776.351 1288.58 791.02 1235.18L917.483 774.816Z" fill="white"/>
<path d="M854.964 1212C849.844 1212 847.284 1210.29 847.284 1206.88C847.284 1203.47 849.673 1201.25 854.452 1200.22L862.132 1198.69C868.959 1197.32 874.079 1194.08 877.492 1188.96C880.905 1183.5 883.807 1175.99 886.196 1166.43L965.556 846.432C966.239 843.019 967.263 840.8 968.628 839.776C970.335 838.752 971.871 838.24 973.236 838.24C974.943 838.24 976.479 838.752 977.844 839.776C979.551 840.8 980.745 843.019 981.428 846.432L1062.32 1171.04C1064.71 1180.6 1067.44 1187.25 1070.52 1191.01C1073.59 1194.76 1078.37 1197.32 1084.85 1198.69L1092.53 1200.22C1097.31 1201.25 1099.7 1203.47 1099.7 1206.88C1099.7 1210.29 1097.14 1212 1092.02 1212H1004.47C999.689 1212 997.3 1210.12 997.3 1206.37C997.3 1202.61 1000.2 1200.57 1006 1200.22L1015.73 1199.2C1021.53 1198.52 1025.12 1196.64 1026.48 1193.57C1028.19 1190.5 1028.19 1185.21 1026.48 1177.7L1007.03 1098.34C1004.98 1089.46 999.348 1085.02 990.132 1085.02H936.372C927.497 1085.02 921.865 1089.46 919.476 1098.34L902.068 1166.94C896.948 1186.4 902.068 1197.15 917.428 1199.2L925.108 1200.22C930.911 1201.25 933.812 1203.3 933.812 1206.37C933.812 1210.12 931.423 1212 926.644 1212H854.964ZM934.836 1069.66H991.156C996.617 1069.66 998.836 1066.76 997.812 1060.96L965.044 923.744H962.484L928.18 1060.96C927.156 1066.76 929.375 1069.66 934.836 1069.66Z" fill="#006AFF"/>
<path d="M1011.34 891.026C1011.26 890.717 1011.33 890.532 1011.56 890.47C1011.74 890.42 1011.9 890.52 1012.03 890.771L1012.35 891.448C1012.55 891.858 1012.74 892.105 1012.92 892.189C1013.1 892.294 1013.41 892.288 1013.84 892.171L1032 887.24C1032.43 887.123 1032.7 886.973 1032.81 886.79C1032.92 886.627 1032.95 886.318 1032.92 885.864L1032.85 885.12C1032.84 884.835 1032.93 884.668 1033.11 884.618C1033.34 884.556 1033.49 884.68 1033.58 884.989L1036.28 894.933C1036.4 895.406 1036.24 895.728 1035.78 895.898L1030.72 897.536C1030.38 897.673 1030.17 897.586 1030.08 897.277C1030.02 897.03 1030.11 896.85 1030.37 896.736L1031.34 896.305C1032.37 895.85 1033.13 895.335 1033.61 894.761C1034.1 894.187 1034.39 893.609 1034.5 893.028C1034.63 892.44 1034.63 891.91 1034.5 891.436C1034.25 890.531 1033.94 889.952 1033.56 889.701C1033.19 889.45 1032.7 889.405 1032.1 889.567L1024.81 891.546C1024.52 891.624 1024.42 891.808 1024.5 892.096L1024.79 893.177C1025.04 894.083 1025.67 894.507 1026.7 894.45L1028.33 894.371C1028.62 894.36 1028.79 894.478 1028.86 894.725C1028.93 894.972 1028.78 895.143 1028.43 895.238L1021.49 897.125C1021.14 897.22 1020.93 897.144 1020.86 896.896C1020.79 896.649 1020.89 896.459 1021.14 896.324L1022.56 895.574C1023.24 895.234 1023.66 894.9 1023.81 894.57C1023.97 894.262 1023.98 893.871 1023.86 893.397L1023.57 892.347C1023.49 892.059 1023.31 891.954 1023.02 892.032L1014.59 894.321C1014.16 894.439 1013.87 894.584 1013.71 894.758C1013.59 894.947 1013.55 895.266 1013.61 895.715L1013.79 897.225C1013.81 897.463 1013.73 897.607 1013.54 897.657C1013.29 897.724 1013.13 897.603 1013.04 897.295L1011.34 891.026ZM1017.97 916.554C1017.49 914.763 1018.35 913.302 1020.56 912.17L1023.8 910.529C1024.85 910.001 1025.62 909.514 1026.12 909.07C1026.63 908.646 1026.91 908.158 1026.99 907.608C1027.06 907.079 1026.99 906.392 1026.76 905.548C1026.68 905.26 1026.54 905.056 1026.33 904.936C1026.14 904.81 1025.93 904.778 1025.7 904.84L1017.98 906.936C1017.55 907.053 1017.27 907.217 1017.15 907.426C1017.05 907.63 1017.03 908.034 1017.09 908.638L1017.21 909.831C1017.23 910.069 1017.15 910.213 1016.96 910.263C1016.72 910.33 1016.55 910.21 1016.47 909.901L1014.76 903.632C1014.68 903.323 1014.75 903.138 1014.98 903.076C1015.16 903.026 1015.32 903.126 1015.46 903.377L1015.77 904.054C1015.97 904.464 1016.16 904.711 1016.34 904.795C1016.52 904.9 1016.83 904.894 1017.26 904.777L1035.42 899.847C1035.85 899.729 1036.12 899.579 1036.23 899.396C1036.34 899.233 1036.38 898.924 1036.34 898.47L1036.27 897.726C1036.26 897.441 1036.35 897.274 1036.53 897.224C1036.76 897.162 1036.92 897.286 1037 897.595L1038.7 903.864C1039.03 905.078 1039.09 906.224 1038.87 907.299C1038.65 908.375 1038.2 909.295 1037.5 910.059C1036.82 910.818 1035.94 911.346 1034.84 911.642C1033.55 911.994 1032.27 911.922 1031.01 911.424C1029.76 910.922 1028.76 910.132 1028.01 909.055C1027.93 908.922 1027.83 908.859 1027.72 908.867C1027.64 908.889 1027.59 908.981 1027.57 909.142C1027.44 909.884 1027.14 910.516 1026.69 911.038C1026.24 911.58 1025.58 912.08 1024.71 912.537L1021.74 914.072C1020.73 914.589 1020.05 915.063 1019.68 915.495C1019.31 915.927 1019.19 916.38 1019.32 916.853C1019.36 917.018 1019.42 917.156 1019.49 917.269C1019.6 917.396 1019.75 917.543 1019.95 917.71C1020.09 917.847 1020.16 917.995 1020.13 918.156C1020.13 918.312 1020.05 918.412 1019.88 918.456C1019.53 918.551 1019.16 918.409 1018.77 918.028C1018.4 917.643 1018.14 917.151 1017.97 916.554ZM1027.84 906.481C1028.22 907.881 1028.97 908.816 1030.09 909.285C1031.24 909.748 1032.59 909.767 1034.15 909.343C1035.68 908.929 1036.75 908.186 1037.36 907.112C1038 906.054 1038.12 904.794 1037.73 903.332C1037.43 902.241 1036.87 901.807 1036.05 902.031L1028.98 903.951C1027.84 904.258 1027.47 905.102 1027.84 906.481ZM1020.56 926.074C1020.29 925.086 1020.33 924.081 1020.67 923.06C1021.03 922.033 1021.64 921.051 1022.49 920.113C1023.34 919.195 1024.41 918.363 1025.69 917.618C1027 916.888 1028.45 916.305 1030.06 915.869C1031.66 915.433 1033.2 915.203 1034.68 915.178C1036.16 915.174 1037.5 915.352 1038.7 915.711C1039.93 916.084 1040.95 916.625 1041.76 917.334C1042.57 918.042 1043.11 918.89 1043.38 919.878C1043.65 920.866 1043.61 921.861 1043.26 922.861C1042.92 923.883 1042.31 924.865 1041.44 925.809C1040.59 926.747 1039.53 927.579 1038.24 928.303C1036.96 929.048 1035.52 929.639 1033.91 930.075C1032.31 930.511 1030.75 930.734 1029.25 930.743C1027.78 930.768 1026.44 930.59 1025.23 930.211C1024.02 929.832 1023 929.291 1022.17 928.588C1021.36 927.9 1020.83 927.063 1020.56 926.074ZM1021.39 925.848C1021.79 927.31 1022.97 928.215 1024.95 928.563C1026.92 928.912 1029.69 928.602 1033.25 927.635C1036.81 926.668 1039.35 925.538 1040.85 924.245C1042.38 922.946 1042.94 921.566 1042.55 920.105C1042.16 918.663 1040.97 917.758 1038.99 917.389C1037.04 917.035 1034.28 917.342 1030.72 918.309C1027.16 919.276 1024.61 920.409 1023.09 921.707C1021.57 923.027 1021 924.407 1021.39 925.848ZM1026.35 947.421C1026.27 947.091 1026.44 946.746 1026.87 946.386L1042.76 933.087C1042.88 932.986 1042.92 932.887 1042.87 932.789C1042.83 932.712 1042.73 932.696 1042.56 932.741L1026.69 937.051C1026.11 937.207 1025.7 937.42 1025.44 937.689C1025.2 937.973 1025.12 938.384 1025.17 938.921L1025.22 939.339C1025.27 939.613 1025.19 939.78 1024.96 939.841C1024.73 939.903 1024.58 939.779 1024.49 939.47L1023.3 935.054C1023.21 934.746 1023.28 934.56 1023.51 934.499C1023.74 934.437 1023.9 934.538 1023.99 934.8L1024.16 935.184C1024.39 935.697 1024.67 936.018 1025.02 936.145C1025.38 936.267 1025.85 936.25 1026.43 936.094L1043.97 931.331C1044.4 931.214 1044.67 931.063 1044.78 930.88C1044.89 930.717 1044.92 930.388 1044.87 929.892L1044.8 929.148C1044.79 928.864 1044.88 928.697 1045.07 928.646C1045.29 928.585 1045.45 928.709 1045.53 929.017L1046.43 932.322C1046.57 932.836 1046.44 933.258 1046.04 933.587L1031.99 945.227C1031.89 945.322 1031.85 945.408 1031.9 945.485C1031.95 945.582 1032.03 945.614 1032.16 945.581L1046.14 941.782C1046.8 941.604 1047.23 941.367 1047.41 941.074C1047.62 940.775 1047.7 940.442 1047.67 940.075L1047.61 939.494C1047.6 939.21 1047.69 939.042 1047.87 938.992C1048.1 938.93 1048.26 939.054 1048.34 939.363L1049.54 943.779C1049.62 944.088 1049.55 944.273 1049.32 944.334C1049.1 944.396 1048.94 944.296 1048.84 944.034L1048.67 943.649C1048.45 943.136 1048.17 942.813 1047.85 942.68C1047.54 942.541 1047.06 942.561 1046.4 942.74L1027.54 947.863C1027.17 947.963 1026.89 947.961 1026.7 947.856C1026.53 947.772 1026.41 947.627 1026.35 947.421ZM1028.55 954.419C1028.47 954.11 1028.54 953.925 1028.77 953.863C1028.99 953.802 1029.15 953.902 1029.25 954.164L1029.84 955.495C1030.01 955.89 1030.19 956.14 1030.38 956.245C1030.58 956.344 1030.9 956.335 1031.33 956.218L1049.86 951.187C1050.15 951.109 1050.34 950.991 1050.43 950.834C1050.52 950.677 1050.51 950.403 1050.4 950.012C1050.19 949.25 1049.66 948.588 1048.8 948.026C1047.94 947.463 1046.75 947.268 1045.23 947.438L1044.17 947.56C1043.89 947.592 1043.71 947.484 1043.65 947.237C1043.56 946.928 1043.7 946.747 1044.06 946.693L1049.73 945.453C1050.21 945.366 1050.5 945.487 1050.59 945.816C1050.63 945.96 1050.62 946.105 1050.57 946.251C1050.55 946.391 1050.53 946.617 1050.53 946.928C1050.53 947.259 1050.62 947.754 1050.8 948.413L1052.67 955.299C1052.85 955.958 1053.01 956.42 1053.18 956.686C1053.34 956.973 1053.47 957.169 1053.57 957.276C1053.69 957.398 1053.77 957.52 1053.8 957.644C1053.89 957.973 1053.7 958.223 1053.24 958.393L1047.73 960.188C1047.39 960.324 1047.18 960.238 1047.09 959.929C1047.03 959.682 1047.12 959.502 1047.38 959.388L1048.35 958.957C1049.76 958.354 1050.69 957.593 1051.15 956.673C1051.61 955.753 1051.73 954.901 1051.52 954.119C1051.41 953.728 1051.28 953.487 1051.12 953.397C1050.96 953.307 1050.74 953.302 1050.45 953.38L1031.92 958.411C1031.49 958.528 1031.21 958.681 1031.09 958.87C1030.99 959.074 1030.96 959.38 1031.01 959.788L1031.17 961.236C1031.22 961.509 1031.13 961.677 1030.9 961.738C1030.68 961.799 1030.52 961.676 1030.44 961.367L1028.55 954.419ZM1031.71 966.059C1031.63 965.75 1031.7 965.565 1031.93 965.504C1032.11 965.453 1032.27 965.554 1032.41 965.805L1032.72 966.481C1032.92 966.891 1033.11 967.138 1033.29 967.223C1033.47 967.328 1033.78 967.322 1034.21 967.204L1052.37 962.274C1052.8 962.157 1053.07 962.006 1053.18 961.823C1053.29 961.661 1053.33 961.352 1053.29 960.897L1053.22 960.153C1053.21 959.869 1053.3 959.702 1053.48 959.651C1053.71 959.59 1053.86 959.713 1053.95 960.022L1056.77 970.399C1056.89 970.872 1056.73 971.194 1056.27 971.363L1051.21 973.002C1050.87 973.139 1050.66 973.052 1050.57 972.743C1050.5 972.496 1050.6 972.316 1050.86 972.202L1051.95 971.707C1053.29 971.1 1054.18 970.36 1054.63 969.487C1055.1 968.608 1055.16 967.551 1054.83 966.316C1054.6 965.492 1054.32 964.949 1053.99 964.687C1053.68 964.439 1053.22 964.397 1052.63 964.559L1045.18 966.58C1044.9 966.658 1044.79 966.841 1044.87 967.129L1045.29 968.674C1045.53 969.579 1046.17 970.004 1047.19 969.947L1048.82 969.837C1049.15 969.835 1049.33 969.974 1049.36 970.253C1049.39 970.49 1049.24 970.651 1048.93 970.735L1041.98 972.621C1041.67 972.705 1041.47 972.64 1041.37 972.424C1041.25 972.168 1041.34 971.956 1041.63 971.79L1043.05 971.071C1043.74 970.731 1044.15 970.396 1044.31 970.067C1044.47 969.759 1044.48 969.368 1044.35 968.894L1043.94 967.381C1043.86 967.093 1043.68 966.988 1043.39 967.066L1035.64 969.171C1034.9 969.372 1034.42 969.702 1034.19 970.162C1033.96 970.643 1033.99 971.388 1034.26 972.397C1034.54 973.426 1035.04 974.231 1035.75 974.812C1036.48 975.408 1037.61 975.654 1039.13 975.551L1041.05 975.427C1041.34 975.416 1041.51 975.534 1041.58 975.781C1041.66 976.069 1041.52 976.24 1041.16 976.294L1035.58 977.478C1035.09 977.565 1034.78 977.372 1034.66 976.899L1031.71 966.059ZM1038.55 992.326C1038.46 991.997 1038.63 991.652 1039.06 991.291L1054.95 977.992C1055.08 977.891 1055.11 977.792 1055.07 977.695C1055.02 977.618 1054.92 977.602 1054.75 977.647L1038.88 981.956C1038.3 982.113 1037.89 982.326 1037.63 982.595C1037.4 982.879 1037.31 983.29 1037.37 983.827L1037.41 984.245C1037.47 984.518 1037.38 984.686 1037.15 984.747C1036.93 984.809 1036.77 984.685 1036.69 984.376L1035.49 979.96C1035.4 979.651 1035.48 979.466 1035.7 979.404C1035.93 979.343 1036.09 979.443 1036.18 979.705L1036.35 980.09C1036.58 980.603 1036.87 980.923 1037.21 981.051C1037.57 981.173 1038.04 981.156 1038.62 980.999L1056.16 976.237C1056.59 976.119 1056.86 975.969 1056.97 975.786C1057.08 975.623 1057.11 975.294 1057.06 974.798L1057 974.054C1056.98 973.77 1057.07 973.602 1057.26 973.552C1057.48 973.491 1057.64 973.614 1057.72 973.923L1058.62 977.227C1058.76 977.742 1058.63 978.164 1058.23 978.493L1044.18 990.132C1044.08 990.228 1044.05 990.314 1044.09 990.391C1044.14 990.488 1044.22 990.52 1044.35 990.486L1058.34 986.688C1059 986.509 1059.42 986.273 1059.6 985.979C1059.81 985.68 1059.9 985.347 1059.86 984.981L1059.8 984.4C1059.79 984.115 1059.88 983.948 1060.07 983.897C1060.29 983.836 1060.45 983.96 1060.53 984.268L1061.73 988.685C1061.81 988.993 1061.74 989.179 1061.52 989.24C1061.29 989.302 1061.13 989.201 1061.04 988.939L1060.87 988.555C1060.64 988.042 1060.36 987.719 1060.04 987.585C1059.74 987.446 1059.26 987.467 1058.6 987.645L1039.73 992.768C1039.36 992.869 1039.08 992.867 1038.9 992.762C1038.72 992.677 1038.6 992.532 1038.55 992.326ZM1040.04 996.73C1039.96 996.421 1040.03 996.236 1040.25 996.175C1040.44 996.124 1040.6 996.225 1040.73 996.475L1041.05 997.152C1041.36 997.819 1041.86 998.06 1042.54 997.875L1060.7 992.945C1061.13 992.828 1061.4 992.677 1061.5 992.494C1061.62 992.331 1061.65 992.023 1061.62 991.568L1061.55 990.824C1061.54 990.54 1061.62 990.372 1061.81 990.322C1062.04 990.261 1062.19 990.384 1062.28 990.693L1063.97 996.931C1064.41 998.537 1064.31 1000.06 1063.68 1001.49C1063.07 1002.91 1062.01 1004.17 1060.5 1005.27C1058.98 1006.37 1057.11 1007.22 1054.89 1007.82C1052.64 1008.43 1050.61 1008.62 1048.78 1008.38C1046.95 1008.17 1045.42 1007.58 1044.18 1006.61C1042.95 1005.65 1042.1 1004.33 1041.65 1002.66L1040.04 996.73ZM1042.49 1002.56C1042.98 1004.4 1044.24 1005.55 1046.24 1006.02C1048.26 1006.51 1050.92 1006.31 1054.23 1005.41C1057.53 1004.52 1059.96 1003.36 1061.52 1001.94C1063.1 1000.54 1063.65 998.94 1063.17 997.149C1062.74 995.585 1061.78 995.006 1060.27 995.414L1044.15 999.791C1043.33 1000.01 1042.79 1000.34 1042.53 1000.76C1042.29 1001.2 1042.28 1001.8 1042.49 1002.56ZM1045.6 1017.21C1045.52 1016.9 1045.58 1016.72 1045.78 1016.66C1045.99 1016.61 1046.16 1016.72 1046.3 1016.99L1046.52 1017.43C1046.72 1017.81 1047 1018.07 1047.36 1018.19C1047.75 1018.31 1048.25 1018.36 1048.86 1018.35L1069.46 1017.89C1069.68 1017.88 1069.83 1017.91 1069.91 1017.97C1070 1018.06 1070.06 1018.14 1070.08 1018.22C1070.11 1018.33 1070.1 1018.43 1070.06 1018.53C1070.03 1018.65 1069.92 1018.76 1069.72 1018.85L1051.47 1029.05C1050.93 1029.35 1050.57 1029.62 1050.4 1029.87C1050.22 1030.12 1050.15 1030.45 1050.17 1030.86L1050.2 1031.35C1050.22 1031.65 1050.12 1031.83 1049.92 1031.89C1049.71 1031.94 1049.57 1031.82 1049.48 1031.51L1048.05 1026.23C1047.97 1025.94 1048.05 1025.77 1048.27 1025.7C1048.5 1025.64 1048.67 1025.78 1048.79 1026.13L1049.01 1026.7C1049.14 1027.04 1049.31 1027.22 1049.52 1027.25C1049.74 1027.31 1050.05 1027.22 1050.48 1026.99L1054.95 1024.52C1055.45 1024.25 1055.62 1023.84 1055.47 1023.28L1054.59 1020.04C1054.45 1019.51 1054.09 1019.24 1053.51 1019.24L1049.09 1019.31C1047.83 1019.32 1047.27 1019.81 1047.4 1020.77L1047.46 1021.25C1047.49 1021.62 1047.42 1021.82 1047.23 1021.87C1047.01 1021.94 1046.85 1021.82 1046.78 1021.53L1045.6 1017.21ZM1055.49 1019.7L1056.42 1023.09C1056.51 1023.42 1056.72 1023.51 1057.05 1023.35L1064.79 1019.13L1064.75 1018.98L1055.91 1019.15C1055.54 1019.19 1055.41 1019.37 1055.49 1019.7ZM1049.66 1032.17C1049.58 1031.86 1049.65 1031.67 1049.88 1031.61C1050.06 1031.56 1050.22 1031.66 1050.36 1031.91L1050.67 1032.59C1050.87 1033 1051.06 1033.25 1051.24 1033.33C1051.42 1033.43 1051.73 1033.43 1052.16 1033.31L1070.32 1028.38C1070.75 1028.26 1071.02 1028.11 1071.13 1027.93C1071.24 1027.77 1071.27 1027.46 1071.24 1027L1071.17 1026.26C1071.16 1025.98 1071.25 1025.81 1071.43 1025.76C1071.66 1025.7 1071.81 1025.82 1071.9 1026.13L1073.65 1032.58C1073.98 1033.8 1074 1034.94 1073.72 1036.01C1073.46 1037.08 1072.93 1038 1072.14 1038.76C1071.36 1039.53 1070.36 1040.08 1069.14 1040.41C1067.97 1040.72 1066.86 1040.75 1065.81 1040.48C1064.77 1040.21 1063.86 1039.69 1063.1 1038.93C1062.36 1038.16 1061.83 1037.17 1061.51 1035.98L1060.9 1033.76C1060.82 1033.47 1060.64 1033.36 1060.35 1033.44L1052.88 1035.47C1052.45 1035.59 1052.17 1035.75 1052.05 1035.96C1051.95 1036.16 1051.93 1036.57 1051.98 1037.17L1052.11 1038.37C1052.13 1038.6 1052.05 1038.75 1051.86 1038.8C1051.61 1038.86 1051.45 1038.74 1051.36 1038.43L1049.66 1032.17ZM1063.26 1032.65C1062.12 1032.96 1061.74 1033.8 1062.12 1035.18C1062.48 1036.52 1063.24 1037.44 1064.4 1037.95C1065.55 1038.47 1066.96 1038.51 1068.61 1038.06C1070.29 1037.61 1071.49 1036.86 1072.21 1035.83C1072.92 1034.79 1073.08 1033.55 1072.69 1032.11C1072.35 1030.86 1071.77 1030.34 1070.95 1030.57L1063.26 1032.65ZM1053.57 1046.55C1053.48 1046.24 1053.55 1046.06 1053.78 1046C1053.97 1045.95 1054.13 1046.05 1054.26 1046.3L1054.58 1046.97C1054.78 1047.38 1054.97 1047.63 1055.14 1047.72C1055.33 1047.82 1055.63 1047.81 1056.07 1047.7L1074.23 1042.77C1074.66 1042.65 1074.93 1042.5 1075.03 1042.32C1075.14 1042.15 1075.18 1041.84 1075.14 1041.39L1075.08 1040.65C1075.06 1040.36 1075.15 1040.19 1075.34 1040.14C1075.56 1040.08 1075.72 1040.21 1075.8 1040.51L1077.55 1046.97C1077.88 1048.18 1077.91 1049.33 1077.62 1050.4C1077.36 1051.46 1076.84 1052.38 1076.05 1053.15C1075.26 1053.91 1074.26 1054.46 1073.05 1054.79C1071.87 1055.11 1070.76 1055.13 1069.72 1054.87C1068.67 1054.6 1067.77 1054.08 1067.01 1053.31C1066.27 1052.54 1065.74 1051.56 1065.41 1050.37L1064.81 1048.14C1064.73 1047.85 1064.55 1047.75 1064.26 1047.83L1056.79 1049.86C1056.35 1049.97 1056.08 1050.14 1055.96 1050.35C1055.86 1050.55 1055.83 1050.95 1055.89 1051.56L1056.01 1052.75C1056.03 1052.99 1055.95 1053.13 1055.77 1053.18C1055.52 1053.25 1055.35 1053.13 1055.27 1052.82L1053.57 1046.55ZM1067.16 1047.04C1066.03 1047.35 1065.65 1048.19 1066.03 1049.57C1066.39 1050.91 1067.15 1051.83 1068.3 1052.33C1069.46 1052.86 1070.86 1052.9 1072.51 1052.45C1074.2 1051.99 1075.4 1051.25 1076.11 1050.21C1076.83 1049.18 1076.99 1047.94 1076.6 1046.5C1076.26 1045.24 1075.68 1044.73 1074.85 1044.95L1067.16 1047.04ZM1057.47 1060.94C1057.39 1060.63 1057.46 1060.44 1057.69 1060.38C1057.87 1060.33 1058.03 1060.43 1058.17 1060.68L1058.48 1061.36C1058.68 1061.77 1058.87 1062.02 1059.05 1062.1C1059.23 1062.21 1059.54 1062.2 1059.97 1062.08L1078.13 1057.15C1078.56 1057.03 1078.83 1056.88 1078.94 1056.7C1079.05 1056.54 1079.09 1056.23 1079.05 1055.77L1078.98 1055.03C1078.97 1054.75 1079.06 1054.58 1079.24 1054.53C1079.47 1054.47 1079.62 1054.59 1079.71 1054.9L1081.24 1060.55C1081.33 1060.86 1081.24 1061.05 1081 1061.12C1080.81 1061.17 1080.67 1061.08 1080.57 1060.87L1080.22 1060.07C1080.04 1059.65 1079.85 1059.39 1079.64 1059.3C1079.44 1059.22 1079.13 1059.24 1078.7 1059.35L1061.4 1064.05C1060.66 1064.25 1060.18 1064.6 1059.96 1065.1C1059.75 1065.62 1059.73 1066.2 1059.91 1066.84C1060.03 1067.32 1060.26 1067.77 1060.58 1068.22C1060.92 1068.68 1061.42 1069.04 1062.07 1069.31C1062.73 1069.57 1063.62 1069.66 1064.73 1069.58L1066.9 1069.42C1067.19 1069.41 1067.36 1069.53 1067.43 1069.77C1067.51 1070.06 1067.37 1070.23 1067.01 1070.29L1061.1 1071.49C1060.62 1071.58 1060.31 1071.39 1060.18 1070.91L1057.47 1060.94ZM1060.94 1073.69C1060.85 1073.38 1060.92 1073.2 1061.15 1073.14C1061.34 1073.09 1061.5 1073.19 1061.63 1073.44L1061.95 1074.12C1062.15 1074.53 1062.34 1074.77 1062.51 1074.86C1062.7 1074.96 1063 1074.96 1063.44 1074.84L1081.59 1069.91C1082.03 1069.79 1082.3 1069.64 1082.4 1069.46C1082.51 1069.3 1082.55 1068.99 1082.51 1068.53L1082.44 1067.79C1082.43 1067.5 1082.52 1067.34 1082.71 1067.29C1082.93 1067.22 1083.09 1067.35 1083.17 1067.66L1084.69 1073.25C1084.77 1073.56 1084.7 1073.74 1084.48 1073.8C1084.29 1073.85 1084.13 1073.75 1084 1073.5L1083.68 1072.82C1083.48 1072.41 1083.29 1072.16 1083.1 1072.05C1082.93 1071.97 1082.62 1071.98 1082.19 1072.1L1064.03 1077.03C1063.6 1077.15 1063.33 1077.29 1063.22 1077.45C1063.11 1077.63 1063.08 1077.95 1063.11 1078.41L1063.18 1079.15C1063.19 1079.44 1063.11 1079.6 1062.92 1079.65C1062.69 1079.72 1062.54 1079.59 1062.45 1079.28L1060.94 1073.69ZM1064.86 1089.24C1064.45 1087.72 1064.56 1086.25 1065.19 1084.84C1065.83 1083.45 1066.92 1082.21 1068.45 1081.1C1070.01 1080.02 1071.97 1079.15 1074.32 1078.52C1076.58 1077.9 1078.65 1077.71 1080.52 1077.93C1082.42 1078.16 1083.99 1078.73 1085.23 1079.63C1086.5 1080.55 1087.32 1081.72 1087.71 1083.14C1087.94 1083.98 1088.05 1084.75 1088.06 1085.43C1088.09 1086.11 1088.05 1086.73 1087.94 1087.29C1087.86 1087.57 1087.68 1087.76 1087.39 1087.83L1082.72 1089.2C1082.37 1089.3 1082.16 1089.22 1082.1 1088.97C1082.03 1088.75 1082.13 1088.57 1082.38 1088.43L1083.44 1087.81C1084.93 1086.94 1085.9 1086.14 1086.36 1085.39C1086.83 1084.67 1086.96 1083.92 1086.74 1083.13C1086.35 1081.69 1085.13 1080.73 1083.08 1080.25C1081.05 1079.78 1078.35 1080.01 1074.97 1080.93C1072.66 1081.55 1070.78 1082.32 1069.33 1083.22C1067.88 1084.15 1066.85 1085.1 1066.26 1086.08C1065.66 1087.08 1065.49 1088.01 1065.72 1088.88C1065.97 1089.8 1066.46 1090.46 1067.19 1090.86C1067.92 1091.28 1069.17 1091.47 1070.92 1091.41L1072.53 1091.37C1072.86 1091.35 1073.04 1091.48 1073.07 1091.75C1073.09 1091.99 1072.94 1092.15 1072.64 1092.24L1067.6 1093.47C1067.31 1093.55 1067.06 1093.47 1066.84 1093.25C1066.46 1092.82 1066.11 1092.29 1065.78 1091.65C1065.43 1091.03 1065.13 1090.23 1064.86 1089.24ZM1066.64 1094.72C1066.56 1094.41 1066.62 1094.23 1066.83 1094.17C1067.03 1094.11 1067.21 1094.22 1067.35 1094.49L1067.57 1094.93C1067.76 1095.32 1068.04 1095.58 1068.4 1095.7C1068.79 1095.82 1069.29 1095.87 1069.9 1095.86L1090.51 1095.4C1090.72 1095.39 1090.87 1095.41 1090.96 1095.48C1091.05 1095.56 1091.1 1095.65 1091.13 1095.73C1091.15 1095.83 1091.15 1095.93 1091.11 1096.03C1091.07 1096.15 1090.96 1096.26 1090.77 1096.36L1072.51 1106.55C1071.97 1106.85 1071.62 1107.13 1071.44 1107.38C1071.26 1107.62 1071.19 1107.95 1071.21 1108.37L1071.25 1108.85C1071.26 1109.16 1071.17 1109.34 1070.96 1109.4C1070.76 1109.45 1070.61 1109.32 1070.53 1109.02L1069.09 1103.74C1069.01 1103.45 1069.09 1103.27 1069.32 1103.21C1069.54 1103.15 1069.71 1103.29 1069.83 1103.63L1070.05 1104.2C1070.19 1104.54 1070.36 1104.73 1070.57 1104.76C1070.78 1104.81 1071.1 1104.73 1071.52 1104.5L1075.99 1102.03C1076.49 1101.76 1076.67 1101.35 1076.52 1100.79L1075.64 1097.55C1075.49 1097.01 1075.13 1096.75 1074.56 1096.75L1070.13 1096.82C1068.88 1096.83 1068.31 1097.32 1068.44 1098.28L1068.5 1098.76C1068.54 1099.12 1068.46 1099.33 1068.28 1099.38C1068.05 1099.44 1067.9 1099.33 1067.82 1099.04L1066.64 1094.72ZM1076.54 1097.2L1077.46 1100.6C1077.55 1100.93 1077.76 1101.02 1078.09 1100.86L1085.83 1096.64L1085.79 1096.48L1076.95 1096.66C1076.59 1096.69 1076.45 1096.87 1076.54 1097.2ZM1071.14 1111.27C1071.06 1110.96 1071.13 1110.78 1071.35 1110.72C1071.58 1110.65 1071.74 1110.75 1071.83 1111.02L1072.43 1112.35C1072.6 1112.74 1072.78 1112.99 1072.96 1113.1C1073.17 1113.2 1073.48 1113.19 1073.92 1113.07L1092.44 1108.04C1092.73 1107.96 1092.92 1107.84 1093.01 1107.69C1093.1 1107.53 1093.09 1107.26 1092.99 1106.86C1092.78 1106.1 1092.25 1105.44 1091.39 1104.88C1090.53 1104.32 1089.34 1104.12 1087.81 1104.29L1086.75 1104.41C1086.47 1104.44 1086.3 1104.34 1086.23 1104.09C1086.15 1103.78 1086.29 1103.6 1086.65 1103.55L1092.31 1102.31C1092.8 1102.22 1093.09 1102.34 1093.18 1102.67C1093.21 1102.81 1093.21 1102.96 1093.16 1103.1C1093.13 1103.24 1093.12 1103.47 1093.11 1103.78C1093.11 1104.11 1093.2 1104.61 1093.38 1105.27L1095.25 1112.15C1095.43 1112.81 1095.6 1113.27 1095.76 1113.54C1095.93 1113.83 1096.06 1114.02 1096.15 1114.13C1096.28 1114.25 1096.35 1114.37 1096.39 1114.5C1096.48 1114.83 1096.29 1115.08 1095.83 1115.25L1090.31 1117.04C1089.97 1117.18 1089.76 1117.09 1089.68 1116.78C1089.61 1116.54 1089.71 1116.35 1089.96 1116.24L1090.94 1115.81C1092.35 1115.21 1093.28 1114.45 1093.74 1113.53C1094.19 1112.61 1094.32 1111.75 1094.1 1110.97C1094 1110.58 1093.87 1110.34 1093.71 1110.25C1093.55 1110.16 1093.33 1110.15 1093.04 1110.23L1074.51 1115.26C1074.08 1115.38 1073.8 1115.53 1073.67 1115.72C1073.57 1115.93 1073.55 1116.23 1073.59 1116.64L1073.75 1118.09C1073.8 1118.36 1073.72 1118.53 1073.49 1118.59C1073.26 1118.65 1073.11 1118.53 1073.03 1118.22L1071.14 1111.27ZM1074.3 1122.91C1074.22 1122.6 1074.29 1122.42 1074.51 1122.36C1074.7 1122.31 1074.86 1122.41 1074.99 1122.66L1075.31 1123.33C1075.51 1123.74 1075.7 1123.99 1075.88 1124.08C1076.06 1124.18 1076.37 1124.17 1076.8 1124.06L1094.96 1119.13C1095.39 1119.01 1095.66 1118.86 1095.76 1118.68C1095.87 1118.51 1095.91 1118.2 1095.88 1117.75L1095.81 1117.01C1095.8 1116.72 1095.88 1116.55 1096.07 1116.5C1096.3 1116.44 1096.45 1116.57 1096.53 1116.88L1098.05 1122.46C1098.14 1122.77 1098.06 1122.96 1097.84 1123.02C1097.65 1123.07 1097.49 1122.97 1097.36 1122.72L1097.04 1122.04C1096.84 1121.63 1096.65 1121.38 1096.47 1121.27C1096.29 1121.19 1095.99 1121.2 1095.55 1121.32L1077.39 1126.25C1076.96 1126.37 1076.69 1126.51 1076.58 1126.67C1076.47 1126.85 1076.44 1127.17 1076.47 1127.63L1076.54 1128.37C1076.56 1128.65 1076.47 1128.82 1076.28 1128.87C1076.06 1128.93 1075.9 1128.81 1075.82 1128.5L1074.3 1122.91ZM1078.09 1137.97C1077.82 1136.98 1077.86 1135.97 1078.2 1134.95C1078.56 1133.93 1079.17 1132.94 1080.02 1132C1080.87 1131.09 1081.94 1130.26 1083.22 1129.51C1084.53 1128.78 1085.98 1128.2 1087.59 1127.76C1089.19 1127.32 1090.73 1127.09 1092.21 1127.07C1093.69 1127.07 1095.03 1127.24 1096.23 1127.6C1097.46 1127.98 1098.48 1128.52 1099.29 1129.23C1100.1 1129.93 1100.64 1130.78 1100.91 1131.77C1101.18 1132.76 1101.14 1133.75 1100.79 1134.75C1100.45 1135.77 1099.84 1136.76 1098.97 1137.7C1098.12 1138.64 1097.05 1139.47 1095.77 1140.19C1094.49 1140.94 1093.05 1141.53 1091.44 1141.97C1089.84 1142.4 1088.28 1142.63 1086.78 1142.63C1085.31 1142.66 1083.97 1142.48 1082.76 1142.1C1081.55 1141.72 1080.53 1141.18 1079.7 1140.48C1078.89 1139.79 1078.36 1138.95 1078.09 1137.97ZM1078.92 1137.74C1079.32 1139.2 1080.5 1140.11 1082.48 1140.45C1084.45 1140.8 1087.22 1140.49 1090.78 1139.53C1094.34 1138.56 1096.88 1137.43 1098.38 1136.14C1099.91 1134.84 1100.47 1133.46 1100.08 1132C1099.69 1130.55 1098.5 1129.65 1096.52 1129.28C1094.57 1128.93 1091.81 1129.23 1088.25 1130.2C1084.69 1131.17 1082.14 1132.3 1080.62 1133.6C1079.1 1134.92 1078.53 1136.3 1078.92 1137.74ZM1083.88 1159.31C1083.79 1158.98 1083.97 1158.64 1084.4 1158.28L1100.29 1144.98C1100.41 1144.88 1100.45 1144.78 1100.4 1144.68C1100.36 1144.6 1100.26 1144.59 1100.09 1144.63L1084.22 1148.94C1083.64 1149.1 1083.22 1149.31 1082.97 1149.58C1082.73 1149.87 1082.65 1150.28 1082.7 1150.81L1082.75 1151.23C1082.8 1151.5 1082.72 1151.67 1082.49 1151.73C1082.26 1151.79 1082.11 1151.67 1082.02 1151.36L1080.82 1146.95C1080.74 1146.64 1080.81 1146.45 1081.04 1146.39C1081.27 1146.33 1081.43 1146.43 1081.52 1146.69L1081.69 1147.08C1081.92 1147.59 1082.2 1147.91 1082.55 1148.04C1082.91 1148.16 1083.38 1148.14 1083.96 1147.99L1101.5 1143.22C1101.93 1143.11 1102.2 1142.95 1102.31 1142.77C1102.42 1142.61 1102.45 1142.28 1102.4 1141.78L1102.33 1141.04C1102.32 1140.76 1102.41 1140.59 1102.59 1140.54C1102.82 1140.48 1102.98 1140.6 1103.06 1140.91L1103.96 1144.21C1104.1 1144.73 1103.97 1145.15 1103.57 1145.48L1089.52 1157.12C1089.42 1157.21 1089.38 1157.3 1089.43 1157.38C1089.48 1157.47 1089.56 1157.51 1089.68 1157.47L1103.67 1153.67C1104.33 1153.5 1104.76 1153.26 1104.94 1152.97C1105.15 1152.67 1105.23 1152.33 1105.2 1151.97L1105.14 1151.39C1105.13 1151.1 1105.22 1150.93 1105.4 1150.88C1105.63 1150.82 1105.78 1150.95 1105.87 1151.25L1107.07 1155.67C1107.15 1155.98 1107.08 1156.16 1106.85 1156.23C1106.63 1156.29 1106.47 1156.19 1106.37 1155.93L1106.2 1155.54C1105.98 1155.03 1105.7 1154.7 1105.38 1154.57C1105.07 1154.43 1104.59 1154.45 1103.93 1154.63L1085.07 1159.75C1084.69 1159.86 1084.42 1159.85 1084.23 1159.75C1084.06 1159.66 1083.94 1159.52 1083.88 1159.31Z" fill="black"/>
<g opacity="0.56">
<rect x="1039.4" y="1400.47" width="858" height="254.005" rx="127.002" transform="rotate(-15 1039.4 1400.47)" fill="#6E56FF" stroke="black" stroke-width="32"/>
<rect x="1068.8" y="1417.44" width="810" height="206.005" rx="103.002" transform="rotate(-15 1068.8 1417.44)" fill="#6E56FF" stroke="black" stroke-width="16"/>
<path d="M1258.18 1518.84C1256.94 1519.18 1256.2 1518.89 1255.96 1517.98C1255.76 1517.24 1256.16 1516.6 1257.17 1516.07L1259.88 1514.81C1261.52 1514.02 1262.51 1513.26 1262.85 1512.56C1263.27 1511.82 1263.25 1510.59 1262.79 1508.86L1243.31 1436.16C1242.85 1434.43 1242.25 1433.35 1241.52 1432.93C1240.87 1432.49 1239.63 1432.33 1237.81 1432.47L1234.84 1432.73C1233.7 1432.77 1233.03 1432.42 1232.83 1431.68C1232.59 1430.77 1233.09 1430.16 1234.32 1429.82L1274.14 1419.16C1276.03 1418.65 1277.32 1419.32 1277.99 1421.17L1284.48 1441.43C1285.02 1442.79 1284.67 1443.63 1283.43 1443.96C1282.44 1444.23 1281.72 1443.85 1281.27 1442.82L1279.56 1438.91C1277.75 1434.8 1275.7 1431.77 1273.41 1429.82C1271.13 1427.87 1268.82 1426.68 1266.49 1426.24C1264.14 1425.72 1262.02 1425.72 1260.13 1426.22C1256.5 1427.19 1254.18 1428.43 1253.17 1429.94C1252.16 1431.45 1251.98 1433.4 1252.62 1435.79L1260.44 1464.97C1260.75 1466.12 1261.48 1466.54 1262.63 1466.23L1266.96 1465.07C1270.59 1464.1 1272.29 1461.57 1272.08 1457.47L1271.78 1450.93C1271.74 1449.79 1272.22 1449.09 1273.21 1448.82C1274.2 1448.56 1274.88 1449.13 1275.25 1450.53L1282.71 1478.35C1283.08 1479.75 1282.78 1480.58 1281.79 1480.85C1280.8 1481.11 1280.04 1480.74 1279.5 1479.74L1276.52 1474.04C1275.17 1471.31 1273.84 1469.64 1272.52 1469.02C1271.29 1468.38 1269.73 1468.31 1267.83 1468.82L1263.63 1469.94C1262.47 1470.25 1262.05 1470.98 1262.36 1472.14L1271.4 1505.89C1271.87 1507.62 1272.44 1508.79 1273.14 1509.4C1273.89 1509.91 1275.17 1510.05 1276.96 1509.83L1283.01 1509.14C1283.96 1509.06 1284.53 1509.4 1284.73 1510.14C1285 1511.13 1284.51 1511.79 1283.27 1512.12L1258.18 1518.84ZM1360.38 1492.65C1353.21 1494.57 1347.37 1491.1 1342.88 1482.23L1336.36 1469.27C1334.26 1465.06 1332.32 1461.96 1330.55 1459.96C1328.86 1457.94 1326.91 1456.78 1324.72 1456.49C1322.6 1456.17 1319.85 1456.47 1316.47 1457.37C1315.32 1457.68 1314.5 1458.26 1314.02 1459.09C1313.51 1459.85 1313.38 1460.68 1313.62 1461.58L1321.91 1492.49C1322.37 1494.22 1323.02 1495.33 1323.86 1495.81C1324.67 1496.21 1326.29 1496.31 1328.7 1496.1L1333.48 1495.62C1334.43 1495.54 1335 1495.87 1335.2 1496.61C1335.47 1497.6 1334.98 1498.26 1333.74 1498.6L1308.65 1505.32C1307.41 1505.65 1306.67 1505.36 1306.43 1504.46C1306.23 1503.72 1306.63 1503.08 1307.64 1502.54L1310.35 1501.29C1311.99 1500.49 1312.98 1499.74 1313.32 1499.03C1313.74 1498.3 1313.72 1497.07 1313.26 1495.34L1293.78 1422.64C1293.32 1420.91 1292.72 1419.83 1291.99 1419.41C1291.34 1418.96 1290.1 1418.81 1288.28 1418.94L1285.31 1419.21C1284.17 1419.25 1283.5 1418.9 1283.3 1418.16C1283.06 1417.25 1283.56 1416.63 1284.79 1416.3L1309.89 1409.58C1314.75 1408.27 1319.34 1408.06 1323.64 1408.94C1327.94 1409.82 1331.61 1411.66 1334.66 1414.47C1337.68 1417.19 1339.78 1420.74 1340.95 1425.11C1342.35 1430.3 1342.04 1435.42 1340.03 1440.46C1338 1445.42 1334.83 1449.41 1330.51 1452.42C1329.98 1452.74 1329.73 1453.11 1329.76 1453.55C1329.85 1453.88 1330.21 1454.09 1330.86 1454.18C1333.82 1454.71 1336.35 1455.89 1338.43 1457.72C1340.59 1459.52 1342.58 1462.17 1344.4 1465.66L1350.5 1477.54C1352.55 1481.59 1354.44 1484.35 1356.16 1485.83C1357.89 1487.31 1359.7 1487.8 1361.59 1487.29C1362.25 1487.11 1362.81 1486.88 1363.26 1486.58C1363.77 1486.18 1364.36 1485.58 1365.03 1484.78C1365.58 1484.19 1366.17 1483.94 1366.82 1484.04C1367.44 1484.05 1367.84 1484.38 1368.01 1485.04C1368.39 1486.44 1367.81 1487.92 1366.29 1489.48C1364.74 1490.95 1362.77 1492.01 1360.38 1492.65ZM1320.22 1453.06C1325.82 1451.56 1329.57 1448.56 1331.46 1444.08C1333.33 1439.52 1333.43 1434.1 1331.75 1427.84C1330.11 1421.74 1327.15 1417.45 1322.87 1414.98C1318.64 1412.4 1313.6 1411.89 1307.75 1413.46C1303.38 1414.63 1301.64 1416.87 1302.53 1420.16L1310.11 1448.48C1311.33 1453.01 1314.69 1454.54 1320.22 1453.06ZM1398.49 1482.44C1394.54 1483.5 1390.52 1483.34 1386.44 1481.96C1382.34 1480.5 1378.41 1478.06 1374.67 1474.64C1371.01 1471.21 1367.7 1466.93 1364.74 1461.8C1361.83 1456.57 1359.52 1450.74 1357.8 1444.31C1356.08 1437.88 1355.18 1431.72 1355.1 1425.82C1355.1 1419.9 1355.83 1414.54 1357.28 1409.73C1358.79 1404.82 1360.97 1400.75 1363.81 1397.51C1366.65 1394.28 1370.05 1392.13 1374.01 1391.07C1377.97 1390.01 1381.94 1390.18 1385.94 1391.58C1390.02 1392.96 1393.94 1395.4 1397.71 1398.9C1401.45 1402.31 1404.76 1406.59 1407.64 1411.74C1410.61 1416.87 1412.95 1422.64 1414.67 1429.07C1416.4 1435.5 1417.27 1441.72 1417.28 1447.72C1417.36 1453.62 1416.63 1458.98 1415.1 1463.81C1413.57 1468.64 1411.39 1472.71 1408.57 1476.03C1405.81 1479.24 1402.45 1481.38 1398.49 1482.44ZM1397.6 1479.1C1403.45 1477.53 1407.09 1472.8 1408.51 1464.91C1409.93 1457.02 1408.73 1445.95 1404.9 1431.69C1401.08 1417.43 1396.6 1407.28 1391.45 1401.24C1386.27 1395.12 1380.76 1392.84 1374.91 1394.41C1369.14 1395.95 1365.5 1400.68 1364 1408.59C1362.56 1416.4 1363.75 1427.44 1367.57 1441.69C1371.39 1455.95 1375.88 1466.15 1381.06 1472.27C1386.32 1478.37 1391.83 1480.65 1397.6 1479.1ZM1483.96 1459.54C1482.64 1459.89 1481.26 1459.2 1479.82 1457.47L1426.84 1393.74C1426.43 1393.23 1426.04 1393.08 1425.65 1393.27C1425.34 1393.44 1425.28 1393.85 1425.45 1394.51L1442.48 1458.06C1443.1 1460.37 1443.94 1462.04 1445.02 1463.08C1446.15 1464.01 1447.79 1464.37 1449.94 1464.15L1451.61 1463.96C1452.71 1463.76 1453.38 1464.11 1453.62 1465.02C1453.86 1465.92 1453.37 1466.54 1452.13 1466.87L1434.45 1471.61C1433.21 1471.94 1432.47 1471.66 1432.23 1470.75C1431.99 1469.84 1432.39 1469.2 1433.44 1468.83L1434.98 1468.16C1437.04 1467.25 1438.32 1466.11 1438.84 1464.74C1439.33 1463.28 1439.27 1461.4 1438.65 1459.09L1419.83 1388.86C1419.37 1387.13 1418.77 1386.06 1418.04 1385.63C1417.39 1385.19 1416.07 1385.06 1414.09 1385.23L1411.11 1385.5C1409.97 1385.54 1409.3 1385.19 1409.11 1384.45C1408.86 1383.54 1409.36 1382.92 1410.6 1382.59L1423.83 1379.05C1425.89 1378.5 1427.57 1379.02 1428.88 1380.61L1475.25 1436.96C1475.63 1437.39 1475.98 1437.51 1476.29 1437.34C1476.68 1437.15 1476.8 1436.81 1476.67 1436.31L1461.66 1380.3C1460.96 1377.67 1460.02 1375.98 1458.85 1375.23C1457.65 1374.4 1456.32 1374.05 1454.85 1374.18L1452.53 1374.4C1451.39 1374.44 1450.72 1374.09 1450.53 1373.35C1450.28 1372.44 1450.78 1371.83 1452.02 1371.49L1469.7 1366.76C1470.93 1366.43 1471.67 1366.71 1471.91 1367.62C1472.16 1368.53 1471.75 1369.16 1470.7 1369.53L1469.16 1370.21C1467.11 1371.12 1465.81 1372.21 1465.28 1373.51C1464.72 1374.72 1464.79 1376.64 1465.5 1379.28L1485.74 1454.82C1486.14 1456.3 1486.12 1457.41 1485.7 1458.14C1485.36 1458.85 1484.78 1459.32 1483.96 1459.54ZM1511.98 1450.84C1510.74 1451.17 1510 1450.88 1509.76 1449.98C1509.51 1449.07 1509.92 1448.43 1510.97 1448.06L1516.3 1445.71C1517.88 1445.02 1518.88 1444.31 1519.3 1443.57C1519.71 1442.76 1519.67 1441.49 1519.21 1439.76L1499.33 1365.57C1499.02 1364.42 1498.55 1363.66 1497.93 1363.3C1497.3 1362.94 1496.2 1362.97 1494.64 1363.39C1491.59 1364.2 1488.93 1366.33 1486.67 1369.76C1484.41 1373.19 1483.61 1377.96 1484.27 1384.05L1484.75 1388.3C1484.87 1389.41 1484.44 1390.1 1483.45 1390.37C1482.21 1390.7 1481.49 1390.14 1481.28 1388.7L1476.39 1366.02C1476.05 1364.08 1476.54 1362.93 1477.86 1362.58C1478.44 1362.43 1479.02 1362.45 1479.6 1362.65C1480.16 1362.76 1481.06 1362.83 1482.3 1362.85C1483.63 1362.85 1485.61 1362.49 1488.25 1361.79L1515.82 1354.4C1518.46 1353.69 1520.31 1353.02 1521.37 1352.38C1522.52 1351.72 1523.31 1351.2 1523.74 1350.82C1524.23 1350.33 1524.72 1350.03 1525.21 1349.89C1526.53 1349.54 1527.53 1350.29 1528.2 1352.14L1535.31 1374.22C1535.85 1375.58 1535.5 1376.42 1534.26 1376.75C1533.27 1377.02 1532.55 1376.64 1532.1 1375.61L1530.39 1371.7C1528 1366.06 1524.97 1362.33 1521.29 1360.48C1517.62 1358.64 1514.21 1358.14 1511.08 1358.98C1509.52 1359.4 1508.55 1359.92 1508.19 1360.55C1507.83 1361.18 1507.8 1362.07 1508.11 1363.22L1527.99 1437.4C1528.45 1439.14 1529.06 1440.25 1529.81 1440.76C1530.63 1441.16 1531.85 1441.27 1533.48 1441.1L1539.28 1440.47C1540.37 1440.27 1541.04 1440.62 1541.28 1441.53C1541.53 1442.43 1541.03 1443.05 1539.79 1443.38L1511.98 1450.84ZM1558.58 1438.35C1557.34 1438.68 1556.6 1438.39 1556.36 1437.49C1556.16 1436.75 1556.56 1436.11 1557.57 1435.57L1560.28 1434.32C1561.92 1433.52 1562.92 1432.77 1563.26 1432.06C1563.68 1431.33 1563.66 1430.1 1563.19 1428.37L1543.71 1355.67C1543.25 1353.94 1542.65 1352.86 1541.92 1352.44C1541.27 1352 1540.04 1351.84 1538.22 1351.97L1535.24 1352.24C1534.1 1352.28 1533.44 1351.93 1533.24 1351.19C1532.99 1350.28 1533.49 1349.66 1534.73 1349.33L1576.27 1338.2C1578.16 1337.69 1579.45 1338.36 1580.12 1340.22L1586.61 1360.47C1587.15 1361.83 1586.8 1362.68 1585.57 1363.01C1584.58 1363.27 1583.86 1362.89 1583.4 1361.86L1581.44 1357.49C1579.03 1352.13 1576.08 1348.54 1572.59 1346.74C1569.08 1344.85 1564.86 1344.57 1559.91 1345.9C1556.61 1346.78 1554.44 1347.89 1553.39 1349.23C1552.39 1350.47 1552.22 1352.29 1552.86 1354.68L1560.84 1384.47C1561.15 1385.63 1561.88 1386.05 1563.03 1385.74L1569.22 1384.08C1572.84 1383.11 1574.55 1380.58 1574.34 1376.49L1573.92 1369.97C1573.91 1368.65 1574.47 1367.92 1575.59 1367.8C1576.54 1367.72 1577.18 1368.3 1577.51 1369.54L1584.96 1397.36C1585.3 1398.59 1585.03 1399.42 1584.17 1399.82C1583.14 1400.28 1582.3 1399.93 1581.63 1398.78L1578.78 1393.05C1577.43 1390.32 1576.09 1388.65 1574.78 1388.03C1573.55 1387.39 1571.98 1387.32 1570.09 1387.83L1564.03 1389.45C1562.87 1389.76 1562.45 1390.49 1562.76 1391.65L1571.08 1422.68C1571.87 1425.65 1573.19 1427.59 1575.02 1428.51C1576.94 1429.41 1579.92 1429.32 1583.96 1428.24C1588.08 1427.13 1591.31 1425.16 1593.64 1422.33C1596.04 1419.39 1597.04 1414.88 1596.65 1408.8L1596.17 1401.11C1596.13 1399.97 1596.61 1399.27 1597.6 1399.01C1598.75 1398.7 1599.43 1399.27 1599.64 1400.71L1604.31 1423.05C1604.65 1424.99 1603.87 1426.22 1601.98 1426.72L1558.58 1438.35ZM1663.74 1411.37C1662.42 1411.72 1661.04 1411.03 1659.6 1409.29L1606.62 1345.57C1606.22 1345.06 1605.82 1344.9 1605.43 1345.1C1605.12 1345.27 1605.06 1345.68 1605.23 1346.34L1622.26 1409.89C1622.88 1412.2 1623.73 1413.87 1624.8 1414.91C1625.93 1415.84 1627.58 1416.2 1629.72 1415.98L1631.4 1415.79C1632.49 1415.59 1633.16 1415.94 1633.4 1416.84C1633.65 1417.75 1633.15 1418.37 1631.91 1418.7L1614.23 1423.44C1613 1423.77 1612.26 1423.48 1612.01 1422.58C1611.77 1421.67 1612.17 1421.03 1613.22 1420.66L1614.76 1419.98C1616.82 1419.08 1618.1 1417.94 1618.62 1416.57C1619.11 1415.11 1619.05 1413.23 1618.43 1410.92L1599.61 1340.69C1599.15 1338.96 1598.55 1337.88 1597.82 1337.46C1597.17 1337.02 1595.85 1336.88 1593.87 1337.06L1590.89 1337.33C1589.76 1337.37 1589.09 1337.02 1588.89 1336.28C1588.65 1335.37 1589.14 1334.75 1590.38 1334.42L1603.61 1330.87C1605.67 1330.32 1607.35 1330.84 1608.66 1332.44L1655.04 1388.79C1655.42 1389.21 1655.76 1389.34 1656.07 1389.17C1656.46 1388.98 1656.59 1388.63 1656.45 1388.14L1641.45 1332.13C1640.74 1329.49 1639.8 1327.8 1638.63 1327.06C1637.44 1326.23 1636.11 1325.88 1634.64 1326.01L1632.31 1326.23C1631.18 1326.27 1630.51 1325.92 1630.31 1325.18C1630.07 1324.27 1630.56 1323.65 1631.8 1323.32L1649.48 1318.58C1650.71 1318.25 1651.45 1318.54 1651.7 1319.45C1651.94 1320.35 1651.54 1320.99 1650.49 1321.36L1648.95 1322.04C1646.89 1322.94 1645.6 1324.04 1645.06 1325.33C1644.5 1326.54 1644.57 1328.47 1645.28 1331.11L1665.52 1406.65C1665.92 1408.13 1665.91 1409.24 1665.48 1409.97C1665.14 1410.68 1664.56 1411.15 1663.74 1411.37ZM1681.37 1405.45C1680.14 1405.78 1679.4 1405.49 1679.15 1404.59C1678.95 1403.84 1679.36 1403.21 1680.36 1402.67L1683.07 1401.41C1685.74 1400.17 1686.72 1398.19 1685.99 1395.47L1666.51 1322.77C1666.04 1321.04 1665.44 1319.96 1664.71 1319.54C1664.06 1319.09 1662.83 1318.94 1661.01 1319.07L1658.03 1319.34C1656.9 1319.38 1656.23 1319.03 1656.03 1318.29C1655.79 1317.38 1656.28 1316.76 1657.52 1316.43L1682.49 1309.74C1688.92 1308.01 1695 1308.42 1700.71 1310.95C1706.4 1313.4 1711.43 1317.66 1715.8 1323.74C1720.16 1329.81 1723.54 1337.3 1725.92 1346.2C1728.33 1355.19 1729.06 1363.34 1728.11 1370.66C1727.24 1377.96 1724.85 1384.08 1720.96 1389.01C1717.07 1393.94 1711.79 1397.3 1705.11 1399.09L1681.37 1405.45ZM1704.74 1395.74C1712.08 1393.78 1716.71 1388.78 1718.62 1380.76C1720.62 1372.72 1719.84 1362.06 1716.28 1348.79C1712.75 1335.6 1708.15 1325.88 1702.5 1319.62C1696.91 1313.25 1690.53 1311.03 1683.36 1312.95C1677.09 1314.63 1674.77 1318.48 1676.38 1324.5L1693.67 1389.03C1694.55 1392.33 1695.84 1394.5 1697.54 1395.55C1699.29 1396.5 1701.69 1396.56 1704.74 1395.74Z" fill="black"/>
</g>
<rect x="1037.4" y="1359.47" width="858" height="254.005" rx="127.002" transform="rotate(-15 1037.4 1359.47)" fill="#6E56FF" stroke="white" stroke-width="32"/>
<rect x="1066.8" y="1376.44" width="810" height="206.005" rx="103.002" transform="rotate(-15 1066.8 1376.44)" fill="#6E56FF" stroke="black" stroke-width="16"/>
<path d="M1256.18 1477.84C1254.94 1478.18 1254.2 1477.89 1253.96 1476.98C1253.76 1476.24 1254.16 1475.6 1255.17 1475.07L1257.88 1473.81C1259.52 1473.02 1260.51 1472.26 1260.85 1471.56C1261.27 1470.82 1261.25 1469.59 1260.79 1467.86L1241.31 1395.16C1240.85 1393.43 1240.25 1392.35 1239.52 1391.93C1238.87 1391.49 1237.63 1391.33 1235.81 1391.47L1232.84 1391.73C1231.7 1391.77 1231.03 1391.42 1230.83 1390.68C1230.59 1389.77 1231.09 1389.16 1232.32 1388.82L1272.14 1378.16C1274.03 1377.65 1275.32 1378.32 1275.99 1380.17L1282.48 1400.43C1283.02 1401.79 1282.67 1402.63 1281.43 1402.96C1280.44 1403.23 1279.72 1402.85 1279.27 1401.82L1277.56 1397.91C1275.75 1393.8 1273.7 1390.77 1271.41 1388.82C1269.13 1386.87 1266.82 1385.68 1264.49 1385.24C1262.14 1384.72 1260.02 1384.72 1258.13 1385.22C1254.5 1386.19 1252.18 1387.43 1251.17 1388.94C1250.16 1390.45 1249.98 1392.4 1250.62 1394.79L1258.44 1423.97C1258.75 1425.12 1259.48 1425.54 1260.63 1425.23L1264.96 1424.07C1268.59 1423.1 1270.29 1420.57 1270.08 1416.47L1269.78 1409.93C1269.74 1408.79 1270.22 1408.09 1271.21 1407.82C1272.2 1407.56 1272.88 1408.13 1273.25 1409.53L1280.71 1437.35C1281.08 1438.75 1280.78 1439.58 1279.79 1439.85C1278.8 1440.11 1278.04 1439.74 1277.5 1438.74L1274.52 1433.04C1273.17 1430.31 1271.84 1428.64 1270.52 1428.02C1269.29 1427.38 1267.73 1427.31 1265.83 1427.82L1261.63 1428.94C1260.47 1429.25 1260.05 1429.98 1260.36 1431.14L1269.4 1464.89C1269.87 1466.62 1270.44 1467.79 1271.14 1468.4C1271.89 1468.91 1273.17 1469.05 1274.96 1468.83L1281.01 1468.14C1281.96 1468.06 1282.53 1468.4 1282.73 1469.14C1283 1470.13 1282.51 1470.79 1281.27 1471.12L1256.18 1477.84ZM1358.38 1451.65C1351.21 1453.57 1345.37 1450.1 1340.88 1441.23L1334.36 1428.27C1332.26 1424.06 1330.32 1420.96 1328.55 1418.96C1326.86 1416.94 1324.91 1415.78 1322.72 1415.49C1320.6 1415.17 1317.85 1415.47 1314.47 1416.37C1313.32 1416.68 1312.5 1417.26 1312.02 1418.09C1311.51 1418.85 1311.38 1419.68 1311.62 1420.58L1319.91 1451.49C1320.37 1453.22 1321.02 1454.33 1321.86 1454.81C1322.67 1455.21 1324.29 1455.31 1326.7 1455.1L1331.48 1454.62C1332.43 1454.54 1333 1454.87 1333.2 1455.61C1333.47 1456.6 1332.98 1457.26 1331.74 1457.6L1306.65 1464.32C1305.41 1464.65 1304.67 1464.36 1304.43 1463.46C1304.23 1462.72 1304.63 1462.08 1305.64 1461.54L1308.35 1460.29C1309.99 1459.49 1310.98 1458.74 1311.32 1458.03C1311.74 1457.3 1311.72 1456.07 1311.26 1454.34L1291.78 1381.64C1291.32 1379.91 1290.72 1378.83 1289.99 1378.41C1289.34 1377.96 1288.1 1377.81 1286.28 1377.94L1283.31 1378.21C1282.17 1378.25 1281.5 1377.9 1281.3 1377.16C1281.06 1376.25 1281.56 1375.63 1282.79 1375.3L1307.89 1368.58C1312.75 1367.27 1317.34 1367.06 1321.64 1367.94C1325.94 1368.82 1329.61 1370.66 1332.66 1373.47C1335.68 1376.19 1337.78 1379.74 1338.95 1384.11C1340.35 1389.3 1340.04 1394.42 1338.03 1399.46C1336 1404.42 1332.83 1408.41 1328.51 1411.42C1327.98 1411.74 1327.73 1412.11 1327.76 1412.55C1327.85 1412.88 1328.21 1413.09 1328.86 1413.18C1331.82 1413.71 1334.35 1414.89 1336.43 1416.72C1338.59 1418.52 1340.58 1421.17 1342.4 1424.66L1348.5 1436.54C1350.55 1440.59 1352.44 1443.35 1354.16 1444.83C1355.89 1446.31 1357.7 1446.8 1359.59 1446.29C1360.25 1446.11 1360.81 1445.88 1361.26 1445.58C1361.77 1445.18 1362.36 1444.58 1363.03 1443.78C1363.58 1443.19 1364.17 1442.94 1364.82 1443.04C1365.44 1443.05 1365.84 1443.38 1366.01 1444.04C1366.39 1445.44 1365.81 1446.92 1364.29 1448.48C1362.74 1449.95 1360.77 1451.01 1358.38 1451.65ZM1318.22 1412.06C1323.82 1410.56 1327.57 1407.56 1329.46 1403.08C1331.33 1398.52 1331.43 1393.1 1329.75 1386.84C1328.11 1380.74 1325.15 1376.45 1320.87 1373.98C1316.64 1371.4 1311.6 1370.89 1305.75 1372.46C1301.38 1373.63 1299.64 1375.87 1300.53 1379.16L1308.11 1407.48C1309.33 1412.01 1312.69 1413.54 1318.22 1412.06ZM1396.49 1441.44C1392.54 1442.5 1388.52 1442.34 1384.44 1440.96C1380.34 1439.5 1376.41 1437.06 1372.67 1433.64C1369.01 1430.21 1365.7 1425.93 1362.74 1420.8C1359.83 1415.57 1357.52 1409.74 1355.8 1403.31C1354.08 1396.88 1353.18 1390.72 1353.1 1384.82C1353.1 1378.9 1353.83 1373.54 1355.28 1368.73C1356.79 1363.82 1358.97 1359.75 1361.81 1356.51C1364.65 1353.28 1368.05 1351.13 1372.01 1350.07C1375.97 1349.01 1379.94 1349.18 1383.94 1350.58C1388.02 1351.96 1391.94 1354.4 1395.71 1357.9C1399.45 1361.31 1402.76 1365.59 1405.64 1370.74C1408.61 1375.87 1410.95 1381.64 1412.67 1388.07C1414.4 1394.5 1415.27 1400.72 1415.28 1406.72C1415.36 1412.62 1414.63 1417.98 1413.1 1422.81C1411.57 1427.64 1409.39 1431.71 1406.57 1435.03C1403.81 1438.24 1400.45 1440.38 1396.49 1441.44ZM1395.6 1438.1C1401.45 1436.53 1405.09 1431.8 1406.51 1423.91C1407.93 1416.02 1406.73 1404.95 1402.9 1390.69C1399.08 1376.43 1394.6 1366.28 1389.45 1360.24C1384.27 1354.12 1378.76 1351.84 1372.91 1353.41C1367.14 1354.95 1363.5 1359.68 1362 1367.59C1360.56 1375.4 1361.75 1386.44 1365.57 1400.69C1369.39 1414.95 1373.88 1425.15 1379.06 1431.27C1384.32 1437.37 1389.83 1439.65 1395.6 1438.1ZM1481.96 1418.54C1480.64 1418.89 1479.26 1418.2 1477.82 1416.47L1424.84 1352.74C1424.43 1352.23 1424.04 1352.08 1423.65 1352.27C1423.34 1352.44 1423.28 1352.85 1423.45 1353.51L1440.48 1417.06C1441.1 1419.37 1441.94 1421.04 1443.02 1422.08C1444.15 1423.01 1445.79 1423.37 1447.94 1423.15L1449.61 1422.96C1450.71 1422.76 1451.38 1423.11 1451.62 1424.02C1451.86 1424.92 1451.37 1425.54 1450.13 1425.87L1432.45 1430.61C1431.21 1430.94 1430.47 1430.66 1430.23 1429.75C1429.99 1428.84 1430.39 1428.2 1431.44 1427.83L1432.98 1427.16C1435.04 1426.25 1436.32 1425.11 1436.84 1423.74C1437.33 1422.28 1437.27 1420.4 1436.65 1418.09L1417.83 1347.86C1417.37 1346.13 1416.77 1345.06 1416.04 1344.63C1415.39 1344.19 1414.07 1344.06 1412.09 1344.23L1409.11 1344.5C1407.97 1344.54 1407.3 1344.19 1407.11 1343.45C1406.86 1342.54 1407.36 1341.92 1408.6 1341.59L1421.83 1338.05C1423.89 1337.5 1425.57 1338.02 1426.88 1339.61L1473.25 1395.96C1473.63 1396.39 1473.98 1396.51 1474.29 1396.34C1474.68 1396.15 1474.8 1395.81 1474.67 1395.31L1459.66 1339.3C1458.96 1336.67 1458.02 1334.98 1456.85 1334.23C1455.65 1333.4 1454.32 1333.05 1452.85 1333.18L1450.53 1333.4C1449.39 1333.44 1448.72 1333.09 1448.53 1332.35C1448.28 1331.44 1448.78 1330.83 1450.02 1330.49L1467.7 1325.76C1468.93 1325.43 1469.67 1325.71 1469.91 1326.62C1470.16 1327.53 1469.75 1328.16 1468.7 1328.53L1467.16 1329.21C1465.11 1330.12 1463.81 1331.21 1463.28 1332.51C1462.72 1333.72 1462.79 1335.64 1463.5 1338.28L1483.74 1413.82C1484.14 1415.3 1484.12 1416.41 1483.7 1417.14C1483.36 1417.85 1482.78 1418.32 1481.96 1418.54ZM1509.98 1409.84C1508.74 1410.17 1508 1409.88 1507.76 1408.98C1507.51 1408.07 1507.92 1407.43 1508.97 1407.06L1514.3 1404.71C1515.88 1404.02 1516.88 1403.31 1517.3 1402.57C1517.71 1401.76 1517.67 1400.49 1517.21 1398.76L1497.33 1324.57C1497.02 1323.42 1496.55 1322.66 1495.93 1322.3C1495.3 1321.94 1494.2 1321.97 1492.64 1322.39C1489.59 1323.2 1486.93 1325.33 1484.67 1328.76C1482.41 1332.19 1481.61 1336.96 1482.27 1343.05L1482.75 1347.3C1482.87 1348.41 1482.44 1349.1 1481.45 1349.37C1480.21 1349.7 1479.49 1349.14 1479.28 1347.7L1474.39 1325.02C1474.05 1323.08 1474.54 1321.93 1475.86 1321.58C1476.44 1321.43 1477.02 1321.45 1477.6 1321.65C1478.16 1321.76 1479.06 1321.83 1480.3 1321.85C1481.63 1321.85 1483.61 1321.49 1486.25 1320.79L1513.82 1313.4C1516.46 1312.69 1518.31 1312.02 1519.37 1311.38C1520.52 1310.72 1521.31 1310.2 1521.74 1309.82C1522.23 1309.33 1522.72 1309.03 1523.21 1308.89C1524.53 1308.54 1525.53 1309.29 1526.2 1311.14L1533.31 1333.22C1533.85 1334.58 1533.5 1335.42 1532.26 1335.75C1531.27 1336.02 1530.55 1335.64 1530.1 1334.61L1528.39 1330.7C1526 1325.06 1522.97 1321.33 1519.29 1319.48C1515.62 1317.64 1512.21 1317.14 1509.08 1317.98C1507.52 1318.4 1506.55 1318.92 1506.19 1319.55C1505.83 1320.18 1505.8 1321.07 1506.11 1322.22L1525.99 1396.4C1526.45 1398.14 1527.06 1399.25 1527.81 1399.76C1528.63 1400.16 1529.85 1400.27 1531.48 1400.1L1537.28 1399.47C1538.37 1399.27 1539.04 1399.62 1539.28 1400.53C1539.53 1401.43 1539.03 1402.05 1537.79 1402.38L1509.98 1409.84ZM1556.58 1397.35C1555.34 1397.68 1554.6 1397.39 1554.36 1396.49C1554.16 1395.75 1554.56 1395.11 1555.57 1394.57L1558.28 1393.32C1559.92 1392.52 1560.92 1391.77 1561.26 1391.06C1561.68 1390.33 1561.66 1389.1 1561.19 1387.37L1541.71 1314.67C1541.25 1312.94 1540.65 1311.86 1539.92 1311.44C1539.27 1311 1538.04 1310.84 1536.22 1310.97L1533.24 1311.24C1532.1 1311.28 1531.44 1310.93 1531.24 1310.19C1530.99 1309.28 1531.49 1308.66 1532.73 1308.33L1574.27 1297.2C1576.16 1296.69 1577.45 1297.36 1578.12 1299.22L1584.61 1319.47C1585.15 1320.83 1584.8 1321.68 1583.57 1322.01C1582.58 1322.27 1581.86 1321.89 1581.4 1320.86L1579.44 1316.49C1577.03 1311.13 1574.08 1307.54 1570.59 1305.74C1567.08 1303.85 1562.86 1303.57 1557.91 1304.9C1554.61 1305.78 1552.44 1306.89 1551.39 1308.23C1550.39 1309.47 1550.22 1311.29 1550.86 1313.68L1558.84 1343.47C1559.15 1344.63 1559.88 1345.05 1561.03 1344.74L1567.22 1343.08C1570.84 1342.11 1572.55 1339.58 1572.34 1335.49L1571.92 1328.97C1571.91 1327.65 1572.47 1326.92 1573.59 1326.8C1574.54 1326.72 1575.18 1327.3 1575.51 1328.54L1582.96 1356.36C1583.3 1357.59 1583.03 1358.42 1582.17 1358.82C1581.14 1359.28 1580.3 1358.93 1579.63 1357.78L1576.78 1352.05C1575.43 1349.32 1574.09 1347.65 1572.78 1347.03C1571.55 1346.39 1569.98 1346.32 1568.09 1346.83L1562.03 1348.45C1560.87 1348.76 1560.45 1349.49 1560.76 1350.65L1569.08 1381.68C1569.87 1384.65 1571.19 1386.59 1573.02 1387.51C1574.94 1388.41 1577.92 1388.32 1581.96 1387.24C1586.08 1386.13 1589.31 1384.16 1591.64 1381.33C1594.04 1378.39 1595.04 1373.88 1594.65 1367.8L1594.17 1360.11C1594.13 1358.97 1594.61 1358.27 1595.6 1358.01C1596.75 1357.7 1597.43 1358.27 1597.64 1359.71L1602.31 1382.05C1602.65 1383.99 1601.87 1385.22 1599.98 1385.72L1556.58 1397.35ZM1661.74 1370.37C1660.42 1370.72 1659.04 1370.03 1657.6 1368.29L1604.62 1304.57C1604.22 1304.06 1603.82 1303.9 1603.43 1304.1C1603.12 1304.27 1603.06 1304.68 1603.23 1305.34L1620.26 1368.89C1620.88 1371.2 1621.73 1372.87 1622.8 1373.91C1623.93 1374.84 1625.58 1375.2 1627.72 1374.98L1629.4 1374.79C1630.49 1374.59 1631.16 1374.94 1631.4 1375.84C1631.65 1376.75 1631.15 1377.37 1629.91 1377.7L1612.23 1382.44C1611 1382.77 1610.26 1382.48 1610.01 1381.58C1609.77 1380.67 1610.17 1380.03 1611.22 1379.66L1612.76 1378.98C1614.82 1378.08 1616.1 1376.94 1616.62 1375.57C1617.11 1374.11 1617.05 1372.23 1616.43 1369.92L1597.61 1299.69C1597.15 1297.96 1596.55 1296.88 1595.82 1296.46C1595.17 1296.02 1593.85 1295.88 1591.87 1296.06L1588.89 1296.33C1587.76 1296.37 1587.09 1296.02 1586.89 1295.28C1586.65 1294.37 1587.14 1293.75 1588.38 1293.42L1601.61 1289.87C1603.67 1289.32 1605.35 1289.84 1606.66 1291.44L1653.04 1347.79C1653.42 1348.21 1653.76 1348.34 1654.07 1348.17C1654.46 1347.98 1654.59 1347.63 1654.45 1347.14L1639.45 1291.13C1638.74 1288.49 1637.8 1286.8 1636.63 1286.06C1635.44 1285.23 1634.11 1284.88 1632.64 1285.01L1630.31 1285.23C1629.18 1285.27 1628.51 1284.92 1628.31 1284.18C1628.07 1283.27 1628.56 1282.65 1629.8 1282.32L1647.48 1277.58C1648.71 1277.25 1649.45 1277.54 1649.7 1278.45C1649.94 1279.35 1649.54 1279.99 1648.49 1280.36L1646.95 1281.04C1644.89 1281.94 1643.6 1283.04 1643.06 1284.33C1642.5 1285.54 1642.57 1287.47 1643.28 1290.11L1663.52 1365.65C1663.92 1367.13 1663.91 1368.24 1663.48 1368.97C1663.14 1369.68 1662.56 1370.15 1661.74 1370.37ZM1679.37 1364.45C1678.14 1364.78 1677.4 1364.49 1677.15 1363.59C1676.95 1362.84 1677.36 1362.21 1678.36 1361.67L1681.07 1360.41C1683.74 1359.17 1684.72 1357.19 1683.99 1354.47L1664.51 1281.77C1664.04 1280.04 1663.44 1278.96 1662.71 1278.54C1662.06 1278.09 1660.83 1277.94 1659.01 1278.07L1656.03 1278.34C1654.9 1278.38 1654.23 1278.03 1654.03 1277.29C1653.79 1276.38 1654.28 1275.76 1655.52 1275.43L1680.49 1268.74C1686.92 1267.01 1693 1267.42 1698.71 1269.95C1704.4 1272.4 1709.43 1276.66 1713.8 1282.74C1718.16 1288.81 1721.54 1296.3 1723.92 1305.2C1726.33 1314.19 1727.06 1322.34 1726.11 1329.66C1725.24 1336.96 1722.85 1343.08 1718.96 1348.01C1715.07 1352.94 1709.79 1356.3 1703.11 1358.09L1679.37 1364.45ZM1702.74 1354.74C1710.08 1352.78 1714.71 1347.78 1716.62 1339.76C1718.62 1331.72 1717.84 1321.06 1714.28 1307.79C1710.75 1294.6 1706.15 1284.88 1700.5 1278.62C1694.91 1272.25 1688.53 1270.03 1681.36 1271.95C1675.09 1273.63 1672.77 1277.48 1674.38 1283.5L1691.67 1348.03C1692.55 1351.33 1693.84 1353.5 1695.54 1354.55C1697.29 1355.5 1699.69 1355.56 1702.74 1354.74Z" fill="white"/>
<path opacity="0.56" d="M73.5772 463.352C62.9741 454.802 47.7557 455.122 37.5217 464.111C27.2876 473.1 25.0076 488.15 32.1198 499.768C87.5962 590.385 232.574 730.919 430.726 730.919C494.901 730.919 536.358 715.737 569.776 701.058C574.425 699.016 578.785 697.062 582.917 695.21C608.987 683.527 625.948 675.926 649.112 675.926C690.091 675.926 705.356 701.821 712.911 715.211C712.961 715.3 713.012 715.389 713.063 715.477C714.481 717.928 716.661 721.219 719.788 724.333C722.533 727.067 728.7 732.368 738.197 733.702C749.757 735.326 759.295 730.253 765.125 724.024C770.023 718.792 772.419 712.829 773.704 708.867C773.999 707.955 774.248 707.029 774.449 706.092C776.149 698.15 778 687.5 778 674.079C778 640.561 768.5 582.035 721.887 518.442C730.202 487.321 730.853 456.551 730.853 438.71C730.853 339.063 675.552 170.779 496.462 63.0089C485.125 56.1872 470.562 58.2312 461.541 67.91C452.521 77.5887 451.506 92.2603 459.108 103.089C493.453 152.009 536.835 221.806 536.835 318.214C536.835 337.758 533.672 358.684 529.566 376.356C488.406 349.068 436.627 309.717 385.785 268.052C321.683 215.522 260.967 160.876 226.901 124.55C216.975 113.966 200.608 112.718 189.193 121.675C177.777 130.633 175.096 146.827 183.015 158.985C201.757 187.761 221.597 215.606 242.384 242.915C208.398 216.049 175.305 188.156 143.09 159.273C132.523 149.8 116.54 149.73 105.891 159.11C95.2418 168.49 93.2941 184.354 101.358 196.032C179.404 309.054 275.936 420.639 400.859 526.45C374.317 537.187 344.004 544.158 301.257 544.158C223.39 544.158 125.677 505.369 73.5772 463.352Z" fill="#FF4334" stroke="black" stroke-width="56" stroke-linejoin="round"/>
<path d="M73.5772 432.352C62.9741 423.802 47.7557 424.122 37.5217 433.111C27.2876 442.1 25.0076 457.15 32.1198 468.768C87.5962 559.385 232.574 699.919 430.726 699.919C494.901 699.919 536.358 684.737 569.776 670.058C574.425 668.016 578.785 666.062 582.917 664.21C608.987 652.527 625.948 644.926 649.112 644.926C690.091 644.926 705.356 670.821 712.911 684.211C712.961 684.3 713.012 684.389 713.063 684.477C714.481 686.928 716.661 690.219 719.788 693.333C722.533 696.067 728.7 701.368 738.197 702.702C749.757 704.326 759.295 699.253 765.125 693.024C770.023 687.792 772.419 681.829 773.704 677.867C773.999 676.955 774.248 676.029 774.449 675.092C776.149 667.15 778 656.5 778 643.079C778 609.561 768.5 551.035 721.887 487.442C730.202 456.321 730.853 425.551 730.853 407.71C730.853 308.063 675.552 139.779 496.462 32.0089C485.125 25.1872 470.562 27.2312 461.541 36.91C452.521 46.5887 451.506 61.2603 459.108 72.0886C493.453 121.009 536.835 190.806 536.835 287.214C536.835 306.758 533.672 327.684 529.566 345.356C488.406 318.068 436.627 278.717 385.785 237.052C321.683 184.522 260.967 129.876 226.901 93.55C216.975 82.9659 200.608 81.7181 189.193 90.6754C177.777 99.6326 175.096 115.827 183.015 127.985C201.757 156.761 221.597 184.606 242.384 211.915C208.398 185.049 175.305 157.156 143.09 128.273C132.523 118.8 116.54 118.73 105.891 128.11C95.2418 137.49 93.2941 153.354 101.358 165.032C179.404 278.054 275.936 389.639 400.859 495.45C374.317 506.187 344.004 513.158 301.257 513.158C223.39 513.158 125.677 474.369 73.5772 432.352Z" fill="#FF4334" stroke="white" stroke-width="56" stroke-linejoin="round"/>
</svg>
