<svg width="2737" height="2287" viewBox="0 0 2737 2287" fill="none" xmlns="http://www.w3.org/2000/svg">
<path d="M1470.86 953.51C1482.87 973.785 1509.04 980.487 1529.31 968.478C1549.59 956.47 1556.29 930.299 1544.28 910.024C1532.27 889.749 1506.1 883.048 1485.83 895.057C1465.55 907.065 1458.85 933.236 1470.86 953.51ZM1612.29 869.743C1624.3 890.018 1650.47 896.719 1670.74 884.711C1691.02 872.702 1697.72 846.532 1685.71 826.257C1673.7 805.982 1647.53 799.281 1627.26 811.289C1606.98 823.298 1600.28 849.468 1612.29 869.743ZM1511.65 938.651L1653.08 854.883L1644.92 841.117L1503.49 924.884L1511.65 938.651Z" fill="#00FF66"/>
<path d="M1525.11 486.112C1501.98 481.63 1479.59 496.751 1475.11 519.885C1470.63 543.019 1485.75 565.406 1508.89 569.888C1532.02 574.37 1554.41 559.249 1558.89 536.115C1563.37 512.981 1548.25 490.594 1525.11 486.112ZM1401.26 1125.43C1378.13 1120.95 1355.74 1136.07 1351.26 1159.2C1346.78 1182.34 1361.9 1204.72 1385.03 1209.21C1408.16 1213.69 1430.55 1198.57 1435.03 1175.43C1439.52 1152.3 1424.39 1129.91 1401.26 1125.43ZM1509.15 526.478L1385.29 1165.8L1401 1168.84L1524.85 529.522L1509.15 526.478Z" fill="#00FF66"/>
<path d="M1908.66 1066.07C1908.14 1042.51 1888.63 1023.83 1865.07 1024.34C1841.51 1024.86 1822.83 1044.37 1823.34 1067.93C1823.86 1091.49 1843.37 1110.17 1866.93 1109.66C1890.49 1109.14 1909.17 1089.63 1908.66 1066.07ZM1402.66 1077.07C1402.14 1053.51 1382.63 1034.83 1359.07 1035.34C1335.51 1035.86 1316.83 1055.37 1317.34 1078.93C1317.86 1102.49 1337.37 1121.17 1360.93 1120.66C1384.49 1120.14 1403.17 1100.63 1402.66 1077.07ZM1865.83 1059L1359.83 1070L1360.17 1086L1866.17 1075L1865.83 1059Z" fill="#00FF66"/>
<path d="M1825.25 1054.37C1818.27 1076.88 1830.86 1100.78 1853.37 1107.75C1875.88 1114.73 1899.78 1102.14 1906.75 1079.63C1913.73 1057.12 1901.14 1033.22 1878.63 1026.25C1856.12 1019.27 1832.22 1031.86 1825.25 1054.37ZM2251.24 1186.37C2244.27 1208.88 2256.86 1232.78 2279.37 1239.75C2301.88 1246.73 2325.78 1234.14 2332.75 1211.63C2339.73 1189.12 2327.14 1165.22 2304.63 1158.24C2282.12 1151.27 2258.22 1163.86 2251.24 1186.37ZM1863.63 1074.64L2289.63 1206.64L2294.37 1191.36L1868.37 1059.36L1863.63 1074.64Z" fill="#00FF66"/>
<path d="M1418.53 1657.43C1441.96 1654.93 1458.93 1633.9 1456.43 1610.47C1453.93 1587.04 1432.9 1570.07 1409.47 1572.57C1386.04 1575.07 1369.07 1596.1 1371.57 1619.53C1374.07 1642.96 1395.1 1659.93 1418.53 1657.43ZM1364.53 1151.43C1387.96 1148.93 1404.93 1127.9 1402.43 1104.47C1399.93 1081.04 1378.9 1064.07 1355.47 1066.57C1332.04 1069.07 1315.07 1090.1 1317.57 1113.53C1320.07 1136.96 1341.1 1153.93 1364.53 1151.43ZM1421.95 1614.15L1367.96 1108.15L1352.05 1109.85L1406.05 1615.85L1421.95 1614.15Z" fill="#00FF66"/>
<path d="M1431.58 1576.12C1410.11 1566.41 1384.83 1575.95 1375.12 1597.42C1365.41 1618.89 1374.95 1644.17 1396.42 1653.88C1417.89 1663.59 1443.17 1654.05 1452.88 1632.58C1462.59 1611.11 1453.05 1585.83 1431.58 1576.12ZM1261.58 1952.12C1240.11 1942.41 1214.83 1951.95 1205.12 1973.42C1195.41 1994.89 1204.95 2020.17 1226.42 2029.88C1247.89 2039.59 1273.17 2030.05 1282.88 2008.58C1292.59 1987.11 1283.05 1961.83 1261.58 1952.12ZM1406.71 1611.7L1236.71 1987.7L1251.29 1994.3L1421.29 1618.3L1406.71 1611.7Z" fill="#00FF66"/>
<path d="M1182.25 2285.76C1205.32 2290.59 1227.93 2275.81 1232.76 2252.75C1237.59 2229.68 1222.81 2207.07 1199.75 2202.24C1176.68 2197.41 1154.07 2212.19 1149.24 2235.25C1144.41 2258.32 1159.19 2280.93 1182.25 2285.76ZM1235.25 2032.76C1258.32 2037.59 1280.93 2022.81 1285.76 1999.75C1290.59 1976.68 1275.81 1954.07 1252.75 1949.24C1229.68 1944.41 1207.07 1959.19 1202.24 1982.25C1197.41 2005.32 1212.19 2027.93 1235.25 2032.76ZM1198.83 2245.64L1251.83 1992.64L1236.17 1989.36L1183.17 2242.36L1198.83 2245.64Z" fill="#00FF66"/>
<path d="M1231.91 2256.11C1238.6 2233.51 1225.7 2209.77 1203.11 2203.09C1180.51 2196.4 1156.77 2209.3 1150.09 2231.89C1143.4 2254.49 1156.3 2278.23 1178.89 2284.91C1201.49 2291.6 1225.23 2278.7 1231.91 2256.11ZM376.913 2003.11C383.599 1980.51 370.702 1956.77 348.106 1950.09C325.511 1943.4 301.773 1956.3 295.087 1978.89C288.401 2001.49 301.298 2025.23 323.894 2031.91C346.489 2038.6 370.227 2025.7 376.913 2003.11ZM1193.27 2236.33L338.27 1983.33L333.73 1998.67L1188.73 2251.67L1193.27 2236.33Z" fill="#00FF66"/>
<path d="M752.504 1662.58C737.914 1644.08 711.085 1640.91 692.582 1655.5C674.078 1670.09 670.906 1696.91 685.496 1715.42C700.086 1733.92 726.915 1737.09 745.418 1722.5C763.922 1707.91 767.094 1681.09 752.504 1662.58ZM369.504 1964.58C354.914 1946.08 328.085 1942.91 309.582 1957.5C291.078 1972.09 287.906 1998.91 302.496 2017.42C317.086 2035.92 343.915 2039.09 362.418 2024.5C380.922 2009.91 384.094 1983.09 369.504 1964.58ZM714.047 1682.72L331.047 1984.72L340.953 1997.28L723.953 1695.28L714.047 1682.72Z" fill="#00FF66"/>
<path d="M27.8431 1180.12C5.81595 1188.49 -5.25465 1213.13 3.11625 1235.16C11.4872 1257.18 36.1297 1268.25 58.1569 1259.88C80.184 1251.51 91.2547 1226.87 82.8838 1204.84C74.5128 1182.82 49.8703 1171.75 27.8431 1180.12ZM320.843 1951.12C298.816 1959.49 287.745 1984.13 296.116 2006.16C304.487 2028.18 329.13 2039.25 351.157 2030.88C373.184 2022.51 384.255 1997.87 375.884 1975.84C367.513 1953.82 342.87 1942.75 320.843 1951.12ZM35.5218 1222.84L328.522 1993.84L343.478 1988.16L50.4782 1217.16L35.5218 1222.84Z" fill="#00FF66"/>
<path d="M25.6415 1258.98C47.1674 1268.56 72.3892 1258.88 81.976 1237.36C91.5628 1215.83 81.8843 1190.61 60.3585 1181.02C38.8326 1171.44 13.6108 1181.12 4.02401 1202.64C-5.5628 1224.17 4.1157 1249.39 25.6415 1258.98ZM510.642 169.976C532.167 179.563 557.389 169.884 566.976 148.358C576.563 126.833 566.884 101.611 545.358 92.024C523.833 82.4372 498.611 92.1157 489.024 113.642C479.437 135.167 489.116 160.389 510.642 169.976ZM50.308 1223.25L535.308 134.255L520.692 127.745L35.692 1216.75L50.308 1223.25Z" fill="#00FF66"/>
<path d="M810.152 595.466C830.291 583.231 836.7 556.987 824.466 536.848C812.231 516.709 785.987 510.3 765.848 522.534C745.709 534.769 739.3 561.013 751.534 581.152C763.769 601.291 790.013 607.7 810.152 595.466ZM550.152 167.466C570.291 155.231 576.7 128.987 564.466 108.848C552.231 88.7087 525.987 82.3003 505.848 94.5345C485.709 106.769 479.3 133.013 491.534 153.152C503.769 173.291 530.013 179.7 550.152 167.466ZM794.837 554.847L534.837 126.847L521.163 135.154L781.163 563.153L794.837 554.847Z" fill="#00FF66"/>
<path d="M1272.34 37.693C1269.4 14.3119 1248.07 -2.2663 1224.69 0.664675C1201.31 3.59565 1184.73 24.9258 1187.66 48.307C1190.6 71.6881 1211.93 88.2663 1235.31 85.3353C1258.69 82.4044 1275.27 61.0742 1272.34 37.693ZM570.335 125.693C567.404 102.312 546.074 85.7337 522.693 88.6647C499.312 91.5957 482.734 112.926 485.665 136.307C488.596 159.688 509.926 176.266 533.307 173.335C556.688 170.404 573.266 149.074 570.335 125.693ZM1229 35.0621L527.005 123.062L528.995 138.938L1231 50.9379L1229 35.0621Z" fill="#00FF66"/>
<path d="M0.444387 1223.08C2.14339 1246.58 22.5735 1264.25 46.0763 1262.56C69.5791 1260.86 87.2546 1240.43 85.5556 1216.92C83.8566 1193.42 63.4265 1175.75 39.9237 1177.44C16.4209 1179.14 -1.25461 1199.57 0.444387 1223.08ZM415.444 1193.08C417.143 1216.58 437.573 1234.25 461.076 1232.56C484.579 1230.86 502.255 1210.43 500.556 1186.92C498.857 1163.42 478.426 1145.75 454.924 1147.44C431.421 1149.14 413.745 1169.57 415.444 1193.08ZM43.5768 1227.98L458.577 1197.98L457.423 1182.02L42.4232 1212.02L43.5768 1227.98Z" fill="#00FF66"/>
<path d="M1149.25 2252.77C1154.09 2275.83 1176.71 2290.6 1199.77 2285.75C1222.83 2280.91 1237.6 2258.29 1232.75 2235.23C1227.91 2212.17 1205.29 2197.4 1182.23 2202.25C1159.17 2207.09 1144.4 2229.71 1149.25 2252.77ZM2077.25 2057.77C2082.09 2080.83 2104.71 2095.6 2127.77 2090.75C2150.83 2085.91 2165.6 2063.29 2160.75 2040.23C2155.91 2017.17 2133.29 2002.4 2110.23 2007.25C2087.17 2012.09 2072.4 2034.71 2077.25 2057.77ZM1192.65 2251.83L2120.65 2056.83L2117.35 2041.17L1189.35 2236.17L1192.65 2251.83Z" fill="#00FF66"/>
<path d="M758.342 1090.14C757.865 1113.7 776.577 1133.18 800.137 1133.66C823.696 1134.13 843.181 1115.42 843.658 1091.86C844.135 1068.3 825.423 1048.82 801.863 1048.34C778.304 1047.87 758.819 1066.58 758.342 1090.14ZM1351.17 1102.14C1350.69 1125.7 1369.4 1145.18 1392.96 1145.66C1416.52 1146.13 1436.01 1127.42 1436.48 1103.86C1436.96 1080.3 1418.25 1060.82 1394.69 1060.34C1371.13 1059.87 1351.64 1078.58 1351.17 1102.14ZM800.838 1099L1393.66 1111L1393.99 1095L801.162 1083L800.838 1099Z" fill="#00FF66"/>
<path d="M781.789 1052.9C760.748 1063.51 752.293 1089.17 762.903 1110.21C773.513 1131.25 799.171 1139.71 820.211 1129.1C841.252 1118.49 849.707 1092.83 839.097 1071.79C828.487 1050.75 802.829 1042.29 781.789 1052.9ZM958.789 1403.9C937.748 1414.51 929.293 1440.17 939.903 1461.21C950.513 1482.25 976.171 1490.71 997.211 1480.1C1018.25 1469.49 1026.71 1443.83 1016.1 1422.79C1005.49 1401.75 979.829 1393.29 958.789 1403.9ZM793.857 1094.6L970.857 1445.6L985.143 1438.4L808.143 1087.4L793.857 1094.6Z" fill="#00FF66"/>
<path d="M841.798 1078.51C834.9 1055.98 811.043 1043.3 788.511 1050.2C765.979 1057.1 753.305 1080.96 760.202 1103.49C767.1 1126.02 790.957 1138.7 813.489 1131.8C836.021 1124.9 848.695 1101.04 841.798 1078.51ZM498.798 1183.51C491.9 1160.98 468.043 1148.3 445.511 1155.2C422.979 1162.1 410.305 1185.96 417.202 1208.49C424.1 1231.02 447.957 1243.7 470.489 1236.8C493.021 1229.9 505.695 1206.04 498.798 1183.51ZM798.658 1083.35L455.658 1188.35L460.342 1203.65L803.342 1098.65L798.658 1083.35Z" fill="#00FF66"/>
<path d="M438.05 1157.86C417.221 1168.88 409.267 1194.69 420.285 1215.52C431.303 1236.35 457.12 1244.31 477.95 1233.29C498.779 1222.27 506.733 1196.45 495.715 1175.62C484.697 1154.79 458.88 1146.84 438.05 1157.86ZM699.05 1651.28C678.221 1662.3 670.267 1688.12 681.285 1708.95C692.303 1729.78 718.12 1737.73 738.95 1726.72C759.779 1715.7 767.733 1689.88 756.715 1669.05C745.697 1648.22 719.88 1640.27 699.05 1651.28ZM450.928 1199.31L711.928 1692.74L726.072 1685.26L465.072 1191.83L450.928 1199.31Z" fill="#00FF66"/>
<path d="M682.016 1667.73C670.266 1688.15 677.299 1714.23 697.725 1725.98C718.151 1737.73 744.234 1730.7 755.984 1710.27C767.734 1689.85 760.701 1663.77 740.275 1652.02C719.849 1640.27 693.766 1647.3 682.016 1667.73ZM1207.02 1969.73C1195.27 1990.15 1202.3 2016.23 1222.73 2027.98C1243.15 2039.73 1269.23 2032.7 1280.98 2012.27C1292.73 1991.85 1285.7 1965.77 1265.27 1954.02C1244.85 1942.27 1218.77 1949.3 1207.02 1969.73ZM715.011 1695.93L1240.01 1997.93L1247.99 1984.07L722.989 1682.07L715.011 1695.93Z" fill="#00FF66"/>
<path d="M1203.62 2004.77C1211.22 2027.07 1235.47 2038.99 1257.77 2031.38C1280.07 2023.78 1291.99 1999.53 1284.38 1977.23C1276.78 1954.93 1252.53 1943.01 1230.23 1950.62C1207.93 1958.22 1196.01 1982.47 1203.62 2004.77ZM1904.62 1765.77C1912.22 1788.07 1936.47 1799.99 1958.77 1792.38C1981.07 1784.78 1992.99 1760.53 1985.38 1738.23C1977.78 1715.93 1953.53 1704.01 1931.23 1711.62C1908.93 1719.22 1897.01 1743.47 1904.62 1765.77ZM1246.58 1998.57L1947.58 1759.57L1942.42 1744.43L1241.42 1983.43L1246.58 1998.57Z" fill="#00FF66"/>
<path d="M2314.68 1162.86C2294.72 1150.33 2268.38 1156.36 2255.86 1176.32C2243.33 1196.28 2249.36 1222.62 2269.32 1235.14C2289.28 1247.67 2315.62 1241.64 2328.14 1221.68C2340.67 1201.72 2334.64 1175.38 2314.68 1162.86ZM1967.68 1715.86C1947.72 1703.33 1921.38 1709.36 1908.86 1729.32C1896.33 1749.28 1902.36 1775.62 1922.32 1788.14C1942.28 1800.67 1968.62 1794.64 1981.14 1774.68C1993.67 1754.72 1987.64 1728.38 1967.68 1715.86ZM2285.22 1194.75L1938.22 1747.75L1951.78 1756.25L2298.78 1203.25L2285.22 1194.75Z" fill="#00FF66"/>
<path d="M2311.6 1236.9C2332.53 1226.07 2340.72 1200.33 2329.9 1179.4C2319.07 1158.47 2293.33 1150.28 2272.4 1161.1C2251.47 1171.93 2243.28 1197.67 2254.1 1218.6C2264.93 1239.53 2290.67 1247.72 2311.6 1236.9ZM1964.6 565.899C1985.53 555.075 1993.72 529.332 1982.9 508.401C1972.07 487.47 1946.33 479.277 1925.4 490.101C1904.47 500.925 1896.28 526.668 1907.1 547.599C1917.93 568.53 1943.67 576.723 1964.6 565.899ZM2299.11 1195.33L1952.11 524.325L1937.89 531.675L2284.89 1202.67L2299.11 1195.33Z" fill="#00FF66"/>
<path d="M2251.14 1211.3C2257.94 1233.86 2281.73 1246.65 2304.3 1239.86C2326.86 1233.06 2339.65 1209.27 2332.86 1186.7C2326.06 1164.14 2302.27 1151.35 2279.7 1158.14C2257.14 1164.94 2244.35 1188.73 2251.14 1211.3ZM2653.14 1090.3C2659.94 1112.86 2683.73 1125.65 2706.3 1118.86C2728.86 1112.06 2741.65 1088.27 2734.86 1065.7C2728.06 1043.14 2704.27 1030.35 2681.7 1037.14C2659.14 1043.94 2646.35 1067.73 2653.14 1090.3ZM2294.31 1206.66L2696.31 1085.66L2691.69 1070.34L2289.69 1191.34L2294.31 1206.66Z" fill="#00FF66"/>
<path d="M1233.78 423.816C1230.37 447.131 1246.5 468.801 1269.82 472.216C1293.13 475.632 1314.8 459.499 1318.22 436.184C1321.63 412.869 1305.5 391.199 1282.18 387.784C1258.87 384.368 1237.2 400.501 1233.78 423.816ZM1902.78 521.816C1899.37 545.131 1915.5 566.801 1938.82 570.216C1962.13 573.632 1983.8 557.499 1987.22 534.184C1990.63 510.869 1974.5 489.199 1951.18 485.784C1927.87 482.368 1906.2 498.501 1902.78 521.816ZM1274.84 437.916L1943.84 535.916L1946.16 520.084L1277.16 422.084L1274.84 437.916Z" fill="#00FF66"/>
<path d="M1317.25 419.096C1311.23 396.314 1287.88 382.728 1265.1 388.75C1242.31 394.772 1228.73 418.123 1234.75 440.904C1240.77 463.686 1264.12 477.272 1286.9 471.25C1309.69 465.228 1323.27 441.877 1317.25 419.096ZM829.25 548.096C823.228 525.314 799.877 511.728 777.096 517.75C754.314 523.772 740.728 547.123 746.75 569.904C752.772 592.686 776.123 606.272 798.904 600.25C821.686 594.228 835.272 570.877 829.25 548.096ZM1273.96 422.266L785.955 551.266L790.045 566.734L1278.04 437.734L1273.96 422.266Z" fill="#00FF66"/>
<path d="M438.227 1227.81C459.108 1238.73 484.888 1230.65 495.808 1209.77C506.729 1188.89 498.654 1163.11 477.773 1152.19C456.892 1141.27 431.112 1149.35 420.192 1170.23C409.271 1191.11 417.346 1216.89 438.227 1227.81ZM768.227 596.808C789.108 607.729 814.888 599.654 825.808 578.773C836.729 557.892 828.654 532.112 807.773 521.192C786.892 510.271 761.112 518.346 750.192 539.227C739.271 560.108 747.346 585.888 768.227 596.808ZM465.089 1193.71L795.089 562.707L780.911 555.293L450.911 1186.29L465.089 1193.71Z" fill="#00FF66"/>
<path d="M1411.56 1215.15C1395.63 1232.51 1396.79 1259.5 1414.15 1275.44C1431.51 1291.37 1458.5 1290.21 1474.44 1272.85C1490.37 1255.49 1489.21 1228.5 1471.85 1212.56C1454.49 1196.63 1427.5 1197.79 1411.56 1215.15ZM1666.56 1449.15C1650.63 1466.51 1651.79 1493.5 1669.15 1509.44C1686.51 1525.37 1713.5 1524.21 1729.44 1506.85C1745.37 1489.49 1744.21 1462.5 1726.85 1446.56C1709.49 1430.63 1682.5 1431.79 1666.56 1449.15ZM1437.59 1249.89L1692.59 1483.89L1703.41 1472.11L1448.41 1238.11L1437.59 1249.89Z" fill="#00FF66"/>
<path d="M1973.57 1783.69C1991.07 1767.91 1992.47 1740.93 1976.69 1723.43C1960.91 1705.93 1933.93 1704.53 1916.43 1720.31C1898.93 1736.09 1897.53 1763.07 1913.31 1780.57C1929.09 1798.07 1956.07 1799.47 1973.57 1783.69ZM1726.57 1509.69C1744.07 1493.91 1745.47 1466.93 1729.69 1449.43C1713.91 1431.93 1686.93 1430.53 1669.43 1446.31C1651.93 1462.09 1650.53 1489.07 1666.31 1506.57C1682.09 1524.07 1709.07 1525.47 1726.57 1509.69ZM1950.94 1746.64L1703.94 1472.64L1692.06 1483.36L1939.06 1757.36L1950.94 1746.64Z" fill="#00FF66"/>
<path d="M1923.43 1715.19C1903.1 1727.1 1896.27 1753.24 1908.19 1773.57C1920.1 1793.9 1946.24 1800.73 1966.57 1788.81C1986.9 1776.9 1993.73 1750.76 1981.81 1730.43C1969.9 1710.1 1943.76 1703.27 1923.43 1715.19ZM2097.43 2012.19C2077.1 2024.1 2070.27 2050.24 2082.19 2070.57C2094.1 2090.9 2120.24 2097.73 2140.57 2085.81C2160.9 2073.9 2167.73 2047.76 2155.81 2027.43C2143.9 2007.1 2117.76 2000.27 2097.43 2012.19ZM1938.1 1756.04L2112.1 2053.04L2125.9 2044.96L1951.9 1747.96L1938.1 1756.04Z" fill="#00FF66"/>
<path d="M2715.74 1041.29C2695.46 1029.28 2669.29 1035.98 2657.29 1056.26C2645.28 1076.54 2651.98 1102.71 2672.26 1114.71C2692.54 1126.72 2718.71 1120.02 2730.71 1099.74C2742.72 1079.46 2736.02 1053.29 2715.74 1041.29ZM2140.74 2012.29C2120.46 2000.28 2094.29 2006.98 2082.29 2027.26C2070.28 2047.54 2076.98 2073.71 2097.26 2085.71C2117.54 2097.72 2143.71 2091.02 2155.71 2070.74C2167.72 2050.46 2161.02 2024.29 2140.74 2012.29ZM2687.12 1073.92L2112.12 2044.92L2125.88 2053.08L2700.88 1082.08L2687.12 1073.92Z" fill="#00FF66"/>
<path d="M1882.14 1027.51C1860.33 1018.59 1835.42 1029.04 1826.51 1050.86C1817.59 1072.67 1828.04 1097.58 1849.86 1106.49C1871.67 1115.41 1896.58 1104.96 1905.49 1083.14C1914.41 1061.33 1903.96 1036.42 1882.14 1027.51ZM1714.14 1438.51C1692.33 1429.59 1667.42 1440.04 1658.51 1461.86C1649.59 1483.67 1660.04 1508.58 1681.86 1517.49C1703.67 1526.41 1728.58 1515.96 1737.49 1494.14C1746.41 1472.33 1735.96 1447.42 1714.14 1438.51ZM1858.59 1063.97L1690.59 1474.97L1705.41 1481.03L1873.41 1070.03L1858.59 1063.97Z" fill="#00FF66"/>
<path d="M1051.64 759.687C1032.69 773.693 1028.68 800.409 1042.69 819.359C1056.69 838.309 1083.41 842.318 1102.36 828.313C1121.31 814.307 1125.32 787.591 1111.31 768.641C1097.31 749.691 1070.59 745.682 1051.64 759.687ZM1176.87 929.138C1157.92 943.144 1153.92 969.86 1167.92 988.81C1181.93 1007.76 1208.64 1011.77 1227.59 997.764C1246.54 983.758 1250.55 957.042 1236.55 938.092C1222.54 919.142 1195.83 915.133 1176.87 929.138ZM1070.57 798.755L1195.8 968.206L1208.67 958.696L1083.43 789.245L1070.57 798.755Z" fill="#00FF66"/>
<path d="M1106.04 762.745C1088.78 746.704 1061.79 747.694 1045.75 764.955C1029.7 782.217 1030.69 809.214 1047.96 825.255C1065.22 841.296 1092.21 840.306 1108.25 823.045C1124.3 805.783 1123.31 778.786 1106.04 762.745ZM830.045 1059.75C812.783 1043.7 785.786 1044.69 769.745 1061.96C753.704 1079.22 754.694 1106.21 771.955 1122.25C789.217 1138.3 816.214 1137.31 832.255 1120.04C848.296 1102.78 847.306 1075.79 830.045 1059.75ZM1071.14 788.554L795.14 1085.55L806.86 1096.45L1082.86 799.446L1071.14 788.554Z" fill="#00FF66"/>
<path d="M1110.1 820.918C1124.97 802.636 1122.2 775.763 1103.92 760.896C1085.64 746.03 1058.76 748.799 1043.9 767.082C1029.03 785.364 1031.8 812.237 1050.08 827.104C1068.36 841.97 1095.24 839.201 1110.1 820.918ZM821.104 585.918C835.97 567.636 833.201 540.763 814.918 525.896C796.636 511.03 769.763 513.799 754.896 532.082C740.03 550.364 742.799 577.237 761.082 592.104C779.364 606.97 806.237 604.201 821.104 585.918ZM1082.05 787.793L793.047 552.793L782.953 565.207L1071.95 800.207L1082.05 787.793Z" fill="#00FF66"/>
<path d="M1040.49 816.074C1052.68 836.239 1078.91 842.704 1099.07 830.513C1119.24 818.322 1125.7 792.092 1113.51 771.926C1101.32 751.761 1075.09 745.296 1054.93 757.487C1034.76 769.678 1028.3 795.908 1040.49 816.074ZM1480.49 550.074C1492.68 570.239 1518.91 576.704 1539.07 564.513C1559.24 552.322 1565.7 526.092 1553.51 505.926C1541.32 485.761 1515.09 479.296 1494.93 491.487C1474.76 503.678 1468.3 529.908 1480.49 550.074ZM1081.14 800.846L1521.14 534.846L1512.86 521.154L1072.86 787.154L1081.14 800.846Z" fill="#00FF66"/>
<path d="M1236.48 413.928C1227.6 435.756 1238.1 460.648 1259.93 469.524C1281.76 478.4 1306.65 467.9 1315.52 446.072C1324.4 424.244 1313.9 399.352 1292.07 390.476C1270.24 381.6 1245.35 392.1 1236.48 413.928ZM1477.48 511.928C1468.6 533.756 1479.1 558.648 1500.93 567.524C1522.76 576.4 1547.65 565.9 1556.52 544.072C1565.4 522.244 1554.9 497.352 1533.07 488.476C1511.24 479.6 1486.35 490.1 1477.48 511.928ZM1272.99 437.411L1513.99 535.411L1520.01 520.589L1279.01 422.589L1272.99 437.411Z" fill="#00FF66"/>
<path d="M1281.04 472.368C1304.44 469.587 1321.15 448.363 1318.37 424.964C1315.59 401.565 1294.36 384.85 1270.96 387.632C1247.56 390.413 1230.85 411.637 1233.63 435.036C1236.41 458.435 1257.64 475.15 1281.04 472.368ZM1235.04 85.3684C1258.44 82.5871 1275.15 61.3634 1272.37 37.9639C1269.59 14.5645 1248.36 -2.14976 1224.96 0.631565C1201.56 3.41289 1184.85 24.6366 1187.63 48.036C1190.41 71.4354 1211.64 88.1497 1235.04 85.3684ZM1283.94 429.056L1237.94 42.0557L1222.06 43.9442L1268.06 430.944L1283.94 429.056Z" fill="#00FF66"/>
<path d="M2435.92 271.959C2440.31 248.808 2425.11 226.478 2401.96 222.082C2378.81 217.687 2356.48 232.891 2352.08 256.041C2347.69 279.192 2362.89 301.522 2386.04 305.918C2409.19 310.313 2431.52 295.109 2435.92 271.959ZM1271.92 50.9586C1276.31 27.8081 1261.11 5.47761 1237.96 1.08218C1214.81 -3.31325 1192.48 11.8908 1188.08 35.0414C1183.69 58.192 1198.89 80.5224 1222.04 84.9178C1245.19 89.3133 1267.52 74.1092 1271.92 50.9586ZM2395.49 256.14L1231.49 35.1404L1228.51 50.8596L2392.51 271.86L2395.49 256.14Z" fill="#00FF66"/>
<path d="M1665.27 887.443C1687.05 878.457 1697.43 853.513 1688.44 831.73C1679.46 809.946 1654.51 799.572 1632.73 808.557C1610.95 817.543 1600.57 842.487 1609.56 864.27C1618.54 886.054 1643.49 896.428 1665.27 887.443ZM1533.27 567.443C1555.05 558.457 1565.43 533.514 1556.44 511.73C1547.46 489.946 1522.51 479.572 1500.73 488.557C1478.95 497.543 1468.57 522.487 1477.56 544.27C1486.54 566.054 1511.49 576.428 1533.27 567.443ZM1656.4 844.949L1524.4 524.949L1509.6 531.051L1641.6 851.051L1656.4 844.949Z" fill="#00FF66"/>
<path d="M1618.97 817.692C1602.23 834.278 1602.11 861.293 1618.69 878.031C1635.28 894.77 1662.29 894.894 1679.03 878.308C1695.77 861.722 1695.89 834.707 1679.31 817.969C1662.72 801.23 1635.71 801.106 1618.97 817.692ZM1835.97 1036.69C1819.23 1053.28 1819.11 1080.29 1835.69 1097.03C1852.28 1113.77 1879.29 1113.89 1896.03 1097.31C1912.77 1080.72 1912.89 1053.71 1896.31 1036.97C1879.72 1020.23 1852.71 1020.11 1835.97 1036.69ZM1643.32 853.631L1860.32 1072.63L1871.68 1061.37L1654.68 842.369L1643.32 853.631Z" fill="#00FF66"/>
<path d="M1620.03 879.322C1637.33 895.323 1664.32 894.271 1680.32 876.972C1696.32 859.674 1695.27 832.679 1677.97 816.678C1660.67 800.677 1633.68 801.729 1617.68 819.028C1601.68 836.326 1602.73 863.321 1620.03 879.322ZM1916.03 559.322C1933.33 575.323 1960.32 574.271 1976.32 556.972C1992.32 539.674 1991.27 512.679 1973.97 496.678C1956.67 480.677 1929.68 481.729 1913.68 499.028C1897.68 516.326 1898.73 543.321 1916.03 559.322ZM1654.87 853.432L1950.87 533.432L1939.13 522.568L1643.13 842.568L1654.87 853.432Z" fill="#00FF66"/>
<path d="M2430.78 242.374C2418.84 222.061 2392.69 215.276 2372.37 227.22C2352.06 239.163 2345.28 265.313 2357.22 285.626C2369.16 305.939 2395.31 312.724 2415.63 300.78C2435.94 288.837 2442.72 262.687 2430.78 242.374ZM1981.78 506.374C1969.84 486.061 1943.69 479.276 1923.37 491.22C1903.06 503.163 1896.28 529.313 1908.22 549.626C1920.16 569.939 1946.31 576.724 1966.63 564.78C1986.94 552.837 1993.72 526.687 1981.78 506.374ZM2389.95 257.104L1940.95 521.104L1949.05 534.896L2398.05 270.896L2389.95 257.104Z" fill="#00FF66"/>
<path d="M2379.25 223.966C2357.14 232.114 2345.82 256.644 2353.97 278.755C2362.11 300.865 2386.64 312.183 2408.75 304.034C2430.86 295.886 2442.18 271.356 2434.03 249.245C2425.89 227.135 2401.36 215.817 2379.25 223.966ZM2679.25 1037.97C2657.14 1046.11 2645.82 1070.64 2653.97 1092.75C2662.11 1114.86 2686.64 1126.18 2708.75 1118.03C2730.87 1109.89 2742.18 1085.36 2734.03 1063.25C2725.89 1041.14 2701.36 1029.82 2679.25 1037.97ZM2386.49 266.766L2686.49 1080.77L2701.51 1075.23L2401.51 261.234L2386.49 266.766Z" fill="#00FF66"/>
<path d="M1371.11 1249.21C1360.73 1228.06 1335.17 1219.32 1314.01 1229.69C1292.86 1240.07 1284.12 1265.63 1294.49 1286.79C1304.87 1307.94 1330.43 1316.68 1351.59 1306.31C1372.74 1295.93 1381.48 1270.37 1371.11 1249.21ZM1016.31 1423.21C1005.93 1402.06 980.37 1393.32 959.213 1403.69C938.056 1414.07 929.316 1439.63 939.692 1460.79C950.068 1481.94 975.63 1490.68 996.787 1480.31C1017.94 1469.93 1026.68 1444.37 1016.31 1423.21ZM1329.28 1260.82L974.477 1434.82L981.523 1449.18L1336.32 1275.18L1329.28 1260.82Z" fill="#00FF66"/>
<path d="M688.123 1718.45C704.386 1735.5 731.393 1736.14 748.446 1719.88C765.499 1703.61 766.139 1676.61 749.877 1659.55C733.614 1642.5 706.607 1641.86 689.554 1658.12C672.501 1674.39 671.861 1701.39 688.123 1718.45ZM947.123 1471.45C963.386 1488.5 990.393 1489.14 1007.45 1472.88C1024.5 1456.61 1025.14 1429.61 1008.88 1412.55C992.614 1395.5 965.607 1394.86 948.554 1411.12C931.501 1427.39 930.861 1454.39 947.123 1471.45ZM724.521 1694.79L983.521 1447.79L972.479 1436.21L713.479 1683.21L724.521 1694.79Z" fill="#00FF66"/>
<path d="M1453.66 1630.74C1462.35 1608.83 1451.64 1584.03 1429.74 1575.34C1407.83 1566.65 1383.03 1577.36 1374.34 1599.26C1365.65 1621.17 1376.36 1645.97 1398.26 1654.66C1420.17 1663.35 1444.97 1652.64 1453.66 1630.74ZM1017.66 1457.74C1026.35 1435.83 1015.64 1411.03 993.736 1402.34C971.833 1393.65 947.032 1404.36 938.341 1426.26C929.65 1448.17 940.361 1472.97 962.264 1481.66C984.167 1490.35 1008.97 1479.64 1017.66 1457.74ZM1416.95 1607.56L980.951 1434.56L975.049 1449.44L1411.05 1622.44L1416.95 1607.56Z" fill="#00FF66"/>
<path d="M1375.68 1633.76C1386.04 1654.92 1411.59 1663.68 1432.76 1653.32C1453.92 1642.96 1462.68 1617.41 1452.32 1596.24C1441.96 1575.08 1416.41 1566.32 1395.24 1576.68C1374.08 1587.04 1365.32 1612.59 1375.68 1633.76ZM1659.68 1494.76C1670.04 1515.92 1695.59 1524.68 1716.76 1514.32C1737.92 1503.96 1746.68 1478.41 1736.32 1457.24C1725.96 1436.08 1700.41 1427.32 1679.24 1437.68C1658.08 1448.04 1649.32 1473.59 1659.68 1494.76ZM1417.52 1622.19L1701.52 1483.19L1694.48 1468.81L1410.48 1607.81L1417.52 1622.19Z" fill="#00FF66"/>
<path d="M1181.07 881H1536.28C1568.55 881 1591.62 912.205 1582.17 943.06L1462.08 1335.06C1455.9 1355.23 1437.28 1369 1416.19 1369H1286.57C1264.87 1369 1245.86 1354.43 1240.22 1333.48L1134.71 941.475C1126.51 910.977 1149.48 881 1181.07 881Z" fill="white" stroke="black" stroke-width="16"/>
<path d="M1413.93 1304.12C1412.57 1304.12 1411.2 1303.61 1409.84 1302.58C1408.47 1301.56 1407.45 1299.34 1406.77 1295.93L1367.34 1137.21C1367 1134.48 1365.98 1133.28 1364.27 1133.62C1362.56 1133.62 1361.37 1134.82 1360.69 1137.21L1316.65 1295.93C1315.63 1299.34 1314.44 1301.56 1313.07 1302.58C1312.05 1303.61 1310.85 1304.12 1309.49 1304.12C1308.12 1304.12 1306.58 1303.61 1304.88 1302.58C1303.51 1301.56 1302.49 1299.34 1301.81 1295.93L1220.91 971.32C1218.52 961.763 1215.79 955.107 1212.72 951.352C1209.99 947.597 1205.21 945.037 1198.38 943.672L1190.7 942.136C1185.92 941.112 1183.53 938.893 1183.53 935.48C1183.53 932.067 1186.09 930.36 1191.21 930.36H1273.65C1278.42 930.36 1280.81 932.237 1280.81 935.992C1280.81 939.064 1278.25 941.112 1273.13 942.136L1267.5 943.16C1261.7 944.184 1257.94 946.232 1256.24 949.304C1254.87 952.035 1255.04 957.155 1256.75 964.664L1317.17 1214.52C1317.85 1216.91 1318.87 1218.1 1320.24 1218.1C1321.94 1218.1 1323.14 1216.91 1323.82 1214.52L1346.86 1131.06C1350.62 1118.09 1352.49 1106.15 1352.49 1095.22C1352.49 1084.3 1350.79 1072.18 1347.37 1058.87L1325.87 971.32C1323.48 961.763 1321.09 954.936 1318.7 950.84C1316.65 946.744 1313.75 944.355 1310 943.672L1302.32 942.136C1297.54 941.112 1295.15 938.893 1295.15 935.48C1295.15 932.067 1297.71 930.36 1302.83 930.36H1372.97C1377.75 930.36 1380.14 932.237 1380.14 935.992C1380.14 939.064 1377.58 941.112 1372.46 942.136L1366.83 943.16C1362.39 943.843 1359.66 945.72 1358.64 948.792C1357.96 951.864 1358.47 957.155 1360.17 964.664L1377.58 1037.88C1378.26 1040.27 1379.29 1041.46 1380.65 1041.46C1382.36 1041.46 1383.56 1040.27 1384.24 1037.88L1402.67 975.416C1406.42 962.445 1407.79 953.912 1406.77 949.816C1406.08 945.72 1404.21 943.501 1401.13 943.16L1395.5 942.136C1390.38 941.112 1387.82 939.064 1387.82 935.992C1387.82 932.237 1390.21 930.36 1394.99 930.36H1443.63C1449.43 930.36 1452.33 932.237 1452.33 935.992C1452.33 939.405 1449.43 941.453 1443.63 942.136L1438 942.648C1433.56 942.989 1429.81 945.72 1426.73 950.84C1424 955.96 1420.93 964.323 1417.52 975.928L1398.06 1043C1394.31 1055.63 1392.26 1067.58 1391.92 1078.84C1391.92 1089.76 1393.45 1101.88 1396.53 1115.19L1419.57 1211.45C1420.25 1213.84 1421.27 1215.03 1422.64 1215.03C1424.34 1215.03 1425.37 1213.84 1425.71 1211.45L1484.59 975.416C1489.37 955.619 1486.3 944.867 1475.37 943.16L1469.74 942.136C1464.62 941.112 1462.06 938.893 1462.06 935.48C1462.06 932.067 1464.45 930.36 1469.23 930.36H1526.57C1532.38 930.36 1535.28 932.237 1535.28 935.992C1535.28 939.405 1532.38 941.453 1526.57 942.136L1520.94 942.648C1516.5 942.989 1512.58 945.72 1509.17 950.84C1506.09 955.619 1503.19 963.981 1500.46 975.928L1421.1 1295.93C1420.42 1299.34 1419.4 1301.56 1418.03 1302.58C1416.66 1303.61 1415.3 1304.12 1413.93 1304.12Z" fill="#00FF66"/>
<path d="M1269.41 1250.32C1269.49 1250.63 1269.42 1250.82 1269.19 1250.88C1269 1250.92 1268.85 1250.82 1268.72 1250.57L1268.41 1249.89C1268.22 1249.47 1268.03 1249.22 1267.86 1249.13C1267.67 1249.03 1267.37 1249.03 1266.93 1249.14L1248.7 1253.78C1248.26 1253.89 1247.99 1254.04 1247.88 1254.22C1247.77 1254.38 1247.73 1254.69 1247.76 1255.14L1247.81 1255.89C1247.82 1256.17 1247.73 1256.34 1247.54 1256.38C1247.32 1256.44 1247.16 1256.32 1247.08 1256.01L1244.54 1246.02C1244.42 1245.54 1244.59 1245.23 1245.06 1245.06L1250.14 1243.51C1250.48 1243.37 1250.69 1243.46 1250.77 1243.77C1250.84 1244.02 1250.74 1244.2 1250.48 1244.31L1249.5 1244.73C1248.46 1245.17 1247.7 1245.67 1247.21 1246.23C1246.71 1246.8 1246.41 1247.37 1246.29 1247.95C1246.15 1248.54 1246.14 1249.07 1246.27 1249.54C1246.5 1250.45 1246.8 1251.04 1247.17 1251.29C1247.55 1251.55 1248.03 1251.6 1248.63 1251.45L1255.95 1249.59C1256.24 1249.52 1256.35 1249.33 1256.28 1249.04L1256 1247.96C1255.77 1247.05 1255.14 1246.61 1254.12 1246.66L1252.48 1246.71C1252.19 1246.72 1252.02 1246.59 1251.96 1246.35C1251.89 1246.1 1252.04 1245.93 1252.39 1245.84L1259.37 1244.06C1259.72 1243.97 1259.93 1244.05 1259.99 1244.3C1260.05 1244.55 1259.96 1244.74 1259.7 1244.87L1258.27 1245.6C1257.58 1245.93 1257.16 1246.25 1257 1246.58C1256.84 1246.89 1256.82 1247.28 1256.94 1247.75L1257.21 1248.81C1257.28 1249.1 1257.46 1249.2 1257.75 1249.13L1266.22 1246.98C1266.65 1246.87 1266.95 1246.72 1267.1 1246.55C1267.23 1246.37 1267.27 1246.05 1267.22 1245.6L1267.07 1244.09C1267.05 1243.85 1267.13 1243.71 1267.32 1243.66C1267.57 1243.59 1267.73 1243.72 1267.81 1244.03L1269.41 1250.32ZM1263.19 1224.69C1263.64 1226.49 1262.76 1227.94 1260.53 1229.03L1257.27 1230.62C1256.21 1231.14 1255.43 1231.61 1254.92 1232.05C1254.41 1232.46 1254.12 1232.95 1254.03 1233.49C1253.95 1234.02 1254.01 1234.71 1254.23 1235.56C1254.3 1235.85 1254.44 1236.05 1254.65 1236.18C1254.84 1236.31 1255.05 1236.34 1255.27 1236.28L1263.03 1234.31C1263.46 1234.2 1263.74 1234.04 1263.86 1233.83C1263.96 1233.63 1263.99 1233.23 1263.95 1232.62L1263.84 1231.43C1263.83 1231.19 1263.91 1231.05 1264.1 1231C1264.35 1230.94 1264.51 1231.06 1264.59 1231.37L1266.19 1237.66C1266.27 1237.97 1266.2 1238.16 1265.97 1238.22C1265.78 1238.26 1265.62 1238.16 1265.49 1237.91L1265.19 1237.23C1264.99 1236.81 1264.81 1236.56 1264.63 1236.48C1264.45 1236.37 1264.14 1236.37 1263.71 1236.48L1245.48 1241.12C1245.04 1241.23 1244.77 1241.38 1244.66 1241.56C1244.55 1241.72 1244.51 1242.03 1244.53 1242.48L1244.59 1243.23C1244.6 1243.51 1244.51 1243.68 1244.32 1243.73C1244.09 1243.78 1243.94 1243.66 1243.86 1243.35L1242.26 1237.05C1241.95 1235.83 1241.91 1234.69 1242.15 1233.61C1242.38 1232.54 1242.85 1231.63 1243.56 1230.88C1244.25 1230.13 1245.14 1229.61 1246.24 1229.34C1247.54 1229 1248.82 1229.1 1250.08 1229.61C1251.31 1230.14 1252.3 1230.94 1253.04 1232.03C1253.11 1232.17 1253.21 1232.23 1253.32 1232.22C1253.4 1232.2 1253.45 1232.11 1253.48 1231.95C1253.62 1231.21 1253.92 1230.58 1254.39 1230.07C1254.84 1229.53 1255.51 1229.05 1256.39 1228.6L1259.38 1227.11C1260.4 1226.61 1261.09 1226.15 1261.47 1225.72C1261.84 1225.3 1261.97 1224.85 1261.85 1224.37C1261.81 1224.21 1261.75 1224.07 1261.68 1223.95C1261.58 1223.83 1261.43 1223.68 1261.23 1223.51C1261.09 1223.37 1261.03 1223.22 1261.05 1223.06C1261.06 1222.9 1261.14 1222.8 1261.31 1222.76C1261.66 1222.67 1262.03 1222.82 1262.41 1223.21C1262.78 1223.6 1263.03 1224.09 1263.19 1224.69ZM1253.16 1234.61C1252.8 1233.2 1252.07 1232.26 1250.95 1231.77C1249.82 1231.29 1248.47 1231.25 1246.89 1231.65C1245.36 1232.04 1244.28 1232.76 1243.65 1233.83C1242.99 1234.87 1242.85 1236.13 1243.23 1237.6C1243.5 1238.69 1244.06 1239.14 1244.88 1238.93L1251.99 1237.12C1253.12 1236.83 1253.52 1235.99 1253.16 1234.61ZM1260.75 1215.13C1261.01 1216.12 1260.95 1217.13 1260.6 1218.14C1260.22 1219.17 1259.6 1220.14 1258.73 1221.06C1257.86 1221.97 1256.78 1222.78 1255.49 1223.51C1254.17 1224.22 1252.71 1224.78 1251.09 1225.19C1249.48 1225.6 1247.94 1225.8 1246.46 1225.8C1244.98 1225.78 1243.65 1225.58 1242.45 1225.21C1241.23 1224.81 1240.21 1224.26 1239.41 1223.54C1238.62 1222.81 1238.09 1221.96 1237.84 1220.97C1237.58 1219.97 1237.64 1218.98 1238 1217.98C1238.36 1216.97 1238.98 1216 1239.87 1215.07C1240.73 1214.14 1241.81 1213.33 1243.11 1212.62C1244.4 1211.9 1245.85 1211.33 1247.46 1210.92C1249.08 1210.51 1250.63 1210.31 1252.13 1210.33C1253.61 1210.32 1254.95 1210.52 1256.15 1210.92C1257.35 1211.32 1258.36 1211.88 1259.18 1212.59C1259.98 1213.29 1260.5 1214.14 1260.75 1215.13ZM1259.92 1215.35C1259.54 1213.88 1258.37 1212.95 1256.4 1212.57C1254.44 1212.19 1251.66 1212.46 1248.09 1213.37C1244.51 1214.28 1241.96 1215.37 1240.43 1216.64C1238.89 1217.91 1238.3 1219.28 1238.67 1220.75C1239.04 1222.2 1240.21 1223.12 1242.19 1223.52C1244.13 1223.91 1246.89 1223.65 1250.47 1222.74C1254.05 1221.83 1256.61 1220.73 1258.16 1219.46C1259.7 1218.16 1260.28 1216.79 1259.92 1215.35ZM1255.3 1193.7C1255.38 1194.03 1255.21 1194.37 1254.77 1194.72L1238.67 1207.77C1238.54 1207.87 1238.5 1207.97 1238.55 1208.06C1238.59 1208.14 1238.69 1208.16 1238.86 1208.12L1254.8 1204.06C1255.38 1203.91 1255.8 1203.71 1256.06 1203.44C1256.3 1203.16 1256.39 1202.75 1256.34 1202.21L1256.3 1201.8C1256.25 1201.52 1256.34 1201.36 1256.57 1201.3C1256.8 1201.24 1256.95 1201.37 1257.03 1201.68L1258.16 1206.11C1258.24 1206.42 1258.16 1206.6 1257.94 1206.66C1257.71 1206.72 1257.55 1206.62 1257.46 1206.35L1257.3 1205.97C1257.08 1205.45 1256.8 1205.13 1256.46 1204.99C1256.09 1204.86 1255.62 1204.87 1255.04 1205.02L1237.43 1209.5C1236.99 1209.61 1236.72 1209.76 1236.62 1209.94C1236.5 1210.1 1236.47 1210.43 1236.5 1210.93L1236.56 1211.67C1236.57 1211.96 1236.48 1212.12 1236.29 1212.17C1236.06 1212.23 1235.91 1212.1 1235.83 1211.79L1234.99 1208.47C1234.86 1207.96 1234.99 1207.54 1235.39 1207.22L1249.63 1195.8C1249.73 1195.71 1249.77 1195.62 1249.73 1195.54C1249.68 1195.45 1249.59 1195.41 1249.47 1195.44L1235.42 1199.02C1234.76 1199.19 1234.33 1199.42 1234.14 1199.71C1233.93 1200 1233.84 1200.34 1233.87 1200.7L1233.92 1201.28C1233.92 1201.57 1233.83 1201.74 1233.65 1201.78C1233.42 1201.84 1233.27 1201.71 1233.19 1201.4L1232.06 1196.97C1231.98 1196.66 1232.05 1196.48 1232.28 1196.42C1232.51 1196.36 1232.67 1196.46 1232.76 1196.73L1232.92 1197.11C1233.14 1197.63 1233.41 1197.96 1233.73 1198.1C1234.03 1198.24 1234.51 1198.23 1235.18 1198.06L1254.12 1193.24C1254.5 1193.14 1254.77 1193.15 1254.95 1193.26C1255.13 1193.34 1255.25 1193.49 1255.3 1193.7ZM1253.21 1186.66C1253.29 1186.97 1253.22 1187.16 1252.99 1187.22C1252.76 1187.27 1252.6 1187.17 1252.51 1186.91L1251.94 1185.57C1251.77 1185.17 1251.6 1184.92 1251.42 1184.81C1251.22 1184.71 1250.9 1184.71 1250.46 1184.82L1231.86 1189.56C1231.57 1189.63 1231.38 1189.75 1231.28 1189.9C1231.19 1190.06 1231.2 1190.33 1231.3 1190.72C1231.49 1191.49 1232.01 1192.16 1232.86 1192.73C1233.71 1193.31 1234.9 1193.53 1236.43 1193.38L1237.49 1193.27C1237.77 1193.25 1237.94 1193.36 1238.01 1193.61C1238.08 1193.92 1237.94 1194.09 1237.58 1194.14L1231.9 1195.29C1231.41 1195.37 1231.13 1195.25 1231.04 1194.92C1231 1194.77 1231.01 1194.63 1231.06 1194.48C1231.09 1194.34 1231.11 1194.12 1231.12 1193.81C1231.13 1193.47 1231.04 1192.98 1230.88 1192.32L1229.12 1185.4C1228.95 1184.74 1228.78 1184.27 1228.63 1184.01C1228.47 1183.72 1228.34 1183.52 1228.25 1183.41C1228.13 1183.29 1228.05 1183.16 1228.02 1183.04C1227.93 1182.71 1228.12 1182.46 1228.59 1182.3L1234.13 1180.59C1234.47 1180.46 1234.68 1180.55 1234.76 1180.86C1234.82 1181.11 1234.73 1181.29 1234.47 1181.4L1233.49 1181.81C1232.07 1182.39 1231.13 1183.14 1230.65 1184.05C1230.18 1184.96 1230.05 1185.81 1230.25 1186.6C1230.35 1186.99 1230.47 1187.23 1230.63 1187.33C1230.78 1187.42 1231.01 1187.43 1231.3 1187.36L1249.9 1182.62C1250.34 1182.51 1250.62 1182.36 1250.75 1182.17C1250.85 1181.97 1250.88 1181.67 1250.84 1181.26L1250.71 1179.81C1250.66 1179.53 1250.75 1179.37 1250.98 1179.31C1251.2 1179.25 1251.36 1179.38 1251.44 1179.69L1253.21 1186.66ZM1250.24 1174.98C1250.32 1175.29 1250.24 1175.47 1250.01 1175.53C1249.83 1175.57 1249.67 1175.47 1249.54 1175.22L1249.23 1174.54C1249.04 1174.12 1248.86 1173.87 1248.68 1173.79C1248.5 1173.68 1248.19 1173.68 1247.76 1173.79L1229.52 1178.43C1229.09 1178.54 1228.82 1178.69 1228.71 1178.87C1228.59 1179.03 1228.55 1179.34 1228.58 1179.79L1228.64 1180.54C1228.64 1180.82 1228.55 1180.99 1228.37 1181.04C1228.14 1181.09 1227.99 1180.97 1227.91 1180.66L1225.26 1170.24C1225.14 1169.76 1225.31 1169.44 1225.77 1169.28L1230.86 1167.72C1231.2 1167.59 1231.41 1167.68 1231.49 1167.99C1231.55 1168.24 1231.45 1168.42 1231.19 1168.53L1230.09 1169.01C1228.75 1169.59 1227.84 1170.32 1227.38 1171.18C1226.9 1172.06 1226.81 1173.11 1227.13 1174.35C1227.34 1175.18 1227.61 1175.73 1227.94 1175.99C1228.25 1176.25 1228.7 1176.3 1229.3 1176.14L1236.78 1174.24C1237.06 1174.17 1237.17 1173.99 1237.1 1173.7L1236.7 1172.15C1236.47 1171.24 1235.84 1170.8 1234.82 1170.84L1233.19 1170.93C1232.86 1170.92 1232.68 1170.78 1232.65 1170.5C1232.64 1170.26 1232.78 1170.11 1233.09 1170.03L1240.07 1168.25C1240.38 1168.17 1240.59 1168.24 1240.69 1168.46C1240.8 1168.72 1240.71 1168.93 1240.42 1169.09L1238.98 1169.78C1238.29 1170.11 1237.87 1170.44 1237.71 1170.77C1237.54 1171.07 1237.52 1171.46 1237.64 1171.94L1238.03 1173.46C1238.1 1173.75 1238.28 1173.86 1238.57 1173.78L1246.36 1171.8C1247.1 1171.61 1247.59 1171.29 1247.83 1170.83C1248.06 1170.36 1248.05 1169.61 1247.79 1168.6C1247.52 1167.56 1247.04 1166.75 1246.34 1166.16C1245.61 1165.55 1244.49 1165.29 1242.97 1165.37L1241.05 1165.46C1240.76 1165.47 1240.59 1165.35 1240.52 1165.1C1240.45 1164.81 1240.59 1164.64 1240.96 1164.59L1246.56 1163.5C1247.04 1163.42 1247.34 1163.61 1247.47 1164.09L1250.24 1174.98ZM1243.82 1148.6C1243.91 1148.93 1243.73 1149.28 1243.29 1149.63L1227.19 1162.67C1227.07 1162.77 1227.02 1162.87 1227.07 1162.97C1227.11 1163.05 1227.22 1163.07 1227.38 1163.02L1243.32 1158.97C1243.9 1158.82 1244.32 1158.61 1244.58 1158.35C1244.82 1158.07 1244.92 1157.66 1244.87 1157.12L1244.83 1156.7C1244.78 1156.43 1244.87 1156.26 1245.1 1156.2C1245.32 1156.15 1245.48 1156.27 1245.56 1156.58L1246.68 1161.02C1246.76 1161.33 1246.69 1161.51 1246.46 1161.57C1246.23 1161.63 1246.08 1161.52 1245.99 1161.26L1245.82 1160.87C1245.6 1160.36 1245.32 1160.03 1244.98 1159.9C1244.62 1159.77 1244.15 1159.78 1243.57 1159.93L1225.95 1164.41C1225.52 1164.52 1225.25 1164.67 1225.14 1164.85C1225.03 1165.01 1224.99 1165.34 1225.03 1165.83L1225.08 1166.58C1225.09 1166.86 1225 1167.03 1224.81 1167.08C1224.59 1167.14 1224.43 1167.01 1224.36 1166.7L1223.51 1163.38C1223.38 1162.86 1223.51 1162.44 1223.92 1162.12L1238.15 1150.71C1238.26 1150.61 1238.29 1150.53 1238.25 1150.45C1238.2 1150.35 1238.12 1150.32 1237.99 1150.35L1223.94 1153.93C1223.28 1154.09 1222.86 1154.32 1222.67 1154.61C1222.46 1154.91 1222.36 1155.24 1222.39 1155.61L1222.44 1156.19C1222.45 1156.48 1222.36 1156.64 1222.17 1156.69C1221.94 1156.75 1221.79 1156.62 1221.71 1156.31L1220.58 1151.88C1220.5 1151.57 1220.58 1151.38 1220.81 1151.32C1221.03 1151.27 1221.19 1151.37 1221.28 1151.63L1221.44 1152.02C1221.66 1152.54 1221.93 1152.86 1222.26 1153C1222.56 1153.15 1223.04 1153.13 1223.7 1152.96L1242.65 1148.14C1243.02 1148.05 1243.3 1148.05 1243.48 1148.16C1243.65 1148.25 1243.77 1148.4 1243.82 1148.6ZM1242.4 1144.18C1242.48 1144.49 1242.4 1144.67 1242.17 1144.73C1241.99 1144.78 1241.83 1144.67 1241.7 1144.42L1241.39 1143.74C1241.09 1143.07 1240.6 1142.82 1239.92 1142.99L1221.68 1147.63C1221.25 1147.74 1220.98 1147.89 1220.87 1148.07C1220.76 1148.23 1220.71 1148.54 1220.74 1148.99L1220.8 1149.74C1220.8 1150.02 1220.72 1150.19 1220.53 1150.24C1220.3 1150.29 1220.15 1150.17 1220.07 1149.86L1218.48 1143.59C1218.06 1141.98 1218.19 1140.47 1218.84 1139.04C1219.47 1137.63 1220.55 1136.39 1222.08 1135.31C1223.61 1134.24 1225.49 1133.42 1227.73 1132.85C1229.98 1132.28 1232.02 1132.12 1233.85 1132.38C1235.67 1132.62 1237.19 1133.24 1238.41 1134.23C1239.63 1135.22 1240.46 1136.55 1240.88 1138.22L1242.4 1144.18ZM1240.04 1138.3C1239.58 1136.46 1238.34 1135.29 1236.34 1134.79C1234.34 1134.26 1231.67 1134.42 1228.34 1135.27C1225.04 1136.11 1222.59 1137.23 1221.01 1138.62C1219.4 1140 1218.82 1141.59 1219.28 1143.39C1219.68 1144.96 1220.64 1145.55 1222.15 1145.17L1238.33 1141.05C1239.16 1140.84 1239.71 1140.52 1239.97 1140.1C1240.22 1139.67 1240.24 1139.07 1240.04 1138.3ZM1234.04 1110.04C1234.06 1110.12 1234.05 1110.21 1234.01 1110.31C1233.97 1110.41 1233.85 1110.51 1233.65 1110.6L1224.65 1115.44C1224.49 1115.5 1224.43 1115.58 1224.48 1115.68C1224.51 1115.78 1224.6 1115.83 1224.75 1115.84L1235.04 1116.06C1235.27 1116.07 1235.42 1116.11 1235.5 1116.17C1235.58 1116.22 1235.63 1116.28 1235.65 1116.37C1235.67 1116.45 1235.66 1116.55 1235.63 1116.67C1235.59 1116.77 1235.47 1116.86 1235.27 1116.96L1216.86 1126.86C1216.32 1127.15 1215.96 1127.42 1215.78 1127.67C1215.59 1127.89 1215.51 1128.22 1215.53 1128.65L1215.56 1129.14C1215.57 1129.45 1215.47 1129.63 1215.26 1129.68C1215.06 1129.73 1214.91 1129.6 1214.84 1129.29L1213.56 1124.3C1213.49 1124.01 1213.57 1123.84 1213.8 1123.78C1213.98 1123.73 1214.14 1123.85 1214.29 1124.15L1214.43 1124.47C1214.59 1124.81 1214.77 1125.01 1214.98 1125.06C1215.17 1125.1 1215.47 1125.01 1215.9 1124.79L1230.1 1117.28C1230.24 1117.2 1230.3 1117.12 1230.27 1117.04C1230.25 1116.94 1230.16 1116.88 1230 1116.88L1224.59 1116.77C1223.75 1116.74 1223 1116.81 1222.33 1116.98C1221.67 1117.15 1220.97 1117.44 1220.21 1117.85L1215.24 1120.5C1214.7 1120.8 1214.32 1121.05 1214.11 1121.25C1213.89 1121.44 1213.79 1121.65 1213.81 1121.89L1213.84 1122.38C1213.85 1122.69 1213.75 1122.87 1213.54 1122.92C1213.34 1122.97 1213.19 1122.84 1213.11 1122.53L1212.03 1118.28C1211.96 1117.99 1212.04 1117.82 1212.26 1117.76C1212.45 1117.71 1212.61 1117.84 1212.75 1118.13L1212.9 1118.46C1213.01 1118.72 1213.17 1118.85 1213.37 1118.87C1213.57 1118.86 1213.88 1118.75 1214.31 1118.53L1218.47 1116.35C1218.61 1116.27 1218.67 1116.19 1218.64 1116.11C1218.62 1116 1218.53 1115.95 1218.37 1115.94L1214.3 1115.79C1213.46 1115.76 1212.92 1115.81 1212.69 1115.94C1212.45 1116.04 1212.35 1116.19 1212.37 1116.38L1212.4 1116.74C1212.42 1117.06 1212.33 1117.25 1212.15 1117.3C1211.92 1117.35 1211.77 1117.24 1211.69 1116.95L1210.94 1114C1210.85 1113.65 1210.92 1113.45 1211.15 1113.39C1211.36 1113.34 1211.53 1113.48 1211.66 1113.82L1211.78 1114.16C1211.86 1114.42 1212.09 1114.6 1212.45 1114.71C1212.8 1114.8 1213.35 1114.85 1214.11 1114.88L1218.47 1115.03C1219.29 1115.06 1220.05 1115 1220.73 1114.85C1221.4 1114.68 1222.11 1114.4 1222.87 1114.01L1228.34 1111.13C1228.47 1111.05 1228.53 1110.97 1228.51 1110.89C1228.48 1110.78 1228.4 1110.74 1228.25 1110.76L1213.04 1110.83C1211.77 1110.84 1211.17 1111.2 1211.23 1111.88L1211.25 1112.24C1211.27 1112.57 1211.18 1112.76 1210.97 1112.81C1210.76 1112.86 1210.62 1112.74 1210.55 1112.45L1209.67 1108.98C1209.58 1108.63 1209.65 1108.42 1209.87 1108.37C1210.08 1108.31 1210.25 1108.46 1210.38 1108.8L1210.5 1109.13C1210.59 1109.39 1210.81 1109.59 1211.17 1109.72C1211.51 1109.83 1212.06 1109.88 1212.83 1109.86L1233.43 1109.73C1233.65 1109.72 1233.8 1109.75 1233.88 1109.82C1233.97 1109.88 1234.02 1109.96 1234.04 1110.04ZM1231.85 1102.75C1231.93 1103.06 1231.86 1103.24 1231.63 1103.3C1231.44 1103.35 1231.29 1103.24 1231.16 1102.99L1230.85 1102.31C1230.66 1101.9 1230.47 1101.65 1230.3 1101.56C1230.11 1101.45 1229.81 1101.45 1229.37 1101.56L1211.14 1106.2C1210.7 1106.31 1210.43 1106.46 1210.33 1106.64C1210.21 1106.8 1210.17 1107.11 1210.2 1107.57L1210.25 1108.31C1210.26 1108.59 1210.17 1108.76 1209.98 1108.81C1209.76 1108.87 1209.6 1108.74 1209.53 1108.43L1206.87 1098.01C1206.75 1097.53 1206.92 1097.22 1207.39 1097.05L1212.47 1095.49C1212.82 1095.36 1213.03 1095.45 1213.1 1095.76C1213.17 1096.01 1213.07 1096.19 1212.81 1096.3L1211.71 1096.78C1210.36 1097.36 1209.46 1098.09 1209 1098.96C1208.51 1099.83 1208.43 1100.88 1208.75 1102.12C1208.96 1102.95 1209.23 1103.5 1209.56 1103.76C1209.87 1104.02 1210.32 1104.07 1210.92 1103.91L1218.39 1102.01C1218.68 1101.94 1218.79 1101.76 1218.72 1101.47L1218.32 1099.92C1218.09 1099.01 1217.46 1098.57 1216.44 1098.61L1214.81 1098.7C1214.48 1098.69 1214.3 1098.55 1214.27 1098.27C1214.25 1098.04 1214.4 1097.88 1214.71 1097.8L1221.69 1096.02C1222 1095.94 1222.2 1096.01 1222.3 1096.23C1222.41 1096.49 1222.32 1096.7 1222.03 1096.86L1220.59 1097.56C1219.91 1097.88 1219.48 1098.21 1219.32 1098.54C1219.16 1098.84 1219.14 1099.24 1219.26 1099.71L1219.65 1101.23C1219.72 1101.52 1219.9 1101.63 1220.19 1101.55L1227.98 1099.57C1228.72 1099.38 1229.21 1099.06 1229.45 1098.6C1229.68 1098.13 1229.66 1097.38 1229.41 1096.37C1229.14 1095.34 1228.66 1094.52 1227.96 1093.93C1227.23 1093.32 1226.11 1093.06 1224.59 1093.14L1222.66 1093.23C1222.38 1093.24 1222.2 1093.12 1222.14 1092.87C1222.07 1092.58 1222.21 1092.41 1222.57 1092.36L1228.17 1091.27C1228.66 1091.19 1228.96 1091.39 1229.08 1091.86L1231.85 1102.75ZM1228.28 1088.69C1228.36 1089 1228.28 1089.19 1228.05 1089.25C1227.87 1089.29 1227.71 1089.19 1227.58 1088.94L1227.27 1088.26C1227.08 1087.84 1226.9 1087.59 1226.72 1087.51C1226.54 1087.4 1226.23 1087.4 1225.8 1087.51L1207.56 1092.15C1207.13 1092.26 1206.86 1092.41 1206.75 1092.59C1206.64 1092.75 1206.59 1093.06 1206.62 1093.51L1206.68 1094.26C1206.68 1094.54 1206.59 1094.71 1206.41 1094.76C1206.18 1094.81 1206.03 1094.69 1205.95 1094.38L1204.35 1088.08C1204.08 1087.05 1204.07 1086.07 1204.3 1085.16C1204.52 1084.24 1204.95 1083.46 1205.58 1082.81C1206.21 1082.15 1206.99 1081.7 1207.94 1081.45C1208.87 1081.22 1209.81 1081.28 1210.76 1081.63C1211.68 1081.97 1212.55 1082.58 1213.35 1083.48C1213.44 1083.59 1213.54 1083.63 1213.64 1083.6C1213.74 1083.58 1213.8 1083.49 1213.8 1083.33C1213.92 1081.8 1214.41 1080.52 1215.27 1079.49C1216.11 1078.46 1217.24 1077.77 1218.67 1077.4C1219.89 1077.09 1221.05 1077.09 1222.17 1077.4C1223.26 1077.72 1224.2 1078.31 1224.99 1079.16C1225.78 1080 1226.33 1081.03 1226.64 1082.28L1228.28 1088.69ZM1214.12 1086.39C1213.84 1085.29 1213.18 1084.49 1212.15 1083.98C1211.1 1083.46 1209.93 1083.36 1208.64 1083.69C1207.36 1084.01 1206.42 1084.63 1205.81 1085.53C1205.18 1086.44 1205.02 1087.47 1205.31 1088.63C1205.59 1089.72 1206.14 1090.17 1206.97 1089.96L1212.83 1088.47C1213.43 1088.31 1213.83 1088.08 1214.04 1087.76C1214.24 1087.42 1214.27 1086.97 1214.12 1086.39ZM1225.97 1082.88C1225.63 1081.53 1224.84 1080.57 1223.61 1079.98C1222.37 1079.39 1220.88 1079.32 1219.17 1079.75C1217.45 1080.19 1216.21 1080.97 1215.44 1082.09C1214.66 1083.19 1214.45 1084.46 1214.82 1085.91C1215.15 1087.19 1215.82 1087.7 1216.83 1087.45L1224.37 1085.53C1225.79 1085.17 1226.33 1084.28 1225.97 1082.88ZM1223.6 1069.16C1223.71 1069.58 1223.79 1070.05 1223.83 1070.59C1223.88 1071.11 1223.9 1071.61 1223.89 1072.1C1223.87 1072.56 1223.83 1072.94 1223.74 1073.22C1223.7 1073.39 1223.65 1073.52 1223.58 1073.63C1223.5 1073.71 1223.34 1073.79 1223.11 1073.84L1218.28 1075.24C1217.87 1075.34 1217.63 1075.26 1217.56 1074.99C1217.5 1074.77 1217.65 1074.56 1218 1074.39L1219.11 1073.81C1221.88 1072.35 1223.03 1070.66 1222.54 1068.74C1222.28 1067.71 1221.73 1066.98 1220.89 1066.55C1220.03 1066.11 1218.97 1066.05 1217.71 1066.37C1216.49 1066.68 1215.43 1067.29 1214.54 1068.2C1213.65 1069.09 1212.86 1070.36 1212.18 1072.01C1211.47 1073.81 1210.7 1075.2 1209.86 1076.16C1209.01 1077.13 1208 1077.76 1206.85 1078.05C1205.32 1078.44 1203.96 1078.22 1202.78 1077.4C1201.58 1076.56 1200.77 1075.32 1200.35 1073.66C1200.19 1073.04 1200.11 1072.42 1200.11 1071.81C1200.1 1071.19 1200.19 1070.66 1200.36 1070.22C1200.41 1070.08 1200.48 1069.96 1200.57 1069.87C1200.65 1069.76 1200.78 1069.69 1200.94 1069.65L1205.6 1068.36C1205.95 1068.27 1206.16 1068.36 1206.23 1068.63C1206.28 1068.82 1206.17 1068.99 1205.9 1069.14L1205.18 1069.56C1203.7 1070.42 1202.67 1071.19 1202.07 1071.87C1201.45 1072.53 1201.25 1073.32 1201.48 1074.23C1201.71 1075.12 1202.18 1075.76 1202.9 1076.15C1203.61 1076.52 1204.49 1076.57 1205.54 1076.3C1206.43 1076.08 1207.21 1075.57 1207.86 1074.79C1208.52 1074 1209.25 1072.74 1210.04 1071C1210.9 1069.13 1211.84 1067.69 1212.84 1066.69C1213.81 1065.67 1214.96 1064.99 1216.28 1064.65C1217.44 1064.36 1218.52 1064.36 1219.52 1064.66C1220.52 1064.95 1221.38 1065.49 1222.11 1066.27C1222.81 1067.04 1223.31 1068.01 1223.6 1069.16ZM1221.34 1061.44C1221.42 1061.75 1221.35 1061.93 1221.12 1061.99C1220.93 1062.04 1220.77 1061.94 1220.64 1061.68L1220.34 1061C1220.14 1060.59 1219.96 1060.34 1219.78 1060.25C1219.6 1060.14 1219.29 1060.14 1218.86 1060.25L1200.62 1064.89C1200.19 1065.01 1199.92 1065.15 1199.81 1065.33C1199.7 1065.49 1199.66 1065.8 1199.68 1066.26L1199.74 1067C1199.75 1067.29 1199.66 1067.45 1199.47 1067.5C1199.24 1067.56 1199.09 1067.43 1199.01 1067.12L1197.58 1061.51C1197.5 1061.2 1197.58 1061.01 1197.81 1060.96C1197.99 1060.91 1198.15 1061.01 1198.28 1061.26L1198.59 1061.95C1198.78 1062.36 1198.97 1062.62 1199.15 1062.73C1199.33 1062.82 1199.63 1062.8 1200.06 1062.69L1218.3 1058.05C1218.73 1057.94 1219.01 1057.81 1219.12 1057.65C1219.23 1057.46 1219.27 1057.15 1219.24 1056.69L1219.18 1055.95C1219.18 1055.66 1219.27 1055.49 1219.45 1055.45C1219.68 1055.39 1219.83 1055.52 1219.91 1055.83L1221.34 1061.44ZM1218.71 1051.11C1218.79 1051.42 1218.72 1051.61 1218.49 1051.66C1218.26 1051.72 1218.1 1051.62 1218.01 1051.35L1217.44 1050.01C1217.28 1049.62 1217.1 1049.36 1216.92 1049.26C1216.72 1049.15 1216.4 1049.16 1215.96 1049.27L1197.36 1054C1197.07 1054.08 1196.88 1054.19 1196.78 1054.35C1196.69 1054.5 1196.7 1054.78 1196.8 1055.17C1196.99 1055.93 1197.51 1056.61 1198.36 1057.18C1199.22 1057.76 1200.4 1057.97 1201.93 1057.83L1202.99 1057.72C1203.27 1057.69 1203.44 1057.8 1203.51 1058.05C1203.59 1058.36 1203.44 1058.54 1203.08 1058.59L1197.4 1059.74C1196.91 1059.82 1196.63 1059.69 1196.54 1059.36C1196.51 1059.22 1196.51 1059.07 1196.56 1058.93C1196.59 1058.79 1196.61 1058.56 1196.62 1058.25C1196.63 1057.92 1196.54 1057.42 1196.38 1056.76L1194.62 1049.85C1194.45 1049.19 1194.29 1048.72 1194.13 1048.45C1193.97 1048.16 1193.84 1047.96 1193.75 1047.86C1193.63 1047.73 1193.55 1047.61 1193.52 1047.48C1193.44 1047.15 1193.63 1046.91 1194.09 1046.74L1199.63 1045.04C1199.97 1044.91 1200.18 1045 1200.26 1045.31C1200.33 1045.55 1200.23 1045.73 1199.97 1045.84L1198.99 1046.26C1197.57 1046.84 1196.63 1047.59 1196.15 1048.5C1195.68 1049.41 1195.55 1050.26 1195.75 1051.05C1195.85 1051.44 1195.97 1051.68 1196.13 1051.77C1196.29 1051.87 1196.51 1051.88 1196.8 1051.8L1215.4 1047.07C1215.84 1046.96 1216.12 1046.81 1216.25 1046.62C1216.35 1046.42 1216.38 1046.11 1216.35 1045.7L1216.21 1044.25C1216.16 1043.98 1216.25 1043.81 1216.48 1043.76C1216.7 1043.7 1216.86 1043.82 1216.94 1044.13L1218.71 1051.11ZM1215.74 1039.42C1215.82 1039.73 1215.74 1039.92 1215.51 1039.97C1215.33 1040.02 1215.17 1039.92 1215.04 1039.67L1214.73 1038.98C1214.54 1038.57 1214.36 1038.32 1214.18 1038.23C1214 1038.13 1213.69 1038.13 1213.26 1038.24L1195.02 1042.88C1194.59 1042.99 1194.32 1043.13 1194.21 1043.32C1194.1 1043.48 1194.05 1043.78 1194.08 1044.24L1194.14 1044.98C1194.14 1045.27 1194.05 1045.44 1193.87 1045.48C1193.64 1045.54 1193.49 1045.41 1193.41 1045.1L1190.76 1034.68C1190.64 1034.21 1190.81 1033.89 1191.27 1033.73L1196.36 1032.17C1196.7 1032.04 1196.91 1032.13 1196.99 1032.44C1197.05 1032.69 1196.95 1032.87 1196.69 1032.98L1195.59 1033.45C1194.25 1034.04 1193.34 1034.76 1192.88 1035.63C1192.4 1036.5 1192.31 1037.56 1192.63 1038.8C1192.84 1039.62 1193.11 1040.17 1193.44 1040.44C1193.75 1040.69 1194.2 1040.74 1194.8 1040.59L1202.28 1038.69C1202.57 1038.61 1202.67 1038.43 1202.6 1038.14L1202.21 1036.59C1201.97 1035.68 1201.35 1035.25 1200.32 1035.29L1198.69 1035.37C1198.36 1035.37 1198.18 1035.23 1198.15 1034.95C1198.14 1034.71 1198.28 1034.55 1198.59 1034.47L1205.57 1032.7C1205.88 1032.62 1206.09 1032.69 1206.19 1032.9C1206.3 1033.16 1206.21 1033.37 1205.92 1033.53L1204.48 1034.23C1203.79 1034.56 1203.37 1034.89 1203.21 1035.21C1203.04 1035.52 1203.02 1035.91 1203.14 1036.39L1203.53 1037.91C1203.6 1038.2 1203.79 1038.3 1204.07 1038.23L1211.86 1036.25C1212.6 1036.06 1213.09 1035.74 1213.33 1035.28C1213.56 1034.8 1213.55 1034.06 1213.29 1033.04C1213.03 1032.01 1212.54 1031.2 1211.84 1030.61C1211.12 1030 1209.99 1029.73 1208.47 1029.81L1206.55 1029.91C1206.26 1029.91 1206.09 1029.79 1206.02 1029.54C1205.95 1029.25 1206.1 1029.09 1206.46 1029.04L1212.06 1027.94C1212.54 1027.86 1212.85 1028.06 1212.97 1028.54L1215.74 1039.42Z" fill="black"/>
<rect opacity="0.56" x="1621.64" y="1554.19" width="858" height="254.005" rx="127.002" transform="rotate(16.1027 1621.64 1554.19)" fill="#6E56FF" stroke="black" stroke-width="32"/>
<rect x="1621.64" y="1526.19" width="858" height="254.005" rx="127.002" transform="rotate(16.1027 1621.64 1526.19)" fill="#6E56FF" stroke="white" stroke-width="32"/>
<rect x="1638.04" y="1555.91" width="810" height="206.005" rx="103.002" transform="rotate(16.1027 1638.04 1555.91)" fill="#6E56FF" stroke="black" stroke-width="16"/>
<path d="M1747.82 1740.56C1746.59 1740.2 1746.1 1739.57 1746.36 1738.67C1746.57 1737.93 1747.25 1737.6 1748.39 1737.66L1751.36 1737.98C1753.17 1738.15 1754.41 1738.02 1755.07 1737.59C1755.81 1737.18 1756.43 1736.12 1756.92 1734.39L1777.8 1662.08C1778.29 1660.36 1778.34 1659.13 1777.93 1658.39C1777.6 1657.67 1776.63 1656.9 1775 1656.08L1772.31 1654.77C1771.32 1654.22 1770.93 1653.57 1771.14 1652.83C1771.4 1651.93 1772.15 1651.66 1773.38 1652.01L1812.98 1663.45C1814.86 1663.99 1815.61 1665.23 1815.23 1667.16L1810.32 1687.86C1810.09 1689.3 1809.35 1689.84 1808.12 1689.49C1807.14 1689.2 1806.72 1688.51 1806.86 1687.39L1807.42 1683.16C1807.99 1678.7 1807.8 1675.05 1806.85 1672.2C1805.9 1669.35 1804.54 1667.14 1802.77 1665.56C1801.03 1663.9 1799.22 1662.8 1797.33 1662.26C1793.72 1661.22 1791.1 1661.08 1789.46 1661.85C1787.81 1662.62 1786.65 1664.19 1785.96 1666.57L1777.58 1695.59C1777.25 1696.74 1777.66 1697.48 1778.81 1697.81L1783.11 1699.06C1786.72 1700.1 1789.49 1698.81 1791.42 1695.19L1794.55 1689.43C1795.1 1688.44 1795.87 1688.08 1796.85 1688.37C1797.84 1688.65 1798.13 1689.49 1797.73 1690.88L1789.74 1718.55C1789.34 1719.95 1788.64 1720.5 1787.66 1720.22C1786.68 1719.93 1786.22 1719.22 1786.28 1718.09L1786.66 1711.67C1786.92 1708.64 1786.64 1706.51 1785.84 1705.3C1785.11 1704.12 1783.81 1703.25 1781.92 1702.71L1777.74 1701.5C1776.59 1701.17 1775.85 1701.58 1775.52 1702.73L1765.83 1736.3C1765.33 1738.02 1765.23 1739.32 1765.5 1740.2C1765.89 1741.02 1766.91 1741.81 1768.56 1742.55L1774.09 1745.08C1774.94 1745.5 1775.26 1746.08 1775.05 1746.82C1774.77 1747.81 1774.01 1748.12 1772.78 1747.76L1747.82 1740.56ZM1848.85 1770.93C1841.72 1768.87 1838.52 1762.88 1839.25 1752.97L1840.36 1738.5C1840.74 1733.81 1840.69 1730.15 1840.2 1727.53C1839.8 1724.92 1838.73 1722.93 1837 1721.54C1835.35 1720.18 1832.85 1719.01 1829.48 1718.04C1828.34 1717.71 1827.34 1717.77 1826.49 1718.24C1825.67 1718.63 1825.13 1719.27 1824.87 1720.17L1816 1750.91C1815.5 1752.64 1815.48 1753.92 1815.95 1754.76C1816.44 1755.53 1817.77 1756.45 1819.95 1757.52L1824.29 1759.57C1825.14 1759.99 1825.46 1760.58 1825.25 1761.31C1824.97 1762.3 1824.21 1762.61 1822.98 1762.26L1798.02 1755.05C1796.79 1754.69 1796.3 1754.07 1796.56 1753.16C1796.77 1752.43 1797.45 1752.09 1798.59 1752.15L1801.56 1752.47C1803.37 1752.64 1804.61 1752.51 1805.27 1752.08C1806.01 1751.67 1806.63 1750.61 1807.12 1748.89L1828 1676.57C1828.49 1674.85 1828.54 1673.62 1828.13 1672.88C1827.8 1672.17 1826.83 1671.4 1825.2 1670.57L1822.51 1669.26C1821.52 1668.71 1821.13 1668.06 1821.34 1667.33C1821.6 1666.42 1822.35 1666.15 1823.58 1666.51L1848.54 1673.71C1853.38 1675.11 1857.41 1677.29 1860.64 1680.27C1863.86 1683.24 1866.06 1686.72 1867.22 1690.7C1868.4 1694.59 1868.37 1698.71 1867.12 1703.06C1865.62 1708.22 1862.72 1712.44 1858.4 1715.73C1854.1 1718.93 1849.32 1720.7 1844.07 1721.05C1843.45 1721.05 1843.04 1721.24 1842.84 1721.63C1842.74 1721.95 1842.95 1722.32 1843.45 1722.74C1845.72 1724.72 1847.27 1727.04 1848.11 1729.68C1849.03 1732.34 1849.36 1735.63 1849.12 1739.56L1848.2 1752.88C1847.87 1757.41 1848.06 1760.75 1848.77 1762.91C1849.48 1765.07 1850.78 1766.42 1852.66 1766.96C1853.32 1767.15 1853.92 1767.24 1854.46 1767.21C1855.1 1767.13 1855.92 1766.92 1856.9 1766.59C1857.68 1766.37 1858.31 1766.46 1858.82 1766.87C1859.34 1767.2 1859.51 1767.7 1859.32 1768.35C1858.92 1769.75 1857.66 1770.72 1855.55 1771.26C1853.47 1771.72 1851.23 1771.61 1848.85 1770.93ZM1834.92 1716.28C1840.5 1717.89 1845.25 1717.26 1849.19 1714.4C1853.14 1711.46 1856.02 1706.87 1857.82 1700.64C1859.57 1694.57 1859.25 1689.37 1856.86 1685.04C1854.58 1680.65 1850.52 1677.62 1844.7 1675.93C1840.36 1674.68 1837.71 1675.69 1836.76 1678.97L1828.63 1707.13C1827.33 1711.64 1829.43 1714.69 1834.92 1716.28ZM1886.77 1781.87C1882.83 1780.73 1879.47 1778.52 1876.69 1775.23C1873.94 1771.86 1871.84 1767.75 1870.4 1762.89C1869.04 1758.06 1868.41 1752.68 1868.52 1746.76C1868.74 1740.78 1869.77 1734.6 1871.62 1728.2C1873.46 1721.81 1875.88 1716.07 1878.86 1710.97C1881.92 1705.91 1885.31 1701.69 1889.04 1698.33C1892.87 1694.9 1896.83 1692.54 1900.94 1691.24C1905.05 1689.94 1909.07 1689.85 1913 1690.99C1916.94 1692.13 1920.26 1694.33 1922.95 1697.59C1925.73 1700.88 1927.83 1705 1929.25 1709.93C1930.69 1714.79 1931.31 1720.17 1931.12 1726.06C1931.01 1731.98 1930.03 1738.14 1928.19 1744.53C1926.34 1750.93 1923.88 1756.7 1920.79 1761.85C1917.81 1766.94 1914.42 1771.16 1910.61 1774.5C1906.8 1777.84 1902.84 1780.2 1898.71 1781.59C1894.68 1782.91 1890.7 1783.01 1886.77 1781.87ZM1887.73 1778.55C1893.55 1780.23 1899.1 1778.06 1904.39 1772.04C1909.68 1766.02 1914.38 1755.91 1918.47 1741.73C1922.57 1727.55 1923.97 1716.54 1922.68 1708.7C1921.41 1700.79 1917.87 1695.99 1912.04 1694.31C1906.31 1692.65 1900.75 1694.82 1895.38 1700.82C1890.11 1706.76 1885.43 1716.82 1881.33 1731.01C1877.24 1745.19 1875.82 1756.24 1877.09 1764.16C1878.44 1772.09 1881.99 1776.89 1887.73 1778.55ZM1971.77 1806.41C1970.46 1806.03 1969.64 1804.73 1969.3 1802.5L1956.85 1720.57C1956.77 1719.92 1956.52 1719.58 1956.08 1719.55C1955.73 1719.53 1955.46 1719.85 1955.27 1720.51L1937.02 1783.72C1936.36 1786.02 1936.22 1787.89 1936.6 1789.33C1937.09 1790.71 1938.31 1791.87 1940.27 1792.79L1941.79 1793.49C1942.84 1793.88 1943.23 1794.53 1942.97 1795.43C1942.71 1796.33 1941.96 1796.61 1940.73 1796.25L1923.15 1791.17C1921.92 1790.82 1921.43 1790.19 1921.69 1789.29C1921.95 1788.39 1922.63 1788.05 1923.72 1788.27L1925.39 1788.49C1927.61 1788.78 1929.3 1788.47 1930.45 1787.55C1931.63 1786.56 1932.55 1784.92 1933.21 1782.62L1953.37 1712.77C1953.87 1711.05 1953.92 1709.82 1953.51 1709.08C1953.18 1708.36 1952.12 1707.57 1950.33 1706.7L1947.65 1705.39C1946.65 1704.83 1946.26 1704.19 1946.47 1703.45C1946.73 1702.55 1947.48 1702.27 1948.71 1702.63L1961.87 1706.43C1963.92 1707.02 1965.09 1708.34 1965.39 1710.38L1975.99 1782.58C1976.09 1783.14 1976.32 1783.43 1976.67 1783.44C1977.1 1783.48 1977.39 1783.25 1977.53 1782.76L1993.62 1727.05C1994.37 1724.43 1994.44 1722.49 1993.83 1721.25C1993.23 1719.92 1992.27 1718.94 1990.95 1718.29L1988.84 1717.28C1987.85 1716.73 1987.46 1716.08 1987.67 1715.34C1987.93 1714.44 1988.68 1714.17 1989.91 1714.52L2007.49 1719.6C2008.72 1719.95 2009.21 1720.58 2008.95 1721.48C2008.69 1722.39 2008.01 1722.72 2006.92 1722.5L2005.25 1722.28C2003.03 1722 2001.35 1722.27 2000.22 1723.1C1999.12 1723.84 1998.19 1725.53 1997.43 1728.15L1975.74 1803.29C1975.31 1804.77 1974.73 1805.71 1973.99 1806.12C1973.33 1806.55 1972.59 1806.65 1971.77 1806.41ZM2000.26 1813.43C1999.03 1813.08 1998.54 1812.45 1998.8 1811.55C1999.06 1810.65 1999.74 1810.31 2000.83 1810.54L2006.61 1811.27C2008.32 1811.5 2009.55 1811.41 2010.29 1811C2011.05 1810.51 2011.68 1809.4 2012.18 1807.68L2033.48 1733.9C2033.81 1732.75 2033.8 1731.86 2033.45 1731.22C2033.1 1730.59 2032.15 1730.05 2030.59 1729.6C2027.56 1728.72 2024.19 1729.17 2020.48 1730.94C2016.77 1732.71 2013.62 1736.38 2011.04 1741.94L2009.25 1745.82C2008.78 1746.84 2008.05 1747.21 2007.07 1746.92C2005.84 1746.57 2005.51 1745.72 2006.07 1744.37L2013.61 1722.43C2014.32 1720.59 2015.33 1719.86 2016.64 1720.24C2017.21 1720.41 2017.7 1720.72 2018.09 1721.19C2018.52 1721.58 2019.25 1722.11 2020.31 1722.77C2021.44 1723.45 2023.32 1724.17 2025.94 1724.93L2053.37 1732.84C2055.99 1733.6 2057.92 1733.98 2059.17 1733.98C2060.49 1734.01 2061.43 1733.97 2062 1733.87C2062.67 1733.71 2063.25 1733.7 2063.74 1733.84C2065.05 1734.22 2065.52 1735.37 2065.14 1737.31L2059.82 1759.88C2059.58 1761.33 2058.84 1761.87 2057.61 1761.51C2056.63 1761.23 2056.21 1760.53 2056.35 1759.42L2056.91 1755.18C2057.77 1749.12 2057.1 1744.36 2054.91 1740.88C2052.72 1737.41 2050.06 1735.22 2046.95 1734.32C2045.39 1733.87 2044.29 1733.82 2043.66 1734.17C2043.02 1734.52 2042.54 1735.27 2042.21 1736.42L2020.91 1810.2C2020.41 1811.93 2020.36 1813.2 2020.74 1814.02C2021.23 1814.78 2022.22 1815.51 2023.71 1816.21L2028.99 1818.67C2030.03 1819.05 2030.42 1819.7 2030.16 1820.6C2029.9 1821.5 2029.16 1821.78 2027.93 1821.42L2000.26 1813.43ZM2046.61 1826.82C2045.38 1826.46 2044.9 1825.83 2045.16 1824.93C2045.37 1824.19 2046.05 1823.86 2047.18 1823.92L2050.15 1824.24C2051.97 1824.41 2053.21 1824.28 2053.87 1823.85C2054.61 1823.44 2055.22 1822.37 2055.72 1820.65L2076.6 1748.34C2077.09 1746.62 2077.14 1745.39 2076.73 1744.65C2076.4 1743.93 2075.43 1743.16 2073.8 1742.34L2071.11 1741.03C2070.12 1740.48 2069.73 1739.83 2069.94 1739.09C2070.2 1738.19 2070.95 1737.92 2072.18 1738.27L2113.5 1750.2C2115.38 1750.75 2116.13 1751.98 2115.75 1753.92L2110.84 1774.62C2110.61 1776.06 2109.87 1776.6 2108.64 1776.24C2107.66 1775.96 2107.24 1775.26 2107.38 1774.15L2107.96 1769.39C2108.67 1763.55 2107.99 1758.96 2105.94 1755.61C2103.91 1752.19 2100.43 1749.76 2095.51 1748.34C2092.23 1747.39 2089.8 1747.22 2088.2 1747.83C2086.71 1748.38 2085.62 1749.84 2084.94 1752.22L2076.38 1781.85C2076.05 1783 2076.46 1783.74 2077.61 1784.07L2083.75 1785.85C2087.36 1786.89 2090.13 1785.6 2092.06 1781.98L2095.07 1776.19C2095.75 1775.05 2096.6 1774.72 2097.62 1775.19C2098.48 1775.62 2098.73 1776.45 2098.37 1777.68L2090.38 1805.35C2090.03 1806.58 2089.37 1807.14 2088.43 1807.05C2087.31 1806.9 2086.77 1806.17 2086.8 1804.84L2087.31 1798.46C2087.56 1795.43 2087.29 1793.31 2086.48 1792.1C2085.76 1790.91 2084.45 1790.04 2082.57 1789.5L2076.54 1787.76C2075.39 1787.43 2074.65 1787.84 2074.32 1788.99L2065.41 1819.85C2064.56 1822.8 2064.68 1825.15 2065.78 1826.89C2066.96 1828.65 2069.56 1830.11 2073.57 1831.27C2077.67 1832.45 2081.45 1832.43 2084.91 1831.21C2088.48 1829.93 2091.67 1826.59 2094.47 1821.18L2098.04 1814.35C2098.59 1813.36 2099.36 1813 2100.35 1813.29C2101.49 1813.62 2101.79 1814.46 2101.22 1815.8L2093.67 1837.34C2092.96 1839.18 2091.66 1839.82 2089.78 1839.28L2046.61 1826.82ZM2150.59 1858.03C2149.28 1857.66 2148.46 1856.35 2148.13 1854.12L2135.67 1772.19C2135.59 1771.55 2135.34 1771.21 2134.9 1771.17C2134.55 1771.16 2134.28 1771.48 2134.09 1772.13L2115.84 1835.35C2115.18 1837.64 2115.04 1839.51 2115.42 1840.95C2115.91 1842.34 2117.13 1843.49 2119.09 1844.41L2120.62 1845.12C2121.66 1845.51 2122.05 1846.15 2121.79 1847.05C2121.53 1847.96 2120.78 1848.23 2119.56 1847.87L2101.97 1842.8C2100.74 1842.44 2100.25 1841.81 2100.52 1840.91C2100.78 1840.01 2101.45 1839.67 2102.54 1839.9L2104.21 1840.11C2106.44 1840.4 2108.12 1840.09 2109.28 1839.18C2110.45 1838.18 2111.37 1836.54 2112.03 1834.24L2132.2 1764.39C2132.69 1762.67 2132.74 1761.44 2132.33 1760.7C2132 1759.99 2130.95 1759.19 2129.15 1758.32L2126.47 1757.01C2125.47 1756.46 2125.08 1755.81 2125.3 1755.07C2125.56 1754.17 2126.3 1753.9 2127.53 1754.25L2140.69 1758.05C2142.74 1758.64 2143.91 1759.96 2144.21 1762L2154.81 1834.2C2154.91 1834.77 2155.14 1835.05 2155.49 1835.07C2155.93 1835.1 2156.21 1834.88 2156.36 1834.38L2172.44 1778.67C2173.2 1776.05 2173.27 1774.12 2172.65 1772.87C2172.05 1771.55 2171.1 1770.56 2169.77 1769.91L2167.67 1768.9C2166.67 1768.35 2166.28 1767.7 2166.49 1766.97C2166.75 1766.06 2167.5 1765.79 2168.73 1766.15L2186.31 1771.22C2187.54 1771.58 2188.03 1772.21 2187.77 1773.11C2187.51 1774.01 2186.83 1774.35 2185.74 1774.12L2184.07 1773.91C2181.85 1773.62 2180.17 1773.89 2179.04 1774.72C2177.94 1775.47 2177.01 1777.15 2176.25 1779.78L2154.56 1854.92C2154.13 1856.39 2153.55 1857.33 2152.81 1857.74C2152.15 1858.17 2151.41 1858.27 2150.59 1858.03ZM2168.75 1862.08C2167.52 1861.72 2167.04 1861.09 2167.3 1860.19C2167.51 1859.45 2168.18 1859.11 2169.32 1859.18L2172.29 1859.5C2175.22 1859.81 2177.08 1858.62 2177.86 1855.91L2198.73 1783.6C2199.23 1781.88 2199.27 1780.65 2198.87 1779.91C2198.54 1779.19 2197.56 1778.42 2195.94 1777.6L2193.25 1776.29C2192.26 1775.74 2191.86 1775.09 2192.08 1774.35C2192.34 1773.45 2193.08 1773.18 2194.31 1773.53L2219.15 1780.7C2225.55 1782.55 2230.54 1786.03 2234.12 1791.15C2237.73 1796.19 2239.84 1802.44 2240.44 1809.9C2241.04 1817.35 2240.06 1825.51 2237.5 1834.36C2234.92 1843.3 2231.33 1850.66 2226.74 1856.43C2222.22 1862.23 2217.02 1866.24 2211.14 1868.45C2205.26 1870.66 2199 1870.81 2192.36 1868.89L2168.75 1862.08ZM2193.78 1865.84C2201.07 1867.94 2207.61 1866.06 2213.4 1860.18C2219.26 1854.32 2224.1 1844.79 2227.91 1831.59C2231.7 1818.48 2232.79 1807.78 2231.18 1799.5C2229.68 1791.16 2225.36 1785.96 2218.23 1783.9C2212 1782.1 2208.02 1784.2 2206.29 1790.18L2187.76 1854.37C2186.81 1857.65 2186.8 1860.18 2187.71 1861.95C2188.72 1863.67 2190.74 1864.96 2193.78 1865.84Z" fill="white"/>
</svg>
