<svg width="2947" height="1997" viewBox="0 0 2947 1997" fill="none" xmlns="http://www.w3.org/2000/svg">
<rect x="397.397" y="555.475" width="1998" height="1444" transform="rotate(-14.7875 397.397 555.475)" fill="#00FF66" stroke="#0047AB" stroke-width="74"/>
<path d="M1549.49 1595.83C1501.79 1608.42 1455.97 1604.66 1412.05 1584.53C1368.77 1564.24 1330.08 1529.98 1295.97 1481.76C1262.34 1432.72 1235.83 1371.45 1216.43 1297.97C1197.71 1227.07 1192.01 1162.38 1199.33 1103.91C1207.13 1044.62 1225.24 995.712 1253.68 957.176C1282.6 917.827 1319.29 892.281 1363.77 880.54C1390.2 873.564 1414.08 870.017 1435.42 869.898C1456.6 869.136 1475.94 870.58 1493.45 874.231C1502.38 876.701 1508.03 882.449 1510.42 891.473L1552.11 1037.67C1555 1048.63 1552.58 1055.13 1544.85 1057.17C1537.76 1059.04 1532.14 1056.05 1527.99 1048.18L1508.88 1014.95C1482.07 968.25 1457.09 937.611 1433.94 923.038C1411.43 908.294 1387.93 904.156 1363.43 910.622C1318.31 922.533 1288.01 960.526 1272.51 1024.6C1257.5 1087.86 1263.94 1172.35 1291.85 1278.06C1310.9 1350.26 1334.4 1409.21 1362.33 1454.93C1390.9 1500.48 1420.43 1532.68 1450.91 1551.52C1482.04 1570.19 1511.14 1575.96 1538.22 1568.81C1567.22 1561.15 1588.05 1546 1600.69 1523.36C1613.97 1500.55 1619.93 1461.74 1618.56 1406.94L1617.66 1356.5C1617.04 1346.32 1621.09 1340.77 1629.81 1339.85C1637.24 1339.27 1642.23 1343.81 1644.79 1353.48L1682.27 1511.13C1684.65 1520.16 1682.25 1528.03 1675.06 1534.76C1661.63 1546.58 1644.87 1557.55 1624.79 1567.68C1605.53 1578.28 1580.43 1587.66 1549.49 1595.83Z" fill="#00D756"/>
<path d="M790.825 1786.79C781.156 1789.34 775.386 1787.07 773.514 1779.98C771.983 1774.18 775.152 1769.21 783.021 1765.06L804.238 1755.33C825.133 1745.67 832.773 1730.21 827.158 1708.94L677.079 1140.41C673.506 1126.88 668.868 1118.45 663.165 1115.13C658.106 1111.64 648.468 1110.39 634.251 1111.38L610.992 1113.39C602.102 1113.67 596.891 1110.9 595.36 1105.1C593.488 1098.01 597.387 1093.19 607.055 1090.64L802.365 1039.08C852.643 1025.81 900.066 1029.15 944.634 1049.1C989.033 1068.41 1028.2 1101.85 1062.13 1149.43C1096.07 1197.01 1122.23 1255.61 1140.6 1325.23C1159.15 1395.49 1164.59 1459.21 1156.94 1516.39C1149.92 1573.4 1131.14 1621.11 1100.6 1659.51C1070.05 1697.91 1028.68 1724 976.466 1737.79L790.825 1786.79ZM973.697 1711.63C1031.07 1696.48 1067.34 1657.6 1082.53 1594.99C1098.36 1532.2 1092.58 1448.92 1065.19 1345.14C1037.96 1242 1002.36 1165.9 958.378 1116.84C914.872 1066.96 865.08 1049.42 809.001 1064.22C760.013 1077.15 741.729 1107.15 754.15 1154.2L887.383 1658.91C894.19 1684.69 904.196 1701.7 917.402 1709.94C931.082 1717.36 949.847 1717.92 973.697 1711.63Z" fill="#00D756"/>
<path d="M1593.16 1447.83C1545.47 1460.42 1499.65 1456.65 1455.73 1436.53C1412.45 1416.24 1373.76 1381.98 1339.65 1333.76C1306.02 1284.71 1279.51 1223.45 1260.11 1149.97C1241.39 1079.07 1235.69 1014.38 1243.01 955.907C1250.8 896.621 1268.92 847.71 1297.36 809.175C1326.27 769.825 1362.97 744.28 1407.45 732.539C1433.87 725.563 1457.76 722.015 1479.1 721.897C1500.28 721.134 1519.62 722.579 1537.13 726.23C1546.06 728.7 1551.71 734.447 1554.09 743.472L1595.79 889.671C1598.68 900.629 1596.26 907.129 1588.53 909.171C1581.44 911.043 1575.82 908.044 1571.67 900.175L1552.56 866.953C1525.75 820.249 1500.77 789.61 1477.62 775.037C1455.11 760.293 1431.61 756.155 1407.11 762.621C1361.99 774.531 1331.69 812.525 1316.19 876.602C1301.18 939.863 1307.62 1024.35 1335.53 1130.06C1354.58 1202.26 1378.08 1261.21 1406 1306.93C1434.58 1352.48 1464.1 1384.68 1494.59 1403.52C1525.72 1422.19 1554.82 1427.96 1581.9 1420.81C1610.9 1413.15 1631.72 1398 1644.36 1375.36C1657.65 1352.55 1663.61 1313.74 1662.24 1258.94L1661.34 1208.5C1660.72 1198.32 1664.77 1192.77 1673.49 1191.85C1680.92 1191.27 1685.91 1195.81 1688.46 1205.48L1725.95 1363.13C1728.33 1372.16 1725.92 1380.03 1718.74 1386.76C1705.31 1398.57 1688.55 1409.55 1668.47 1419.67C1649.21 1430.28 1624.1 1439.66 1593.16 1447.83Z" fill="#0047AB"/>
<path d="M834.504 1638.79C824.835 1641.34 819.065 1639.07 817.193 1631.98C815.661 1626.18 818.83 1621.21 826.699 1617.06L847.917 1607.32C868.812 1597.67 876.452 1582.21 870.836 1560.94L720.758 992.414C717.185 978.877 712.546 970.449 706.843 967.128C701.785 963.636 692.147 962.388 677.93 963.383L654.671 965.386C645.781 965.664 640.57 962.903 639.039 957.102C637.167 950.011 641.065 945.19 650.734 942.638L846.044 891.08C896.321 877.808 943.745 881.148 988.313 901.1C1032.71 920.407 1071.88 953.851 1105.81 1001.43C1139.75 1049.01 1165.9 1107.61 1184.28 1177.23C1202.83 1247.49 1208.27 1311.21 1200.61 1368.39C1193.6 1425.4 1174.82 1473.11 1144.28 1511.51C1113.73 1549.91 1072.36 1576 1020.14 1589.79L834.504 1638.79ZM1017.38 1563.63C1074.74 1548.48 1111.02 1509.6 1126.21 1446.98C1142.04 1384.2 1136.26 1300.91 1108.86 1197.14C1081.64 1094 1046.04 1017.9 1002.06 968.835C958.551 918.954 908.759 901.415 852.68 916.219C803.691 929.151 785.408 959.144 797.829 1006.2L931.062 1510.91C937.868 1536.69 947.875 1553.7 961.081 1561.94C974.761 1569.36 993.526 1569.92 1017.38 1563.63Z" fill="#0047AB"/>
<rect x="407.967" y="732.645" width="2067" height="78" transform="rotate(-14.7875 407.967 732.645)" fill="#0047AB"/>
<rect x="1585.67" y="351.427" width="1335" height="77.9999" transform="rotate(75.2125 1585.67 351.427)" fill="#0047AB"/>
<rect x="442.615" y="581.806" width="1924" height="137" transform="rotate(-14.7875 442.615 581.806)" fill="white"/>
<rect x="2357.77" y="298.612" width="1155" height="760" transform="rotate(75.2125 2357.77 298.612)" fill="black"/>
<path d="M1776.18 723.841L1767.17 689.683L1858.57 604.657L1867.59 638.815L1804.33 697.082L1804.86 699.062L1888.63 718.517L1897.65 752.675L1776.18 723.841ZM2079.03 668.256L2142.28 609.989L2141.76 608.009L2057.99 588.554L2048.97 554.396L2170.43 583.23L2179.45 617.387L2088.04 702.414L2079.03 668.256Z" fill="white"/>
<path d="M2086.18 1214.84L2077.17 1180.68L2168.57 1095.66L2177.59 1129.81L2114.33 1188.08L2114.86 1190.06L2198.63 1209.52L2207.65 1243.67L2086.18 1214.84ZM2256.07 1269.02L2276.85 1025.77L2309.77 1017.08L2288.99 1260.33L2256.07 1269.02ZM2389.03 1159.26L2452.28 1100.99L2451.76 1099.01L2367.99 1079.55L2358.97 1045.4L2480.43 1074.23L2489.45 1108.39L2398.04 1193.41L2389.03 1159.26Z" fill="white"/>
<path d="M1418.1 1379.23C1422.91 1376.65 1425.31 1375.36 1427.24 1375.62C1428.93 1375.85 1430.44 1376.78 1431.39 1378.18C1432.49 1379.79 1432.41 1382.52 1432.25 1387.98L1427.48 1546.91C1427.32 1552.36 1427.24 1555.09 1426.05 1556.63C1425.01 1557.97 1423.44 1558.81 1421.75 1558.94C1419.8 1559.09 1417.48 1557.65 1412.84 1554.78L1277.59 1471.19C1272.94 1468.32 1270.62 1466.89 1269.88 1465.09C1269.24 1463.51 1269.29 1461.74 1270.03 1460.21C1270.88 1458.45 1273.28 1457.16 1278.08 1454.57L1418.1 1379.23Z" fill="white"/>
<rect x="1352.75" y="1454.07" width="54.446" height="139.101" rx="6" transform="rotate(34.0299 1352.75 1454.07)" fill="white"/>
<path d="M1401.1 1343.84C1405.91 1341.26 1408.31 1339.97 1410.24 1340.23C1411.93 1340.46 1413.44 1341.39 1414.39 1342.79C1415.49 1344.41 1415.41 1347.13 1415.25 1352.59L1410.48 1511.52C1410.32 1516.97 1410.24 1519.7 1409.05 1521.24C1408.01 1522.59 1406.44 1523.43 1404.75 1523.55C1402.8 1523.7 1400.48 1522.26 1395.84 1519.4L1260.59 1435.8C1255.94 1432.94 1253.62 1431.5 1252.88 1429.7C1252.24 1428.12 1252.29 1426.35 1253.03 1424.82C1253.88 1423.06 1256.28 1421.77 1261.08 1419.18L1401.1 1343.84Z" fill="black"/>
<rect x="1335.75" y="1418.68" width="54.446" height="139.101" rx="6" transform="rotate(34.0299 1335.75 1418.68)" fill="black"/>
<rect x="165.018" y="83" width="795" height="409" rx="32" transform="rotate(20.0197 165.018 83)" fill="black"/>
<rect x="140.914" y="28.5341" width="792" height="406" rx="30.5" transform="rotate(20.0197 140.914 28.5341)" fill="white" stroke="black" stroke-width="3"/>
<rect x="153.811" y="59.1044" width="746.151" height="354" rx="177" transform="rotate(20.0197 153.811 59.1044)" fill="#006C6C" stroke="black" stroke-width="12"/>
<path d="M258.738 276.374L285.453 203.053C286.376 200.521 288.262 198.68 291.114 197.543C293.964 196.401 297.032 196.432 300.335 197.636C303.639 198.839 306.068 200.815 307.524 203.522C308.971 206.23 309.235 208.85 308.312 211.382L248.086 376.674C247.492 378.306 246.781 379.655 245.965 380.713C245.142 381.768 243.909 382.409 242.265 382.627C240.355 382.963 237.54 382.447 233.817 381.09L205.366 370.724C200.492 368.948 197.471 366.923 196.298 364.646C195.571 363.52 195.294 362.416 195.475 361.329C195.664 360.208 196.037 358.906 196.578 357.421L220.438 291.936C221.31 289.543 221.946 288.088 222.347 287.579C223.216 286.375 224.657 285.465 226.671 284.844C228.477 284.191 230.759 284.015 233.52 284.322C241.371 285.334 246.345 285.732 248.431 285.505C253.304 284.898 256.741 281.856 258.736 276.381L258.738 276.374Z" fill="#FFFFC9"/>
<path d="M359.184 220.835C359.186 220.836 359.187 220.836 359.188 220.836C360.548 220.672 362.787 220.915 365.918 221.562C368.812 222.084 371.341 222.736 373.493 223.521L475.954 260.853C479.297 262.071 481.923 263.115 483.831 263.968C485.473 264.938 486.777 266.254 487.738 267.92C488.58 269.747 488.978 271.33 488.922 272.665C488.67 274.094 488.144 275.917 487.339 278.124L474.91 312.238C473.773 315.359 472.812 317.616 472.035 319.012C471.053 320.503 469.469 321.529 467.27 322.087C465.117 322.657 462.801 322.655 460.314 322.077C457.874 321.515 456.174 321.062 455.224 320.716L435.284 313.451C431.992 312.251 429.973 311.436 429.217 310.991C427.748 310.128 426.375 308.786 425.097 306.966C423.714 305.273 422.92 303.462 422.704 301.535C422.29 299.705 422.439 297.824 423.139 295.902L429.877 277.409C430.472 275.777 430.724 274.182 430.638 272.634C430.313 270.995 429.224 269.077 427.366 266.883C425.089 264.043 421.102 261.583 415.403 259.506L389.753 250.16C385.058 248.45 380.858 247.844 377.154 248.343C371.487 249.154 367.788 251.934 366.058 256.684L322.631 375.87C321.983 377.649 321.318 379.765 320.636 382.226C319.764 384.619 320.079 387.1 321.59 389.657C324.042 393.92 328.598 397.263 335.248 399.686L384.986 417.808C389.097 419.306 392.32 420.216 394.645 420.526C396.702 420.947 399.196 420.77 402.126 419.989C407.066 418.585 410.35 415.649 411.975 411.189L417.821 395.144C419.222 391.301 421.205 388.591 423.776 387.019C426.067 385.472 429.663 385.593 434.57 387.381C438.286 388.735 440.713 390.895 441.849 393.853C442.706 396.832 442.539 399.955 441.348 403.222L428.925 437.318C428.442 438.645 428.009 439.778 427.628 440.717C426.87 442.585 425.672 444.275 423.822 445.075C423.066 445.401 422.166 445.726 421.121 446.049C416.896 447.385 411.94 447.013 406.255 444.942L299.368 405.997C294.58 403.794 291.692 401.659 290.718 399.582C290.1 398.391 289.673 397.27 289.437 396.218C289.041 394.451 289.151 392.589 289.481 390.809C289.678 389.749 290.004 388.597 290.458 387.352L347.931 229.613C349.82 224.428 353.572 221.501 359.181 220.835C359.182 220.835 359.183 220.835 359.184 220.835V220.835Z" fill="#FFFFC9"/>
<path d="M529.357 289.464C529.358 289.465 529.359 289.464 529.36 289.463C530.394 286.626 532.811 284.888 536.613 284.255C540.123 283.685 543.931 284.14 548.038 285.637L681.873 334.401C685.406 335.688 688.239 337.648 690.365 340.276C692.536 342.927 693.164 345.507 692.251 348.014C691.337 350.522 689.213 352.327 685.925 353.31C682.682 354.316 679.39 354.207 676.04 352.987L649.322 343.252C646.355 342.171 644.452 341.584 643.623 341.484C642.13 341.267 640.176 341.401 637.781 341.883C634.157 342.743 631.646 345.095 630.245 348.942L577.33 494.168C576.418 496.672 575.258 498.596 573.852 499.932C572.236 501.402 570.321 502.142 568.107 502.153C565.681 502.13 562.615 501.447 558.899 500.093L536.958 492.099C534.989 491.382 533.392 490.735 532.163 490.159C530.771 489.506 529.349 488.815 528.259 487.731C527.583 487.058 527.001 486.219 526.514 485.213C525.415 483.335 525.049 481.617 525.4 480.054C525.561 478.43 525.913 476.872 526.457 475.379L578.637 332.169C580.21 327.851 580.041 324.088 578.126 320.882C576.983 319.111 575.35 317.504 573.22 316.069C571.053 314.746 568.392 313.507 565.239 312.359L540.881 303.484C536.964 302.056 533.847 299.996 531.529 297.303C529.111 294.732 528.388 292.122 529.355 289.465C529.355 289.465 529.356 289.464 529.357 289.464V289.464Z" fill="#FFFFC9"/>
<path d="M2685.4 1239.38C2700.34 1228.43 2720.66 1228.43 2735.6 1239.38V1239.38C2745.72 1246.78 2758.6 1249.34 2770.78 1246.37V1246.37C2788.78 1241.98 2807.54 1249.76 2817.17 1265.59V1265.59C2823.68 1276.3 2834.59 1283.59 2846.98 1285.51V1285.51C2865.29 1288.34 2879.66 1302.71 2882.49 1321.02V1321.02C2884.41 1333.41 2891.7 1344.32 2902.41 1350.83V1350.83C2918.24 1360.46 2926.02 1379.22 2921.63 1397.22V1397.22C2918.66 1409.4 2921.22 1422.28 2928.62 1432.4V1432.4C2939.57 1447.34 2939.57 1467.66 2928.62 1482.6V1482.6C2921.22 1492.72 2918.66 1505.6 2921.63 1517.78V1517.78C2926.02 1535.78 2918.24 1554.54 2902.41 1564.17V1564.17C2891.7 1570.68 2884.41 1581.59 2882.49 1593.98V1593.98C2879.66 1612.29 2865.29 1626.66 2846.98 1629.49V1629.49C2834.59 1631.41 2823.68 1638.7 2817.17 1649.41V1649.41C2807.54 1665.24 2788.78 1673.02 2770.78 1668.63V1668.63C2758.6 1665.66 2745.72 1668.22 2735.6 1675.62V1675.62C2720.66 1686.57 2700.34 1686.57 2685.4 1675.62V1675.62C2675.28 1668.22 2662.4 1665.66 2650.22 1668.63V1668.63C2632.22 1673.02 2613.46 1665.24 2603.83 1649.41V1649.41C2597.32 1638.7 2586.41 1631.41 2574.02 1629.49V1629.49C2555.71 1626.66 2541.34 1612.29 2538.51 1593.98V1593.98C2536.59 1581.59 2529.3 1570.68 2518.59 1564.17V1564.17C2502.76 1554.54 2494.98 1535.78 2499.37 1517.78V1517.78C2502.34 1505.6 2499.78 1492.72 2492.38 1482.6V1482.6C2481.43 1467.66 2481.43 1447.34 2492.38 1432.4V1432.4C2499.78 1422.28 2502.34 1409.4 2499.37 1397.22V1397.22C2494.98 1379.22 2502.76 1360.46 2518.59 1350.83V1350.83C2529.3 1344.32 2536.59 1333.41 2538.51 1321.02V1321.02C2541.34 1302.71 2555.71 1288.34 2574.02 1285.51V1285.51C2586.41 1283.59 2597.32 1276.3 2603.83 1265.59V1265.59C2613.46 1249.76 2632.22 1241.98 2650.22 1246.37V1246.37C2662.4 1249.34 2675.28 1246.78 2685.4 1239.38V1239.38Z" fill="black"/>
<path d="M2627.87 1208.44C2640.48 1211.52 2653.81 1208.87 2664.28 1201.2C2678.7 1190.64 2698.3 1190.64 2712.72 1201.2C2723.19 1208.87 2736.52 1211.52 2749.13 1208.44C2766.5 1204.21 2784.6 1211.71 2793.88 1226.98C2800.63 1238.07 2811.93 1245.62 2824.76 1247.61C2842.42 1250.34 2856.27 1264.2 2859.01 1281.86C2860.99 1294.69 2868.54 1305.98 2879.63 1312.73C2894.9 1322.01 2902.4 1340.12 2898.17 1357.48C2895.09 1370.09 2897.74 1383.42 2905.41 1393.89C2915.97 1408.31 2915.97 1427.91 2905.41 1442.33C2897.74 1452.81 2895.09 1466.13 2898.17 1478.75C2902.4 1496.11 2894.9 1514.21 2879.63 1523.5C2868.54 1530.24 2860.99 1541.54 2859.01 1554.37C2856.27 1572.03 2842.42 1585.88 2824.76 1588.62C2811.93 1590.6 2800.63 1598.15 2793.88 1609.24C2784.6 1624.52 2766.5 1632.01 2749.13 1627.78C2736.52 1624.7 2723.19 1627.36 2712.72 1635.02C2698.3 1645.58 2678.7 1645.58 2664.28 1635.02C2653.81 1627.36 2640.48 1624.7 2627.87 1627.78C2610.5 1632.01 2592.4 1624.52 2583.12 1609.24C2576.37 1598.15 2565.07 1590.6 2552.24 1588.62C2534.58 1585.88 2520.73 1572.03 2517.99 1554.37C2516.01 1541.54 2508.46 1530.24 2497.37 1523.5C2482.1 1514.21 2474.6 1496.11 2478.83 1478.75C2481.91 1466.13 2479.26 1452.81 2471.59 1442.33C2461.03 1427.91 2461.03 1408.31 2471.59 1393.89C2479.26 1383.42 2481.91 1370.09 2478.83 1357.48C2474.6 1340.12 2482.1 1322.01 2497.37 1312.73C2508.46 1305.98 2516.01 1294.69 2517.99 1281.86C2520.73 1264.2 2534.58 1250.34 2552.24 1247.61C2565.07 1245.62 2576.37 1238.07 2583.12 1226.98C2592.4 1211.71 2610.5 1204.21 2627.87 1208.44Z" fill="white" stroke="black" stroke-width="3"/>
<g clip-path="url(#clip0_43_281)">
<path d="M2689 1572.64C2774.07 1572.64 2843.03 1503.68 2843.03 1418.61C2843.03 1333.54 2774.07 1264.58 2689 1264.58C2603.93 1264.58 2534.97 1333.54 2534.97 1418.61C2534.97 1503.68 2603.93 1572.64 2689 1572.64Z" fill="white"/>
<path d="M2575.04 1467.11C2574.91 1466.68 2574.82 1466.37 2574.78 1466.15L2578.27 1467.55C2578.41 1468.38 2578.49 1468.91 2578.54 1469.21C2578.75 1471.48 2577.97 1472.97 2576.13 1473.62L2570.23 1475.85C2570.23 1476.07 2570.19 1476.77 2570.23 1477.99C2570.23 1479.22 2570.06 1480.66 2569.75 1482.28C2569.67 1482.71 2569.58 1483.15 2569.49 1483.54L2579.72 1479.65L2584.26 1483.11L2568.49 1489.09L2564.03 1485.64C2564.73 1484.85 2565.65 1483.63 2566.74 1481.97C2567.09 1481.27 2567.31 1480.18 2567.52 1478.78C2567.52 1478.34 2567.61 1477.69 2567.66 1476.81L2564.29 1478.08L2559.79 1474.5C2559.79 1474.5 2560.27 1474.15 2560.62 1473.89C2561.8 1472.97 2562.63 1472.1 2563.2 1471.31C2563.5 1470.92 2563.81 1470.22 2564.2 1469.26C2564.38 1468.82 2564.51 1468.42 2564.68 1467.99C2565.03 1468.12 2565.34 1468.25 2565.56 1468.38C2566.17 1468.73 2566.65 1469.04 2567 1469.34C2567.61 1469.87 2568.14 1470.35 2568.49 1470.83C2568.49 1470.83 2568.62 1471 2568.75 1471.18L2574.43 1469.04C2575.17 1468.77 2575.39 1468.12 2575.13 1467.07L2575.04 1467.11ZM2567.22 1471.75C2567.22 1471.75 2567.22 1471.44 2567.09 1471.13C2566.87 1470.52 2566.65 1470.09 2566.48 1469.82C2566.43 1469.82 2566.39 1469.82 2566.34 1469.91C2566.34 1470.26 2566.21 1470.74 2565.95 1471.44C2565.86 1471.66 2565.73 1471.96 2565.51 1472.4L2567.26 1471.75H2567.22Z" fill="#1A458B"/>
<path d="M2587.8 1489.36C2588.02 1489.88 2588.15 1490.32 2588.15 1490.62C2588.24 1491.58 2587.93 1492.37 2587.23 1492.89C2587.01 1493.07 2586.84 1493.16 2586.75 1493.2C2586.36 1493.38 2585.31 1493.42 2583.69 1493.29C2582.08 1493.16 2580.59 1493.59 2579.32 1494.64C2578.36 1495.43 2577.97 1497.05 2578.1 1499.49L2578.67 1502.73C2578.67 1502.73 2579.06 1502.9 2579.19 1502.9C2579.63 1502.9 2580.07 1502.81 2580.46 1502.51C2581.29 1501.9 2581.94 1500.67 2582.47 1498.84C2582.69 1498.01 2583.12 1497.4 2583.69 1497C2584.52 1496.39 2585.66 1496.17 2587.06 1496.35C2587.49 1496.39 2588.15 1496.57 2588.98 1496.83C2588.98 1496.74 2588.98 1496.65 2588.94 1496.57C2588.8 1495.95 2588.8 1495.43 2588.94 1494.95C2588.94 1494.73 2589.07 1494.6 2589.15 1494.51C2589.2 1494.51 2589.29 1494.47 2589.37 1494.51L2594 1495.47C2593.7 1496.04 2593.52 1496.48 2593.44 1496.83C2593.22 1497.92 2593.44 1498.92 2594.09 1499.84C2594.62 1500.54 2595.32 1501.07 2596.23 1501.42C2597.15 1501.77 2597.94 1501.85 2598.55 1501.68C2598.29 1501.77 2598.02 1501.85 2597.81 1501.94C2597.24 1502.07 2596.71 1502.11 2596.23 1502.11C2596.15 1502.11 2595.8 1502.03 2595.23 1501.9L2594.4 1501.72C2594.44 1501.98 2594.49 1502.25 2594.53 1502.51C2594.62 1503.51 2594.57 1504.39 2594.35 1505.17C2594.22 1505.65 2594.05 1506 2593.79 1506.18L2585.18 1512.51L2580.15 1510.2L2589.98 1502.94C2590.64 1502.42 2590.86 1501.46 2590.51 1499.97C2590.42 1499.58 2590.2 1499.06 2589.9 1498.44C2589.81 1498.31 2589.64 1498.01 2589.37 1497.53C2589.29 1497.4 2589.07 1497.48 2588.72 1497.75C2587.93 1498.36 2587.06 1499.76 2586.14 1502.03C2585.92 1502.55 2585.62 1502.94 2585.18 1503.25C2584.3 1503.91 2582.95 1504.17 2581.11 1504.12C2579.54 1504.04 2578.06 1503.82 2576.66 1503.43C2576.18 1503.25 2575.48 1503.03 2574.56 1502.73C2574.47 1502.6 2574.34 1501.94 2574.21 1500.76C2573.73 1496.87 2574.34 1494.25 2576.13 1492.94C2576.79 1492.46 2578.01 1492.24 2579.8 1492.24C2581.6 1492.24 2582.77 1492.06 2583.3 1491.67C2584 1491.15 2584.22 1490.4 2583.91 1489.44C2583.82 1489.22 2583.74 1488.87 2583.52 1488.44L2587.8 1489.36Z" fill="#1A458B"/>
<path d="M2604.45 1512.73L2597.85 1507.01L2602.92 1506.7L2610.48 1513.26L2599.38 1526.02L2593.79 1525.05L2604.49 1512.78L2604.45 1512.73Z" fill="#1A458B"/>
<path d="M2617.25 1517.19L2625.86 1523.18L2616.38 1536.9L2609.91 1536.28C2609.91 1536.28 2609.65 1536.07 2609.47 1535.89C2608.82 1535.28 2608.21 1534.54 2607.73 1533.71C2607.46 1533.23 2607.24 1532.57 2607.16 1531.7C2607.16 1531.3 2607.2 1530.87 2607.24 1530.47L2611.13 1530.34C2610.92 1530.69 2610.78 1530.95 2610.7 1531.13C2610.43 1531.74 2610.43 1532.31 2610.7 1532.79C2611.05 1533.58 2611.48 1534.1 2611.96 1534.41C2612.09 1534.49 2612.18 1534.49 2612.18 1534.41L2619.87 1523.31L2612.66 1518.33L2617.25 1517.19Z" fill="#1A458B"/>
<path d="M2620.13 1516.14C2620.44 1516.32 2621.01 1516.4 2621.88 1516.4C2622.14 1516.4 2622.54 1516.4 2623.06 1516.32C2622.32 1516.53 2621.71 1516.67 2621.18 1516.75C2619.74 1516.97 2618.65 1516.93 2617.82 1516.58C2617.69 1516.53 2617.51 1516.4 2617.29 1516.32C2616.42 1515.79 2615.55 1515 2614.67 1513.87C2614.32 1513.34 2614.02 1512.86 2613.71 1512.3C2614.06 1512.16 2614.63 1512.03 2615.42 1511.86C2616.64 1511.6 2617.99 1511.51 2619.52 1511.51C2621.71 1511.51 2623.54 1511.99 2625.03 1512.86C2627.21 1514.13 2629.09 1516.32 2630.67 1519.42C2630.84 1519.77 2631.06 1520.29 2631.41 1520.99L2627.17 1521.87C2627.17 1521.3 2627.17 1520.86 2627.17 1520.51C2626.95 1519.37 2626.34 1518.19 2625.38 1516.97C2623.94 1515.18 2622.58 1513.87 2621.31 1513.13C2620.44 1512.6 2619.57 1512.25 2618.69 1512.03C2618.39 1511.95 2618.04 1511.9 2617.64 1511.86C2617.73 1512.38 2617.82 1512.95 2617.91 1513.48C2618.52 1514.74 2619.26 1515.66 2620.22 1516.18L2620.13 1516.14Z" fill="#1A458B"/>
<path d="M2630.88 1526.5C2631.45 1527.11 2631.89 1527.59 2632.11 1527.94C2632.89 1529.08 2633.11 1530.08 2632.76 1530.91C2632.59 1531.26 2631.89 1531.78 2630.75 1532.48C2629.66 1533.14 2628.92 1534.01 2628.48 1535.06C2628.31 1535.54 2628.13 1536.11 2627.96 1536.81C2627.65 1538.21 2627.87 1539.91 2628.66 1541.92C2629.09 1542.75 2629.57 1543.58 2630.01 1544.41C2630.27 1544.28 2630.45 1544.19 2630.62 1544.06C2631.06 1543.67 2631.45 1543.15 2631.71 1542.49C2632.15 1541.35 2632.28 1539.91 2632.06 1538.12C2631.93 1537.29 2632.06 1536.42 2632.46 1535.5C2633.11 1533.88 2634.47 1532.48 2636.52 1531.3C2638.36 1530.3 2639.58 1529.95 2640.28 1530.21L2647.79 1533.23L2641.55 1548.91L2635.95 1549.87L2642.03 1534.58L2637.18 1532.66C2636.91 1532.57 2636.74 1532.66 2636.65 1532.96C2636.65 1533.44 2636.56 1535.02 2636.48 1537.6C2636.43 1539.08 2636.26 1540.22 2635.95 1541L2635.78 1541.4C2635.78 1541.4 2635.69 1541.53 2635.65 1541.57C2634.34 1543.8 2631.93 1545.29 2628.44 1546.03C2627.83 1546.12 2627.21 1546.16 2626.6 1546.25C2626.47 1546.2 2626.12 1545.72 2625.47 1544.76C2623.37 1541.66 2622.8 1538.99 2623.72 1536.72C2624.02 1535.98 2624.9 1535.15 2626.34 1534.23C2627.78 1533.31 2628.66 1532.57 2628.87 1531.92C2629.27 1531 2628.96 1530.12 2628.04 1529.38C2627.91 1529.29 2627.56 1529.03 2626.91 1528.59L2630.88 1526.58V1526.5Z" fill="#1A458B"/>
<path d="M2656.53 1535.94C2656.75 1535.89 2657.01 1535.89 2657.23 1535.94C2657.89 1536.07 2658.59 1536.55 2659.33 1537.29C2660.03 1538.03 2660.34 1538.43 2660.2 1538.47L2656.62 1540.39C2656.62 1540.39 2656.53 1540.04 2656.49 1539.78C2656.18 1538.95 2655.49 1538.38 2654.31 1538.16C2653.39 1537.99 2652.86 1538.16 2652.78 1538.69C2652.69 1539.17 2652.86 1539.74 2653.34 1540.52C2653.82 1541.27 2654.31 1541.83 2654.87 1542.23C2655.62 1542.71 2656.4 1543.06 2657.23 1543.23C2657.84 1543.36 2658.46 1543.41 2659.11 1543.36C2659.33 1543.36 2659.59 1543.28 2659.85 1543.23C2659.07 1543.41 2658.15 1543.71 2657.15 1544.11C2654.66 1545.07 2653.3 1546.03 2653.08 1547.08C2652.82 1548.35 2653.91 1549.83 2656.36 1551.62C2657.63 1552.32 2658.89 1552.98 2660.16 1553.63L2662.96 1539.87L2668.42 1537.9L2665.32 1552.98L2656.93 1555.77C2656.67 1555.86 2655.79 1555.55 2654.31 1554.81C2649.89 1552.67 2647.93 1550.49 2648.36 1548.26C2648.36 1548.26 2648.36 1548.17 2648.36 1548.13C2648.58 1547.08 2649.54 1546.25 2651.25 1545.59C2651.81 1545.37 2652.64 1545.16 2653.74 1544.98C2651.16 1544.41 2649.76 1543.19 2649.54 1541.31C2649.54 1541.22 2649.54 1541.14 2649.54 1540.96C2649.72 1540.09 2650.63 1539.08 2652.3 1537.99C2653.87 1536.94 2655.27 1536.24 2656.53 1535.94Z" fill="#1A458B"/>
<path d="M2680.04 1542.84L2671.3 1542.27L2675.15 1538.95L2685.11 1539.61L2684.02 1556.47L2678.99 1559.09L2680.09 1542.84H2680.04Z" fill="#1A458B"/>
<path d="M2695.95 1560.45C2695.95 1560.45 2695.34 1560.06 2694.68 1559.49C2692.19 1557.43 2690.88 1555.34 2690.7 1553.28C2690.49 1550.22 2691.75 1547.51 2694.59 1545.16C2695.42 1544.46 2695.9 1544.11 2696.03 1544.06L2689.13 1544.63L2691.75 1540.83L2709.23 1539.43L2710.59 1556.25L2705.69 1559.62C2705.47 1559.4 2704.82 1558.44 2703.81 1556.87L2700.58 1551.8C2699.75 1550.49 2698.57 1549.09 2697.04 1547.6C2696.3 1547.08 2695.55 1546.55 2694.81 1545.99C2694.64 1546.38 2694.51 1546.73 2694.33 1547.12C2694.16 1548.08 2694.11 1549.09 2694.16 1550.05C2694.24 1551.19 2694.55 1552.15 2694.99 1552.89C2695.86 1554.24 2696.78 1555.25 2697.74 1555.86C2698.31 1556.21 2699.05 1556.43 2699.92 1556.47L2695.82 1560.41L2695.95 1560.45ZM2698.83 1543.89L2700.36 1545.42C2701.06 1546.12 2701.54 1546.64 2701.8 1546.9C2701.93 1547.08 2702.72 1547.95 2704.07 1549.57C2704.38 1549.92 2704.77 1550.35 2705.34 1550.97L2704.73 1543.36L2698.88 1543.84L2698.83 1543.89Z" fill="#1A458B"/>
<path d="M2702.59 1531.3C2702.59 1531.3 2702.37 1531.74 2702.24 1531.96C2702.02 1532.53 2701.93 1532.96 2701.98 1533.31C2702.15 1534.45 2703.59 1534.8 2706.26 1534.32C2707.4 1534.14 2708.62 1533.44 2709.93 1532.35C2710.94 1531.48 2711.9 1530.47 2712.77 1529.38C2712.99 1529.08 2713.38 1528.55 2713.86 1527.9C2713.64 1528.42 2713.25 1529.16 2712.68 1530.12C2711.72 1531.74 2710.45 1533.23 2708.93 1534.58C2706.96 1536.28 2704.86 1537.38 2702.68 1537.73C2701.28 1537.95 2699.79 1537.73 2698.22 1537.07C2697.61 1536.68 2697 1536.28 2696.38 1535.85L2702.55 1531.3H2702.59Z" fill="#1A458B"/>
<path d="M2718.98 1536.72C2718.98 1536.72 2719.37 1536.46 2719.59 1536.37C2720.24 1536.2 2721.07 1536.28 2722.08 1536.63C2723 1536.94 2723.48 1537.16 2723.39 1537.25L2721.12 1540.61C2721.12 1540.61 2720.9 1540.35 2720.72 1540.13C2720.07 1539.52 2719.19 1539.39 2718.01 1539.69C2717.14 1539.96 2716.75 1540.35 2716.92 1540.87C2717.05 1541.31 2717.49 1541.79 2718.28 1542.23C2719.02 1542.66 2719.76 1542.93 2720.42 1543.01C2721.29 1543.1 2722.17 1543.01 2723 1542.8C2723.61 1542.62 2724.18 1542.36 2724.7 1542.01C2724.87 1541.88 2725.09 1541.75 2725.27 1541.53C2724.66 1542.05 2724 1542.75 2723.3 1543.58C2721.55 1545.59 2720.81 1547.08 2721.12 1548.08C2721.47 1549.31 2723.13 1550.14 2726.1 1550.57C2727.54 1550.57 2728.98 1550.57 2730.42 1550.57L2726.54 1537.07L2730.42 1532.83L2734.71 1547.6L2728.59 1553.98C2728.59 1553.98 2727.45 1554.29 2725.84 1554.33C2720.94 1554.46 2718.15 1553.46 2717.53 1551.27C2717.53 1551.27 2717.49 1551.27 2717.45 1551.19C2717.14 1550.14 2717.62 1548.96 2718.8 1547.6C2719.19 1547.17 2719.85 1546.6 2720.77 1545.85C2718.19 1546.55 2716.35 1546.12 2715.31 1544.59C2715.31 1544.54 2715.22 1544.41 2715.17 1544.24C2714.96 1543.36 2715.26 1542.1 2716.22 1540.31C2717.14 1538.64 2718.06 1537.38 2719.02 1536.5L2718.98 1536.72Z" fill="#1A458B"/>
<path d="M2738.07 1532.35C2737.68 1532.53 2737.37 1532.61 2737.15 1532.7L2738.25 1529.12C2739.03 1528.9 2739.6 1528.77 2739.91 1528.68C2742.13 1528.24 2743.66 1528.9 2744.54 1530.65L2747.29 1536.33C2747.51 1536.33 2748.21 1536.33 2749.43 1536.15C2750.66 1536.02 2752.1 1536.07 2753.76 1536.24C2754.19 1536.28 2754.63 1536.33 2755.07 1536.42L2750.26 1526.58L2753.32 1521.73L2760.75 1536.9L2757.69 1541.66C2756.86 1541.05 2755.55 1540.26 2753.8 1539.3C2753.06 1539.04 2751.97 1538.86 2750.52 1538.82C2750.09 1538.82 2749.43 1538.82 2748.56 1538.82L2750.13 1542.05L2746.98 1546.86C2746.98 1546.86 2746.59 1546.42 2746.29 1546.12C2745.24 1545.02 2744.32 1544.24 2743.49 1543.8C2743.05 1543.54 2742.35 1543.28 2741.35 1543.01C2740.91 1542.88 2740.47 1542.75 2740.04 1542.66C2740.17 1542.31 2740.26 1542.01 2740.39 1541.75C2740.65 1541.14 2740.91 1540.61 2741.17 1540.22C2741.65 1539.56 2742.09 1538.99 2742.48 1538.6C2742.48 1538.6 2742.62 1538.47 2742.79 1538.29L2740.12 1532.79C2739.78 1532.09 2739.12 1531.92 2738.11 1532.26L2738.07 1532.35ZM2743.4 1539.69C2743.4 1539.69 2743.14 1539.69 2742.83 1539.87C2742.27 1540.13 2741.87 1540.39 2741.61 1540.61C2741.61 1540.65 2741.65 1540.74 2741.7 1540.74C2742 1540.74 2742.53 1540.74 2743.27 1541C2743.49 1541.05 2743.8 1541.18 2744.23 1541.35L2743.4 1539.69Z" fill="#1A458B"/>
<path d="M2760.49 1518.06C2761.01 1517.85 2761.45 1517.71 2761.75 1517.67C2762.72 1517.54 2763.5 1517.85 2764.03 1518.54C2764.2 1518.76 2764.29 1518.94 2764.38 1519.02C2764.55 1519.42 2764.64 1520.42 2764.55 1522.08C2764.46 1523.7 2764.94 1525.19 2766.04 1526.41C2766.87 1527.37 2768.48 1527.72 2770.93 1527.55L2774.16 1526.89C2774.25 1526.67 2774.34 1526.5 2774.34 1526.37C2774.34 1525.93 2774.25 1525.49 2773.9 1525.1C2773.29 1524.31 2772.07 1523.66 2770.19 1523.18C2769.36 1522.96 2768.75 1522.56 2768.31 1522C2767.7 1521.17 2767.43 1520.07 2767.57 1518.63C2767.61 1518.19 2767.74 1517.54 2768 1516.71C2767.92 1516.71 2767.83 1516.71 2767.78 1516.75C2767.17 1516.88 2766.65 1516.88 2766.17 1516.8C2765.95 1516.8 2765.82 1516.71 2765.73 1516.62C2765.73 1516.58 2765.69 1516.49 2765.69 1516.4L2766.56 1511.77C2767.13 1512.03 2767.61 1512.21 2767.96 1512.3C2769.05 1512.51 2770.06 1512.3 2770.97 1511.55C2771.63 1511.03 2772.15 1510.29 2772.5 1509.37C2772.85 1508.45 2772.9 1507.66 2772.68 1507.01C2772.77 1507.27 2772.85 1507.53 2772.94 1507.75C2773.07 1508.32 2773.11 1508.84 2773.16 1509.32C2773.16 1509.41 2773.11 1509.72 2772.98 1510.33L2772.81 1511.16C2773.07 1511.12 2773.33 1511.07 2773.55 1511.03C2774.56 1510.9 2775.47 1510.94 2776.26 1511.16C2776.74 1511.29 2777.09 1511.47 2777.27 1511.73L2783.82 1520.2L2781.64 1525.27L2774.16 1515.62C2773.64 1514.96 2772.63 1514.79 2771.15 1515.14C2770.76 1515.22 2770.23 1515.44 2769.62 1515.79C2769.49 1515.88 2769.18 1516.05 2768.7 1516.32C2768.57 1516.4 2768.66 1516.62 2768.92 1516.97C2769.53 1517.76 2770.97 1518.59 2773.25 1519.46C2773.77 1519.64 2774.16 1519.94 2774.51 1520.38C2775.17 1521.25 2775.47 1522.56 2775.43 1524.4C2775.43 1525.93 2775.21 1527.46 2774.82 1528.9C2774.64 1529.38 2774.43 1530.08 2774.16 1531C2774.03 1531.09 2773.38 1531.22 2772.2 1531.39C2768.31 1531.96 2765.69 1531.39 2764.38 1529.64C2763.9 1528.99 2763.63 1527.76 2763.59 1525.97C2763.59 1524.18 2763.33 1523 2762.93 1522.48C2762.41 1521.78 2761.67 1521.6 2760.71 1521.91C2760.49 1522 2760.14 1522.13 2759.7 1522.3L2760.53 1517.98L2760.49 1518.06Z" fill="#1A458B"/>
<path d="M2762.72 1511.42C2762.98 1511.16 2763.24 1510.64 2763.41 1509.8C2763.5 1509.54 2763.55 1509.15 2763.63 1508.67C2763.63 1509.46 2763.63 1510.07 2763.55 1510.59C2763.37 1512.03 2763.02 1513.08 2762.5 1513.78C2762.41 1513.91 2762.28 1514.04 2762.1 1514.22C2761.36 1514.92 2760.36 1515.57 2759.09 1516.14C2758.52 1516.32 2757.91 1516.49 2757.3 1516.67C2757.3 1516.27 2757.3 1515.7 2757.3 1514.92C2757.38 1513.69 2757.6 1512.34 2758.04 1510.85C2758.65 1508.76 2759.57 1507.1 2760.75 1505.92C2762.54 1504.17 2765.12 1502.9 2768.53 1502.16C2768.92 1502.07 2769.49 1501.98 2770.23 1501.85L2769.97 1506.18C2769.44 1506 2769.01 1505.87 2768.66 1505.87C2767.52 1505.78 2766.21 1506.05 2764.77 1506.7C2762.67 1507.62 2761.05 1508.58 2760.01 1509.63C2759.31 1510.33 2758.74 1511.07 2758.3 1511.86C2758.17 1512.12 2758.04 1512.47 2757.86 1512.82C2758.39 1512.86 2758.96 1512.95 2759.48 1512.99C2760.88 1512.73 2761.93 1512.21 2762.67 1511.47L2762.72 1511.42Z" fill="#1A458B"/>
<path d="M2787.8 1488.66L2800.95 1499.27L2800.21 1504.91L2787.53 1494.69L2780.11 1503.86C2780.5 1504.26 2781.02 1504.69 2781.68 1505.22C2782.47 1505.65 2783.65 1505.7 2785.26 1505.3C2785.96 1505.04 2786.62 1504.74 2787.32 1504.43C2787.27 1504.34 2787.23 1504.21 2787.19 1504.12C2787.01 1503.82 2786.79 1503.6 2786.62 1503.43C2786.14 1503.08 2785.44 1503.12 2784.48 1503.56C2784.39 1503.6 2784.26 1503.64 2784.08 1503.73L2783.56 1500.06C2784.08 1499.75 2784.43 1499.54 2784.69 1499.45C2785.57 1499.1 2786.22 1499.14 2786.7 1499.54C2786.97 1499.75 2787.19 1500.02 2787.32 1500.41C2787.71 1501.55 2787.88 1502.86 2787.8 1504.34C2787.67 1506.88 2787.8 1508.36 2788.32 1508.71C2789.41 1509.59 2790.64 1509.76 2791.99 1509.24C2792.43 1509.06 2793 1508.71 2793.7 1508.14L2794.61 1511.81C2794.26 1512.08 2793.91 1512.3 2793.61 1512.56C2791.95 1513.39 2790.51 1513.61 2789.37 1513.21C2789.02 1513.08 2788.76 1512.95 2788.5 1512.78C2787.97 1512.34 2787.62 1511.68 2787.49 1510.81C2787.49 1510.02 2787.49 1509.24 2787.49 1508.45C2784.83 1509.67 2782.82 1509.72 2781.5 1508.67C2779.67 1507.18 2778.84 1504.65 2779.06 1501.11C2779.15 1499.97 2779.23 1499.32 2779.36 1499.1L2787.75 1488.7L2787.8 1488.66Z" fill="#1A458B"/>
<path d="M2810.69 1488.35C2810.69 1488.35 2810.04 1488.7 2809.21 1488.96C2806.15 1490.05 2803.7 1490.14 2801.87 1489.22C2799.11 1487.87 2797.45 1485.38 2796.84 1481.75C2796.67 1480.66 2796.62 1480.09 2796.67 1479.96L2793.61 1486.17L2791.69 1481.97L2799.38 1466.24L2814.54 1473.67L2814.93 1479.57C2814.58 1479.65 2813.49 1479.7 2811.61 1479.79L2805.62 1479.96C2804.05 1479.96 2802.26 1480.31 2800.25 1480.88C2799.42 1481.23 2798.59 1481.62 2797.76 1481.97C2797.98 1482.32 2798.24 1482.63 2798.5 1482.93C2799.24 1483.59 2800.08 1484.16 2800.95 1484.55C2802 1485.07 2802.96 1485.29 2803.83 1485.25C2805.45 1485.2 2806.76 1484.9 2807.77 1484.37C2808.38 1484.07 2808.9 1483.54 2809.43 1482.8L2810.69 1488.31V1488.35ZM2797.89 1477.43L2799.99 1476.9C2800.95 1476.68 2801.6 1476.51 2801.95 1476.42C2802.17 1476.42 2803.31 1476.2 2805.45 1475.85C2805.89 1475.77 2806.5 1475.63 2807.33 1475.5L2800.51 1472.18L2797.93 1477.47L2797.89 1477.43Z" fill="#1A458B"/>
<path d="M2568.62 1354.38C2568.79 1354.16 2569.19 1353.81 2569.88 1353.42C2570.58 1353.02 2570.93 1352.85 2571.02 1352.94L2571.76 1357.26C2571.76 1357.26 2571.41 1357.26 2571.15 1357.31C2570.67 1357.39 2570.32 1357.52 2570.1 1357.7C2569.93 1357.83 2569.53 1358.22 2568.97 1358.97C2568.75 1359.27 2568.97 1359.62 2569.58 1359.97C2570.32 1360.41 2571.06 1360.63 2571.81 1360.54C2572.99 1360.45 2573.9 1360.36 2574.52 1360.28C2576.83 1359.88 2578.89 1359.01 2580.81 1357.74C2581.16 1357.44 2581.55 1357.09 2581.9 1356.74L2570.71 1350.1L2564.34 1360.85L2562.81 1356.52L2570.28 1343.98L2583.78 1352.02L2583.26 1360.58C2583.26 1360.58 2583.26 1360.71 2583.21 1360.76C2582.99 1361.11 2582.25 1361.63 2580.94 1362.33C2579.32 1363.2 2577.66 1363.77 2576 1364.12C2573.95 1364.52 2572.38 1364.43 2571.24 1363.73C2570.15 1363.07 2569.19 1361.85 2568.4 1360.1C2567.48 1358.05 2567.44 1356.34 2568.27 1354.95C2568.44 1354.68 2568.57 1354.47 2568.66 1354.38H2568.62Z" fill="#1A458B"/>
<path d="M2581.51 1335.24C2581.99 1334.98 2582.38 1334.85 2582.64 1334.76C2583.56 1334.54 2584.26 1334.63 2584.83 1335.06C2585.75 1335.85 2585.92 1337.95 2585.22 1341.36C2585 1342.49 2585.09 1343.24 2585.53 1343.63C2586.45 1344.37 2587.41 1344.59 2588.46 1344.37C2589.33 1343.89 2590.2 1343.41 2591.08 1342.89L2591.6 1347.04C2591.65 1347.26 2591.08 1347.65 2589.94 1348.26C2588.63 1348.92 2587.45 1349.09 2586.49 1348.83C2586.18 1348.74 2585.88 1348.61 2585.62 1348.39C2584.96 1347.87 2584.57 1346.91 2584.48 1345.55C2584.48 1344.94 2584.48 1344.28 2584.48 1343.67C2581.77 1344.94 2579.76 1345.03 2578.45 1343.98C2576.44 1342.32 2575.96 1339.35 2577.01 1335.02C2577.36 1333.54 2577.71 1332.75 2578.01 1332.62C2578.58 1332.57 2579.1 1332.49 2579.54 1332.4C2580.72 1332.18 2581.51 1331.83 2581.99 1331.22C2582.51 1330.61 2582.77 1329.73 2582.77 1328.55C2582.77 1328.25 2582.77 1327.72 2582.64 1326.98C2583.34 1326.54 2583.78 1326.24 2584 1326.11C2585.05 1325.54 2585.83 1325.23 2586.45 1325.23C2587.19 1325.32 2587.89 1325.67 2588.59 1326.19L2598.33 1334.23L2597.46 1339.91L2585.48 1330.08C2585.05 1329.73 2584.17 1330 2582.95 1330.96C2582.82 1331.48 2582.73 1332.05 2582.6 1332.57C2582.21 1333.84 2581.73 1334.76 2581.16 1335.33C2580.68 1335.76 2579.89 1336.24 2578.71 1336.64C2578.32 1336.81 2577.79 1336.94 2577.18 1337.12C2577.27 1337.6 2577.36 1337.99 2577.44 1338.3C2577.71 1339.13 2578.06 1339.74 2578.49 1340.09C2578.58 1340.18 2578.71 1340.22 2578.75 1340.26C2579.41 1340.61 2580.63 1340.57 2582.43 1340.09C2582.6 1340.05 2583.43 1339.78 2584.96 1339.26C2584.96 1339.22 2584.92 1339.13 2584.92 1339.08C2584.79 1338.95 2584.7 1338.82 2584.52 1338.69C2583.87 1338.12 2583.08 1338.12 2582.21 1338.69C2582.08 1338.78 2581.9 1338.91 2581.68 1339.04L2581.55 1335.28L2581.51 1335.24Z" fill="#1A458B"/>
<path d="M2599.42 1342.71C2598.51 1341.84 2598.68 1340.74 2599.9 1339.48C2601.17 1338.21 2602.26 1337.99 2603.18 1338.91C2604.1 1339.78 2603.92 1340.88 2602.7 1342.14C2601.43 1343.41 2600.34 1343.63 2599.42 1342.71Z" fill="#1A458B"/>
<path d="M2598.59 1318.24C2599.12 1318.07 2599.51 1317.98 2599.82 1317.98C2600.73 1317.89 2601.43 1318.11 2601.91 1318.68C2602.7 1319.6 2602.48 1321.69 2601.21 1324.93C2600.78 1326.02 2600.78 1326.76 2601.13 1327.2C2601.87 1328.07 2602.79 1328.51 2603.88 1328.42C2604.84 1328.12 2605.76 1327.77 2606.72 1327.42L2606.5 1331.57C2606.5 1331.79 2605.93 1332.09 2604.62 1332.49C2603.22 1332.88 2602.05 1332.88 2601.13 1332.49C2600.82 1332.36 2600.6 1332.14 2600.34 1331.87C2599.77 1331.22 2599.55 1330.21 2599.73 1328.86C2599.86 1328.25 2599.95 1327.64 2600.08 1327.02C2597.19 1327.81 2595.18 1327.55 2594.09 1326.28C2592.39 1324.27 2592.43 1321.26 2594.22 1317.19C2594.84 1315.79 2595.32 1315.05 2595.67 1315.01C2596.23 1315.01 2596.71 1315.05 2597.19 1315.05C2598.37 1315.05 2599.25 1314.83 2599.77 1314.35C2600.38 1313.83 2600.78 1313 2601 1311.86C2601.04 1311.56 2601.13 1311.03 2601.13 1310.29C2601.87 1309.98 2602.39 1309.76 2602.61 1309.68C2603.75 1309.28 2604.58 1309.11 2605.19 1309.24C2605.93 1309.46 2606.55 1309.9 2607.16 1310.55L2615.37 1320.16L2613.49 1325.63L2603.4 1313.83C2603.01 1313.39 2602.13 1313.52 2600.73 1314.22C2600.52 1314.75 2600.3 1315.23 2600.12 1315.75C2599.51 1316.93 2598.86 1317.76 2598.24 1318.2C2597.72 1318.59 2596.85 1318.85 2595.62 1319.07C2595.18 1319.16 2594.66 1319.2 2594.05 1319.25C2594.05 1319.73 2594.05 1320.12 2594.09 1320.43C2594.18 1321.3 2594.44 1321.96 2594.79 1322.39C2594.88 1322.52 2594.97 1322.57 2595.01 1322.61C2595.62 1323.05 2596.85 1323.22 2598.68 1323.09C2598.86 1323.09 2599.73 1322.96 2601.3 1322.74C2601.3 1322.7 2601.3 1322.61 2601.3 1322.57C2601.21 1322.39 2601.13 1322.26 2601 1322.09C2600.43 1321.43 2599.69 1321.3 2598.72 1321.69C2598.55 1321.74 2598.37 1321.82 2598.16 1321.96L2598.68 1318.24H2598.59Z" fill="#1A458B"/>
<path d="M2617.47 1303.47L2609.91 1308.15L2611.22 1303.21L2619.96 1297.84L2628.7 1312.08L2625.9 1317.19L2617.47 1303.47Z" fill="#1A458B"/>
<path d="M2626.25 1297.79L2628.26 1293.9C2628.83 1293.99 2629.44 1294.03 2630.05 1294.08C2631.32 1294.38 2632.06 1294.82 2632.37 1295.48L2632.46 1295.65C2632.63 1296.44 2632.46 1298.1 2631.76 1300.72C2631.45 1301.9 2631.5 1302.77 2631.76 1303.47C2631.85 1303.65 2631.89 1303.82 2631.98 1303.95C2632.68 1305.09 2633.77 1305.83 2635.3 1306.31C2637.31 1306.92 2638.84 1307.01 2639.8 1306.57C2640.06 1306.53 2640.5 1306.09 2641.07 1305.31C2641.63 1304.52 2641.9 1304.08 2641.81 1303.95L2637.31 1293.29L2640.8 1288.62L2646 1300.94L2643.25 1302.9C2643.51 1302.9 2643.86 1302.82 2644.34 1302.73C2645.44 1302.6 2646.48 1302.73 2647.45 1303.21C2647.93 1303.47 2648.19 1303.65 2648.14 1303.69L2646.18 1307.58C2644.47 1306.05 2642.86 1305.61 2641.37 1306.22C2640.54 1306.57 2639.89 1307.45 2639.45 1308.8C2639.1 1309.94 2638.92 1310.55 2638.92 1310.64C2638.79 1310.73 2638.14 1310.73 2636.91 1310.64C2632.98 1310.46 2630.58 1309.37 2629.75 1307.45C2629.4 1306.62 2629.4 1305.57 2629.75 1304.35C2630.49 1301.68 2630.8 1300.06 2630.58 1299.5C2630.58 1299.41 2630.49 1299.32 2630.49 1299.19C2630.4 1299.1 2630.4 1299.06 2630.4 1299.02C2630.05 1298.18 2629.27 1297.7 2628 1297.62C2627.61 1297.62 2627.04 1297.62 2626.25 1297.75V1297.79Z" fill="#1A458B"/>
<path d="M2632.06 1287.83C2631.58 1287.65 2631.32 1287.39 2631.23 1287.17C2631.23 1287.09 2631.23 1286.95 2631.32 1286.82L2634.25 1282.72C2634.64 1282.19 2635.56 1281.71 2637 1281.23C2637.18 1281.19 2637.44 1281.1 2637.66 1281.06C2638.14 1280.88 2638.79 1280.84 2639.54 1280.88C2640.41 1280.97 2640.89 1281.14 2640.98 1281.49C2641.02 1281.67 2640.98 1281.8 2640.89 1281.97L2638.05 1286.61C2637.74 1287.09 2636.91 1287.57 2635.6 1288C2635.12 1288.13 2634.73 1288.27 2634.42 1288.31C2633.77 1288.44 2632.94 1288.31 2632.02 1287.87L2632.06 1287.83ZM2633.38 1284.94C2633.51 1285.34 2633.72 1285.6 2633.99 1285.69C2634.51 1285.86 2635.3 1285.86 2636.3 1285.73C2636.61 1285.73 2636.87 1285.64 2637.09 1285.56C2637.79 1285.34 2638.31 1284.99 2638.57 1284.46C2638.66 1284.29 2638.75 1284.07 2638.84 1283.81C2638.84 1283.72 2638.84 1283.63 2638.84 1283.55C2638.66 1283.02 2638.01 1282.85 2636.87 1283.11C2636.3 1283.24 2635.91 1283.37 2635.69 1283.42C2634.73 1283.72 2634.03 1284.11 2633.55 1284.55C2633.51 1284.68 2633.42 1284.77 2633.38 1284.9V1284.94Z" fill="#1A458B"/>
<path d="M2692.36 1281.71C2692.63 1281.71 2693.15 1281.97 2693.81 1282.41C2694.51 1282.85 2694.81 1283.07 2694.77 1283.15L2691.32 1285.86C2691.32 1285.86 2691.1 1285.56 2690.97 1285.34C2690.66 1284.94 2690.4 1284.73 2690.14 1284.6C2689.96 1284.51 2689.44 1284.38 2688.52 1284.2C2688.13 1284.16 2687.95 1284.46 2687.91 1285.21C2687.91 1286.08 2688.04 1286.82 2688.43 1287.48C2689.04 1288.48 2689.57 1289.23 2689.92 1289.71C2691.36 1291.54 2693.11 1292.99 2695.12 1294.08C2695.6 1294.25 2696.04 1294.43 2696.52 1294.56L2697.13 1281.54L2684.63 1280.97L2687.73 1277.6L2702.33 1278.26L2701.58 1293.95L2693.76 1297.49C2693.76 1297.49 2693.63 1297.53 2693.54 1297.49C2693.11 1297.49 2692.32 1297.05 2691.1 1296.22C2689.57 1295.17 2688.3 1293.99 2687.16 1292.68C2685.85 1291.06 2685.2 1289.62 2685.24 1288.31C2685.29 1287 2685.94 1285.6 2687.12 1284.07C2688.48 1282.28 2689.96 1281.45 2691.58 1281.54C2691.88 1281.54 2692.1 1281.54 2692.28 1281.62L2692.36 1281.71Z" fill="#1A458B"/>
<path d="M2697.17 1298.27C2697.17 1298.27 2697.52 1298.36 2697.7 1298.45C2698.96 1298.84 2699.84 1299.36 2700.23 1300.06C2700.45 1300.37 2700.54 1300.63 2700.49 1300.76L2700.1 1303.73L2695.29 1305.61L2695.77 1301.81C2695.77 1301.51 2695.77 1301.2 2695.55 1300.89C2695.38 1300.68 2694.94 1300.5 2694.29 1300.41C2694.03 1300.41 2693.76 1300.37 2693.54 1300.37L2697.13 1298.23L2697.17 1298.27Z" fill="#1A458B"/>
<path d="M2714.34 1280.75C2714.91 1281.23 2715.26 1281.62 2715.52 1281.93C2716.27 1282.85 2716.53 1283.81 2716.31 1284.68L2716.22 1284.95C2716.22 1284.95 2716.09 1285.16 2716.09 1285.21C2715.83 1285.73 2715 1286.52 2713.6 1287.44C2712.33 1288.31 2711.59 1289.1 2711.46 1289.71C2711.37 1290.14 2711.37 1290.58 2711.46 1291.02C2712.07 1293.47 2713.21 1295.43 2714.82 1296.87C2715.87 1297.79 2716.97 1298.4 2718.06 1298.71C2718.32 1298.8 2718.49 1298.8 2718.54 1298.71L2722.95 1280.71L2728.54 1279.09L2723.61 1299.19L2714.87 1301.07C2714.52 1301.16 2713.69 1300.76 2712.29 1299.89C2708.27 1297.35 2706.65 1294.6 2707.4 1291.54C2707.61 1290.76 2708.18 1289.97 2709.1 1289.27C2711.15 1287.74 2712.2 1286.65 2712.38 1286.08C2712.38 1285.95 2712.42 1285.82 2712.46 1285.69C2712.55 1285.08 2712.2 1284.42 2711.5 1283.77C2711.28 1283.59 2710.94 1283.28 2710.41 1282.98L2714.34 1280.75Z" fill="#1A458B"/>
<path d="M2733.44 1289.93C2733.05 1289.75 2732.74 1289.58 2732.56 1289.45L2736.02 1287.96C2736.72 1288.4 2737.2 1288.75 2737.46 1288.92C2739.29 1290.32 2739.86 1291.94 2739.12 1293.68L2736.72 1299.41C2736.72 1299.41 2737.37 1300.11 2738.33 1300.94C2739.25 1301.77 2740.26 1302.9 2741.26 1304.3C2741.52 1304.7 2741.78 1305.05 2742.05 1305.39L2746.2 1295.43L2751.92 1294.6L2745.46 1309.98L2739.73 1310.77C2739.64 1309.72 2739.34 1308.23 2738.86 1306.27C2738.55 1305.53 2737.94 1304.61 2736.98 1303.52C2736.67 1303.17 2736.24 1302.69 2735.62 1302.07L2734.27 1305.35L2728.46 1306.09C2728.46 1305.83 2728.54 1305.53 2728.54 1305.09C2728.68 1303.6 2728.63 1302.38 2728.37 1301.46C2728.28 1300.98 2727.98 1300.24 2727.54 1299.32C2727.36 1298.88 2727.15 1298.49 2726.88 1298.1C2727.23 1297.92 2727.54 1297.84 2727.8 1297.79C2728.46 1297.62 2729.03 1297.49 2729.51 1297.4C2730.34 1297.31 2731.04 1297.31 2731.65 1297.4C2731.69 1297.4 2731.82 1297.4 2732.08 1297.44L2734.4 1291.89C2734.71 1291.19 2734.4 1290.58 2733.44 1290.06V1289.93ZM2731.52 1298.71C2731.52 1298.71 2731.3 1298.53 2730.99 1298.36C2730.38 1298.1 2729.94 1297.97 2729.59 1297.92C2729.59 1297.97 2729.59 1298.05 2729.59 1298.1C2729.86 1298.32 2730.16 1298.75 2730.47 1299.41C2730.55 1299.58 2730.69 1299.93 2730.86 1300.37L2731.56 1298.67L2731.52 1298.71Z" fill="#1A458B"/>
<path d="M2746.29 1287.92C2746.11 1287.44 2746.11 1287.09 2746.2 1286.87C2746.2 1286.78 2746.33 1286.69 2746.5 1286.69L2751.49 1285.99C2752.14 1285.91 2753.15 1286.21 2754.46 1286.96C2754.63 1287.04 2754.85 1287.17 2755.07 1287.3C2755.55 1287.57 2755.99 1287.96 2756.47 1288.57C2756.99 1289.27 2757.21 1289.75 2757.03 1290.06C2756.95 1290.19 2756.82 1290.28 2756.6 1290.32L2751.31 1291.46C2750.74 1291.59 2749.82 1291.28 2748.6 1290.63C2748.16 1290.41 2747.81 1290.19 2747.6 1290.01C2747.07 1289.62 2746.59 1288.92 2746.29 1287.96V1287.92ZM2749.26 1286.91C2749.08 1287.26 2749.04 1287.61 2749.13 1287.87C2749.39 1288.4 2749.87 1288.97 2750.7 1289.58C2750.92 1289.75 2751.18 1289.88 2751.35 1290.01C2752.01 1290.36 2752.62 1290.49 2753.19 1290.36C2753.36 1290.36 2753.58 1290.23 2753.84 1290.1C2753.93 1290.01 2753.98 1289.97 2754.02 1289.93C2754.28 1289.4 2753.93 1288.83 2752.97 1288.18C2752.45 1287.83 2752.14 1287.65 2751.97 1287.52C2751.09 1287.04 2750.31 1286.78 2749.65 1286.78C2749.52 1286.78 2749.39 1286.87 2749.26 1286.87V1286.91Z" fill="#1A458B"/>
<path d="M2769.05 1331.74L2779.45 1322.17C2779.98 1321.69 2780.19 1321.17 2780.11 1320.64C2780.02 1320.25 2779.8 1319.73 2779.45 1319.07C2779.36 1318.9 2779.19 1318.63 2778.93 1318.2L2783.43 1318.42L2793.7 1329.52L2781.46 1340.83L2775.87 1339.08L2787.71 1328.16L2783.25 1323.35L2783.38 1325.36L2774.6 1333.45L2769.05 1331.7V1331.74Z" fill="#1A458B"/>
<path d="M2786.79 1348.7C2786.88 1348.96 2787.01 1349.31 2787.23 1349.75C2787.27 1349.88 2787.4 1350.05 2787.53 1350.36L2783.43 1349.05C2782.95 1348.92 2782.64 1348 2782.47 1346.38C2782.33 1345.07 2782.47 1344.24 2782.99 1343.93L2794.44 1335.76L2799.73 1338.17L2787.18 1347.12C2786.75 1347.47 2786.57 1348 2786.75 1348.74L2786.79 1348.7Z" fill="#1A458B"/>
<path d="M2789.59 1353.42L2793.96 1355.03C2792.39 1356.39 2792.12 1358 2793.17 1359.93C2793.78 1361.02 2794.44 1361.63 2795.18 1361.76C2795.71 1361.85 2796.32 1361.72 2796.93 1361.37C2798.46 1360.54 2799.64 1359.01 2800.47 1356.83C2801.87 1353.2 2802.04 1349.79 2800.95 1346.56C2800.82 1346.25 2800.64 1345.77 2800.43 1345.11L2805.06 1346.29L2812.31 1359.36L2807.55 1358L2805.41 1354.12C2805.41 1354.12 2805.28 1354.82 2805.01 1355.6C2804.1 1358.62 2802.7 1360.67 2800.77 1361.72C2800.08 1362.11 2799.46 1362.33 2798.85 1362.46C2796.27 1362.99 2793.35 1362.02 2790.11 1359.62C2789.94 1359.45 2789.81 1359.32 2789.72 1359.14C2789.24 1358.27 2789.06 1357.04 2789.15 1355.51C2789.28 1354.07 2789.41 1353.37 2789.59 1353.46V1353.42Z" fill="#1A458B"/>
<path d="M2689 1575.61C2602.44 1575.61 2532 1505.17 2532 1418.61C2532 1332.05 2602.44 1261.61 2689 1261.61C2775.56 1261.61 2846 1332.05 2846 1418.61C2846 1505.17 2775.56 1575.61 2689 1575.61ZM2689 1267.51C2605.67 1267.51 2537.9 1335.28 2537.9 1418.61C2537.9 1501.94 2605.67 1569.71 2689 1569.71C2772.33 1569.71 2840.1 1501.94 2840.1 1418.61C2840.1 1335.28 2772.33 1267.51 2689 1267.51Z" fill="#1A458B"/>
<path d="M2689 1568.4C2606.41 1568.4 2539.21 1501.2 2539.21 1418.61C2539.21 1336.03 2606.41 1268.82 2689 1268.82C2771.59 1268.82 2838.79 1336.03 2838.79 1418.61C2838.79 1501.2 2771.59 1568.4 2689 1568.4ZM2689 1270.39C2607.24 1270.39 2540.78 1336.86 2540.78 1418.61C2540.78 1500.37 2607.29 1566.83 2689 1566.83C2770.71 1566.83 2837.22 1500.37 2837.22 1418.61C2837.22 1336.86 2770.71 1270.39 2689 1270.39Z" fill="#1A458B"/>
<path d="M2687.51 1529.6C2625.9 1529.6 2575.78 1479.48 2575.78 1417.87C2575.78 1356.26 2625.9 1306.09 2687.51 1306.09C2749.13 1306.09 2799.25 1356.21 2799.25 1417.87C2799.25 1479.52 2749.13 1529.6 2687.51 1529.6ZM2687.51 1307.67C2626.73 1307.67 2577.31 1357.09 2577.31 1417.87C2577.31 1478.65 2626.73 1528.07 2687.51 1528.07C2748.3 1528.07 2797.72 1478.65 2797.72 1417.87C2797.72 1357.09 2748.3 1307.67 2687.51 1307.67Z" fill="#1A458B"/>
<path d="M2557.91 1421.32C2555.95 1421.32 2554.37 1419.75 2554.37 1417.78C2554.37 1415.82 2555.95 1414.24 2557.91 1414.24C2559.88 1414.24 2561.45 1415.86 2561.45 1417.78C2561.45 1419.7 2559.88 1421.32 2557.91 1421.32ZM2557.91 1414.72C2556.25 1414.72 2554.85 1416.08 2554.85 1417.78C2554.85 1419.49 2556.21 1420.84 2557.91 1420.84C2559.62 1420.84 2560.97 1419.49 2560.97 1417.78C2560.97 1416.08 2559.62 1414.72 2557.91 1414.72Z" fill="#1A458B"/>
<path d="M2564.86 1413.63C2563.24 1412.49 2561.23 1414.07 2561.23 1414.07H2561.19C2561.19 1414.07 2561.15 1413.98 2561.1 1413.98C2562.76 1412.19 2560.88 1408.52 2560.88 1408.52C2559.79 1406.86 2558.31 1402.79 2558.31 1402.79C2558.04 1404.37 2555.07 1408.65 2555.07 1408.65C2553.02 1412.14 2554.9 1413.89 2554.9 1413.89C2554.9 1413.89 2554.98 1413.89 2555.03 1413.89C2554.94 1413.94 2554.9 1414.02 2554.81 1414.07C2554.29 1413.76 2552.45 1412.71 2551.05 1413.67C2551.05 1413.67 2547.42 1417.34 2545.98 1417.82C2545.98 1417.82 2547.47 1418.61 2549.61 1420.36C2549.61 1420.36 2552.23 1423.37 2554.55 1421.36C2554.55 1421.36 2554.63 1421.41 2554.63 1421.45C2554.42 1421.76 2553.19 1423.55 2555.07 1426.74C2555.07 1426.74 2558.09 1431.02 2558.31 1432.59C2558.31 1432.59 2559.79 1428.57 2560.88 1426.87C2560.88 1426.87 2563.07 1423.2 2561.41 1421.36C2563.72 1423.37 2566.35 1420.36 2566.35 1420.36C2568.49 1418.61 2569.97 1417.82 2569.97 1417.82C2568.53 1417.34 2564.86 1413.67 2564.86 1413.67V1413.63ZM2557.91 1422.24C2555.46 1422.24 2553.45 1420.23 2553.45 1417.78C2553.45 1415.33 2555.46 1413.32 2557.91 1413.32C2560.36 1413.32 2562.37 1415.33 2562.37 1417.78C2562.37 1420.23 2560.36 1422.24 2557.91 1422.24Z" fill="#1A458B"/>
<path d="M2818.65 1421.32C2816.68 1421.32 2815.11 1419.75 2815.11 1417.78C2815.11 1415.82 2816.68 1414.24 2818.65 1414.24C2820.61 1414.24 2822.19 1415.86 2822.19 1417.78C2822.19 1419.7 2820.57 1421.32 2818.65 1421.32ZM2818.65 1414.72C2816.99 1414.72 2815.59 1416.08 2815.59 1417.78C2815.59 1419.49 2816.94 1420.84 2818.65 1420.84C2820.35 1420.84 2821.71 1419.49 2821.71 1417.78C2821.71 1416.08 2820.35 1414.72 2818.65 1414.72Z" fill="#1A458B"/>
<path d="M2825.59 1413.63C2823.98 1412.49 2821.97 1414.07 2821.97 1414.07H2821.92L2821.84 1413.98C2823.5 1412.19 2821.62 1408.52 2821.62 1408.52C2820.53 1406.86 2819.04 1402.79 2819.04 1402.79C2818.78 1404.37 2815.81 1408.65 2815.81 1408.65C2813.75 1412.14 2815.63 1413.89 2815.63 1413.89C2815.63 1413.89 2815.72 1413.89 2815.76 1413.89C2815.67 1413.94 2815.63 1414.02 2815.54 1414.07C2815.02 1413.76 2813.18 1412.71 2811.79 1413.67C2811.79 1413.67 2808.16 1417.34 2806.72 1417.82C2806.72 1417.82 2808.2 1418.61 2810.34 1420.36C2810.34 1420.36 2812.97 1423.37 2815.28 1421.36C2815.28 1421.36 2815.37 1421.41 2815.37 1421.45C2815.15 1421.76 2813.88 1423.55 2815.81 1426.74C2815.81 1426.74 2818.82 1431.02 2819.04 1432.59C2819.04 1432.59 2820.53 1428.57 2821.62 1426.87C2821.62 1426.87 2823.8 1423.2 2822.14 1421.36C2824.46 1423.37 2827.08 1420.36 2827.08 1420.36C2829.22 1418.61 2830.71 1417.82 2830.71 1417.82C2829.26 1417.34 2825.59 1413.67 2825.59 1413.67V1413.63ZM2818.65 1422.24C2816.2 1422.24 2814.19 1420.23 2814.19 1417.78C2814.19 1415.33 2816.2 1413.32 2818.65 1413.32C2821.09 1413.32 2823.1 1415.33 2823.1 1417.78C2823.1 1420.23 2821.09 1422.24 2818.65 1422.24Z" fill="#1A458B"/>
<path d="M2687.51 1526.1C2627.83 1526.1 2579.24 1477.51 2579.24 1417.82C2579.24 1358.14 2627.83 1309.55 2687.51 1309.55C2747.2 1309.55 2795.79 1358.14 2795.79 1417.82C2795.79 1477.51 2747.2 1526.1 2687.51 1526.1ZM2687.51 1314.48C2630.53 1314.48 2584.22 1360.85 2584.22 1417.82C2584.22 1474.8 2630.58 1521.12 2687.51 1521.12C2744.45 1521.12 2790.81 1474.76 2790.81 1417.82C2790.81 1360.89 2744.45 1314.48 2687.51 1314.48Z" fill="#1A458B"/>
<path d="M2663.22 1478.56C2663.22 1478.56 2657.8 1480.05 2657.15 1488C2657.15 1488 2657.01 1496 2663.61 1500.63C2663.61 1500.63 2668.16 1503.99 2671.78 1503.6C2671.78 1503.6 2675.59 1504.39 2678.95 1496.17C2678.95 1496.17 2680.83 1490.23 2680.74 1485.16L2681.83 1486.43C2681.83 1486.43 2681.53 1497.83 2676.55 1502.64C2676.55 1502.64 2673.88 1507.53 2666.15 1503.56C2666.15 1503.56 2656.71 1499.89 2656.36 1488.22C2656.36 1488.22 2656.45 1479.57 2663.39 1477.47C2663.39 1477.47 2663.53 1478.13 2663.22 1478.52V1478.56Z" fill="#1A458B"/>
<path d="M2712.95 1453.87C2712.95 1453.87 2703.42 1454.4 2701.06 1463.84C2701.06 1463.84 2699.79 1467.86 2701.85 1473.41C2701.85 1473.41 2703.64 1479.13 2701.98 1482.63C2701.98 1482.63 2707.48 1481.18 2708.14 1474.98C2708.14 1474.98 2708.88 1472.49 2707.92 1465.1C2707.92 1465.1 2707.75 1458.86 2713.51 1456.76L2712.99 1453.96L2712.95 1453.87Z" fill="#1A458B"/>
<path d="M2729.38 1460.6L2727.5 1457.81C2727.5 1457.81 2730.47 1455.1 2729.81 1450.86C2729.81 1450.86 2729.38 1447.76 2726.8 1447.84C2726.8 1447.84 2723.08 1448.15 2724.61 1452.78C2724.61 1452.78 2719.11 1452 2718.8 1446.18C2718.8 1446.18 2718.93 1442.78 2721.03 1441.64C2721.03 1441.64 2723.39 1439.85 2725.27 1441.07C2725.27 1441.07 2724.22 1436.96 2729.42 1431.81C2729.42 1431.81 2732.78 1427.7 2736.32 1426.96C2736.32 1426.96 2734.44 1428.01 2733.48 1430.89C2733.48 1430.89 2732.74 1432.64 2733.31 1436.96C2733.31 1436.96 2733.83 1441.25 2731.3 1443.26C2731.3 1443.26 2731.65 1443.87 2733.09 1441.95C2733.09 1441.95 2734.05 1440.37 2735.32 1440.77C2735.32 1440.77 2733.66 1440.94 2734.27 1444.83C2734.27 1444.83 2735.67 1449.29 2734.14 1453.7C2734.14 1453.7 2732.35 1457.68 2729.46 1460.6H2729.38Z" fill="#1A458B"/>
<path d="M2724.7 1426.08C2724.7 1426.08 2727.89 1416.51 2723.13 1406.59C2723.13 1406.59 2723.56 1410.53 2721.64 1413.46C2721.64 1413.46 2718.93 1417.21 2718.84 1418.96C2718.84 1418.96 2718.84 1417.21 2716.79 1415.99C2716.79 1415.99 2717.58 1417.82 2716.14 1418.7C2716.14 1418.7 2714.13 1421.5 2714.21 1423.29C2714.21 1423.29 2714.13 1425.82 2715.39 1426.96C2715.39 1426.96 2715.52 1424.25 2717.45 1424.29C2717.45 1424.29 2719.63 1424.47 2719.5 1427.92C2719.5 1427.92 2718.8 1432.07 2716.79 1435.08C2716.79 1435.08 2716.48 1432.29 2714.34 1430.1C2714.34 1430.1 2711.63 1428.14 2709.32 1429.32C2709.32 1429.32 2709.32 1423.2 2710.72 1418.57C2710.72 1418.57 2712.33 1413.59 2716.22 1413.32C2716.22 1413.32 2718.19 1413.63 2718.76 1415.51C2718.76 1415.51 2718.76 1414.37 2720.02 1412.1C2720.02 1412.1 2723.48 1406.59 2718.28 1393.62C2718.28 1393.62 2718.71 1398.12 2717.18 1401.09C2717.18 1401.09 2715.39 1404.63 2716.27 1406.33C2716.27 1406.33 2716.92 1408.08 2715.31 1409.04C2715.31 1409.04 2715.61 1407.47 2714.26 1405.68C2714.26 1405.68 2714.65 1407.34 2713.99 1407.82C2713.99 1407.82 2711.29 1410.66 2710.76 1412.41C2710.76 1412.41 2706.87 1407.43 2695.42 1406.07L2695.99 1407.91C2695.99 1407.91 2700.62 1408.3 2703.86 1410.83C2703.86 1410.83 2705.04 1412.76 2704.38 1414.64C2704.38 1414.64 2707.18 1415.86 2707.53 1419.09C2707.53 1419.09 2707.75 1423.68 2707.75 1427.44C2707.75 1427.44 2708.14 1434.56 2705.43 1437.44C2705.43 1437.44 2704.86 1438.1 2704.03 1438.36C2704.03 1438.36 2702.85 1438.76 2703.24 1439.63C2703.24 1439.63 2703.55 1440.98 2704.91 1440.46C2704.91 1440.46 2707.18 1439.41 2708.62 1435.26C2708.62 1435.26 2709.45 1432.68 2709.32 1430.72C2709.32 1430.72 2711.72 1429.23 2713.6 1431.94C2713.6 1431.94 2715.13 1434.74 2714.65 1437.97C2714.65 1437.97 2713.95 1442.86 2713.38 1445.79C2713.38 1445.79 2711.9 1451.6 2713.38 1457.15C2713.38 1457.15 2714.47 1462.35 2719.5 1463.44C2719.5 1463.44 2721.51 1464.14 2723.3 1463.18C2723.3 1463.18 2723.26 1461.91 2722.08 1460.95C2722.08 1460.95 2716.14 1462.18 2715.17 1455.75C2715.17 1455.75 2713.16 1448.15 2717.84 1439.67C2717.84 1439.67 2722.95 1431.63 2724.61 1425.95L2724.7 1426.08ZM2708.66 1416.51C2708.66 1416.51 2707.92 1414.5 2706.35 1413.41C2706.35 1413.41 2706.52 1411.97 2706.04 1411.05C2706.04 1411.05 2708.4 1412.1 2709.76 1413.98C2709.76 1413.98 2708.66 1415.68 2708.66 1416.56V1416.51Z" fill="#1A458B"/>
<path d="M2644.87 1460.25L2647.23 1457.5C2647.23 1457.5 2644.39 1455.1 2645.04 1450.86C2645.04 1450.86 2645.48 1447.76 2648.06 1447.84C2648.06 1447.84 2651.77 1448.15 2650.24 1452.78C2650.24 1452.78 2655.75 1452 2656.05 1446.18C2656.05 1446.18 2655.92 1442.78 2653.82 1441.64C2653.82 1441.64 2651.47 1439.85 2649.59 1441.07C2649.59 1441.07 2650.64 1436.96 2645.44 1431.81C2645.44 1431.81 2642.07 1427.7 2638.53 1426.96C2638.53 1426.96 2640.41 1428.01 2641.37 1430.89C2641.37 1430.89 2642.11 1432.64 2641.55 1436.96C2641.55 1436.96 2641.02 1441.25 2643.56 1443.26C2643.56 1443.26 2643.21 1443.87 2641.76 1441.95C2641.76 1441.95 2640.8 1440.37 2639.54 1440.77C2639.54 1440.77 2641.2 1440.94 2640.58 1444.83C2640.58 1444.83 2639.19 1449.29 2640.72 1453.7C2640.72 1453.7 2641.9 1457.33 2644.78 1460.25H2644.87Z" fill="#1A458B"/>
<path d="M2656.93 1439.8C2661.56 1448.28 2659.59 1455.88 2659.59 1455.88C2658.63 1462.31 2652.86 1461.22 2652.86 1461.22C2651.68 1462.22 2651.51 1463.31 2651.51 1463.31C2653.3 1464.27 2655.31 1463.57 2655.31 1463.57C2660.38 1462.48 2661.43 1457.28 2661.43 1457.28C2662.91 1451.73 2661.43 1445.92 2661.43 1445.92C2660.86 1442.99 2660.16 1438.1 2660.16 1438.1C2659.64 1434.87 2661.21 1432.07 2661.21 1432.07C2663.09 1429.36 2665.49 1430.85 2665.49 1430.85C2665.36 1432.77 2666.19 1435.39 2666.19 1435.39C2667.63 1439.54 2669.86 1440.59 2669.86 1440.59C2671.22 1441.11 2671.52 1439.76 2671.52 1439.76C2671.92 1438.84 2670.74 1438.49 2670.74 1438.49C2669.91 1438.23 2669.34 1437.58 2669.34 1437.58C2666.63 1434.69 2667.02 1427.57 2667.02 1427.57C2667.02 1423.81 2667.2 1419.22 2667.2 1419.22C2667.59 1415.99 2670.34 1414.77 2670.34 1414.77C2669.69 1412.89 2670.87 1410.96 2670.87 1410.96C2674.1 1408.43 2679.08 1408.04 2679.08 1408.04L2679.65 1406.2C2668.2 1407.56 2664.01 1412.54 2664.01 1412.54C2663.48 1410.79 2660.77 1407.95 2660.77 1407.95C2660.12 1407.51 2660.51 1405.81 2660.51 1405.81C2659.16 1407.6 2659.46 1409.17 2659.46 1409.17C2657.85 1408.21 2658.5 1406.46 2658.5 1406.46C2659.42 1404.8 2657.58 1401.22 2657.58 1401.22C2656.01 1398.25 2656.49 1393.75 2656.49 1393.75C2651.29 1406.73 2654.74 1412.23 2654.74 1412.23C2656.01 1414.5 2656.05 1415.64 2656.05 1415.64C2656.62 1413.76 2658.59 1413.46 2658.59 1413.46C2662.48 1413.72 2664.09 1418.7 2664.09 1418.7C2665.54 1423.29 2665.54 1429.45 2665.54 1429.45C2663.22 1428.27 2660.51 1430.23 2660.51 1430.23C2658.37 1432.42 2658.06 1435.22 2658.06 1435.22C2656.05 1432.16 2655.35 1428.05 2655.35 1428.05C2655.22 1424.6 2657.41 1424.42 2657.41 1424.42C2659.33 1424.38 2659.46 1427.09 2659.46 1427.09C2660.69 1425.91 2660.64 1423.42 2660.64 1423.42C2660.73 1421.63 2658.72 1418.83 2658.72 1418.83C2657.28 1417.91 2658.06 1416.12 2658.06 1416.12C2656.01 1417.34 2656.01 1419.09 2656.01 1419.09C2655.92 1417.34 2653.21 1413.59 2653.21 1413.59C2651.29 1410.66 2651.73 1406.73 2651.73 1406.73C2646.96 1416.65 2650.15 1426.21 2650.15 1426.21C2651.86 1431.85 2656.93 1439.94 2656.93 1439.94V1439.8ZM2665.1 1413.94C2666.45 1412.1 2668.81 1411.01 2668.81 1411.01C2668.33 1411.93 2668.51 1413.37 2668.51 1413.37C2666.89 1414.5 2666.19 1416.47 2666.19 1416.47C2666.19 1415.6 2665.1 1413.89 2665.1 1413.89V1413.94Z" fill="#1A458B"/>
<path d="M2689.44 1320.56C2689.44 1321.56 2688.61 1322.35 2687.65 1322.35C2686.68 1322.35 2685.85 1321.52 2685.85 1320.56C2685.85 1319.6 2686.68 1318.72 2687.65 1318.72C2688.61 1318.72 2689.44 1319.55 2689.44 1320.56Z" fill="#1A458B"/>
<path d="M2687.65 1323.14C2687.65 1323.14 2689.79 1334.32 2690.36 1338.21C2690.36 1338.21 2688.48 1339.91 2687.56 1340.92C2687.56 1340.92 2685.77 1338.91 2684.54 1338.39C2684.54 1338.39 2685.59 1332.62 2687.65 1323.14Z" fill="#1A458B"/>
<path d="M2657.8 1484.29C2657.8 1484.29 2663.39 1484.37 2665.4 1478.56C2665.4 1478.56 2666.32 1475.59 2664.09 1472.88C2664.09 1472.88 2661.86 1470.61 2658.89 1471.44C2658.89 1471.44 2660.9 1468.08 2664.31 1468.77C2664.31 1468.77 2668.38 1469.47 2669.64 1474.72C2669.64 1474.72 2670.56 1480.09 2667.68 1483.19C2667.68 1483.19 2663.74 1488.87 2657.01 1487.91L2657.8 1484.33V1484.29Z" fill="#1A458B"/>
<path d="M2713.82 1458.59C2713.82 1458.59 2710.41 1460.08 2710.37 1465.5C2710.37 1465.5 2710.67 1468.6 2710.94 1470.87C2710.94 1470.87 2711.59 1475.77 2709.58 1478.87C2709.58 1478.87 2707.7 1482.01 2703.99 1483.94C2703.99 1483.94 2700.4 1485.68 2698.31 1486.12C2698.31 1486.12 2699.09 1484.37 2699.62 1482.76C2699.62 1482.76 2700.84 1479.65 2699.49 1474.89C2699.49 1474.89 2698.96 1473.01 2698.48 1470.52C2698.48 1470.52 2696.78 1465.02 2699.88 1459.6C2699.88 1459.6 2703.51 1452.34 2712.68 1451.86V1452.91C2712.68 1452.91 2706.26 1452.91 2701.37 1459.07C2701.37 1459.07 2698.79 1463.22 2699.18 1467.73C2699.18 1467.73 2699.88 1471.7 2700.45 1474.37C2700.45 1474.37 2702.11 1481.53 2699.97 1484.42C2699.97 1484.42 2704.47 1483.76 2708.27 1478.87C2708.27 1478.87 2710.59 1475.72 2710.02 1471.13C2710.02 1471.13 2709.28 1467.07 2709.45 1464.45C2709.45 1464.45 2710.06 1459.2 2713.73 1457.54L2713.86 1458.51L2713.82 1458.59Z" fill="#1A458B"/>
<path d="M2658.19 1483.28C2658.19 1483.28 2662.48 1483.06 2664.05 1478.65C2664.05 1478.65 2665.32 1474.76 2662.08 1472.93C2662.08 1472.93 2659.51 1471.92 2657.5 1472.71C2657.5 1472.71 2657.85 1468.21 2663 1467.55C2663 1467.55 2668.68 1467.51 2670.6 1473.19C2670.6 1473.19 2672.05 1477.25 2670.04 1481.93C2670.04 1481.93 2666.28 1489.66 2657.06 1488.87L2657.15 1489.75C2657.15 1489.75 2664.44 1490.88 2669.29 1484.85C2669.29 1484.85 2673.84 1480.14 2671.43 1472.49C2671.43 1472.49 2668.77 1466.41 2662.91 1466.9C2662.91 1466.9 2656.62 1466.94 2656.53 1474.11C2656.53 1474.11 2660.25 1472.31 2662.21 1474.37C2662.21 1474.37 2664.79 1476.64 2662.35 1480.14C2662.35 1480.14 2660.07 1482.5 2658.5 1482.45L2658.19 1483.33V1483.28Z" fill="#1A458B"/>
<path d="M2653.96 1481.4C2653.96 1481.4 2649.67 1478.78 2648.93 1471.79C2648.93 1471.79 2648.23 1464.58 2655.97 1460.04C2655.97 1460.04 2663.44 1456.28 2669.91 1460.43C2669.91 1460.43 2675.5 1463.57 2678.64 1470C2678.64 1470 2680.09 1472.31 2680.79 1478.26L2682.01 1479.44C2682.01 1479.44 2681.88 1472.23 2677.29 1466.33C2677.29 1466.33 2672.75 1459.07 2664.71 1457.63C2664.71 1457.63 2659.16 1456.76 2654.61 1459.55C2654.61 1459.55 2649.11 1462.57 2648.06 1469.65C2648.06 1469.65 2646.83 1476.86 2653.52 1482.32L2653.96 1481.4Z" fill="#1A458B"/>
<path d="M2663.53 1476.99C2663.53 1476.99 2657.5 1477.73 2655.83 1485.6C2655.83 1485.6 2654.52 1491.28 2658.02 1497.35C2658.02 1497.35 2661.78 1504.21 2669.47 1506.09C2669.47 1506.09 2674.01 1507.05 2676.37 1504.47C2676.37 1504.47 2680.96 1501.24 2682.45 1492.33C2682.45 1492.33 2683.23 1488.83 2683.01 1487.52C2683.01 1487.52 2687.43 1493.33 2688.39 1495.87C2688.39 1495.87 2687.82 1501.94 2683.01 1508.67C2683.01 1508.67 2678.95 1514.61 2672.53 1512.47C2672.53 1512.47 2663.74 1510.33 2656.8 1500.19C2656.8 1500.19 2652.95 1494.34 2653.56 1488.22C2653.56 1488.22 2653.39 1482.28 2658.11 1478.13C2658.11 1478.13 2661.17 1475.59 2663.26 1475.55L2663.44 1476.99H2663.53Z" fill="#1A458B"/>
<path d="M2671.74 1473.84C2671.74 1473.84 2676.98 1474.5 2682.62 1479.61C2682.62 1479.61 2689.04 1485.51 2692.54 1489.36C2692.54 1489.36 2698.44 1496.08 2699.97 1497.57C2699.97 1497.57 2702.11 1499.84 2703.2 1499.84C2703.2 1499.84 2704.25 1500.5 2710.59 1494.42C2710.59 1494.42 2716.62 1488.87 2720.24 1480.66C2720.24 1480.66 2723.91 1473.8 2724.04 1467.9C2724.04 1467.9 2724.31 1461.87 2720.81 1459.77C2720.81 1459.77 2718.45 1457.98 2715.79 1457.98L2715.39 1457.33C2715.39 1457.33 2717.71 1456.58 2721.73 1459.51C2721.73 1459.51 2724.96 1462.31 2724.87 1467.29C2724.87 1467.29 2725.18 1472.97 2720.55 1482.15C2720.55 1482.15 2716.66 1489.53 2712.99 1493.46C2712.99 1493.46 2706.13 1501.42 2703.25 1501.2C2703.25 1501.2 2702.37 1501.28 2700.67 1500.1C2700.67 1500.1 2699.92 1499.23 2693.76 1492.02C2693.76 1492.02 2689.39 1486.65 2685.55 1483.11C2685.55 1483.11 2679.26 1477.6 2677.33 1476.9C2677.33 1476.9 2673.4 1474.54 2671.7 1474.76V1473.93L2671.74 1473.84Z" fill="#1A458B"/>
<path d="M2714.82 1453.79C2714.82 1453.79 2721.2 1453.61 2725.05 1458.33C2725.05 1458.33 2728.94 1462.26 2728.98 1469.69C2728.98 1469.69 2729.07 1476.16 2726.14 1483.33C2726.14 1483.33 2723 1491.41 2719.15 1496C2719.15 1496 2713.12 1503.91 2709.62 1506.79C2709.62 1506.79 2705.3 1510.64 2703.33 1511.38C2703.33 1511.38 2701.15 1512.73 2698.05 1509.28C2698.05 1509.28 2696.56 1507.88 2694.59 1503.12C2694.59 1503.12 2690.75 1495.47 2686.51 1489.05C2686.51 1489.05 2679.39 1479.7 2671.92 1477.95L2672.18 1475.59C2672.18 1475.59 2677.51 1476.38 2683.71 1482.58C2683.71 1482.58 2688.61 1486.86 2692.5 1492.11C2692.5 1492.11 2696.56 1497.48 2698.22 1499.45C2698.22 1499.45 2700.58 1502.38 2702.59 1502.42C2702.59 1502.42 2705.17 1503.16 2710.06 1498.36C2710.06 1498.36 2716.35 1492.72 2720.11 1485.82C2720.11 1485.82 2724.18 1479.7 2725.66 1471.88C2725.66 1471.88 2727.41 1465.58 2724.22 1460.78C2724.22 1460.78 2722.12 1456.89 2715.26 1456.32L2714.91 1453.83L2714.82 1453.79Z" fill="#1A458B"/>
<path d="M2714.52 1451.91C2714.52 1451.91 2720.02 1451.6 2725.01 1455.62C2725.01 1455.62 2729.16 1459.03 2730.12 1463.36C2730.12 1463.36 2731.95 1467.64 2730.73 1475.15C2730.73 1475.15 2729.51 1483.76 2724.57 1491.58C2724.57 1491.58 2719.98 1499.36 2717.01 1502.68C2717.01 1502.68 2712.68 1507.79 2708.4 1511.07C2708.4 1511.07 2704.6 1514.52 2702.2 1514.22C2702.2 1514.22 2697.96 1514.7 2694.24 1508.1C2694.24 1508.1 2691.62 1502.77 2690.18 1499.67C2690.18 1499.67 2686.73 1492.76 2682.62 1487.52C2682.62 1487.52 2678.99 1482.15 2671.74 1479.61V1478.74C2671.74 1478.74 2677.03 1480.09 2682.05 1485.38C2686.82 1490.75 2686.33 1491.15 2688.96 1495.25C2688.96 1495.25 2691.67 1499.97 2692.89 1502.86C2692.89 1502.86 2694.37 1505.78 2695.47 1507.66C2695.47 1507.66 2697.52 1511.29 2699.97 1512.43C2699.97 1512.43 2702.07 1513.83 2704.95 1512.25C2704.95 1512.25 2709.23 1509.72 2715.31 1503.08C2715.31 1503.08 2719.5 1498.44 2724.35 1490.1C2724.35 1490.1 2727.67 1484.24 2729.33 1476.6C2729.33 1476.6 2731.56 1469.34 2728.81 1462.48C2728.81 1462.48 2726.97 1457.72 2723.13 1455.27C2723.13 1455.27 2718.84 1452.65 2714.56 1452.74V1451.86L2714.52 1451.91Z" fill="#1A458B"/>
<path d="M2662.91 1474.8C2662.91 1474.8 2657.01 1476.25 2654.44 1481.58C2654.44 1481.58 2651.47 1486.69 2653.39 1494.34C2653.39 1494.34 2655.53 1501.24 2660.9 1506.44C2660.9 1506.44 2667.81 1513.39 2675.89 1513.83C2675.89 1513.83 2680.17 1513.56 2682.93 1510.42C2682.93 1510.42 2686.73 1506.53 2689.26 1498.18L2689.79 1498.97C2689.79 1498.97 2688.17 1504.69 2683.58 1510.55C2683.58 1510.55 2680.87 1514.61 2675.54 1514.48C2675.54 1514.48 2671.3 1514.83 2665.32 1510.68C2665.32 1510.68 2657.71 1506.44 2654 1497.7C2654 1497.7 2651.47 1492.94 2651.99 1487.78C2651.99 1487.78 2652.43 1480.79 2657.23 1477.12C2657.23 1477.12 2659.64 1474.94 2662.61 1474.32L2662.83 1474.8H2662.91Z" fill="#1A458B"/>
<path d="M2683.32 1480.44C2683.32 1480.44 2683.71 1473.1 2677.29 1464.27C2677.29 1464.27 2674.06 1459.69 2667.72 1457.28C2667.72 1457.28 2662.35 1455.4 2657.45 1456.89C2657.45 1456.89 2652.21 1457.94 2648.54 1463.92C2648.54 1463.92 2645.74 1468.95 2647.14 1474.59C2647.14 1474.59 2648.36 1480.14 2653.17 1483.15L2652.38 1486.34C2652.38 1486.34 2646.7 1484.07 2644.65 1477.25C2644.65 1477.25 2641.94 1470.04 2645.09 1463.4C2645.09 1463.4 2649.59 1454.18 2659.11 1453.66C2659.11 1453.66 2665.1 1451.65 2674.36 1458.24C2674.36 1458.24 2680.52 1462.35 2684.37 1469.04C2684.37 1469.04 2690.18 1479.17 2689.35 1486.17L2683.32 1480.4V1480.44Z" fill="#1A458B"/>
<path d="M2652.43 1487.21C2652.43 1487.21 2645.87 1485.29 2643.25 1476.2C2643.25 1476.2 2640.98 1470.3 2643.69 1463.53C2643.69 1463.53 2646.66 1455.62 2654.61 1453.52C2654.61 1453.52 2662.91 1450.73 2669.56 1454.27C2669.56 1454.27 2676.85 1457.59 2682.71 1464.71C2682.71 1464.71 2686.6 1469.17 2689.79 1478.13C2689.79 1478.13 2691.4 1484.24 2691.1 1488.48L2692.06 1489.49C2692.06 1489.49 2693.15 1478.26 2684.81 1466.46C2684.81 1466.46 2679.56 1457.15 2667.81 1452.83C2667.81 1452.83 2661.6 1450.12 2653.34 1452.83C2653.34 1452.83 2643.43 1455.93 2641.5 1467.51C2641.5 1467.51 2640.02 1474.89 2644.6 1481.88C2644.6 1481.88 2647.93 1487.35 2652.25 1488.13L2652.38 1487.26L2652.43 1487.21Z" fill="#1A458B"/>
<path d="M2687.51 1343.72C2687.51 1343.72 2687.69 1342.14 2690.49 1340.61C2690.49 1340.61 2691.8 1340 2692.36 1338.95C2692.36 1338.95 2693.15 1343.02 2690.92 1345.07C2690.92 1345.07 2688.83 1347.3 2687.6 1349.75L2687.51 1343.72Z" fill="#1A458B"/>
<path d="M2687.56 1343.72C2687.56 1343.72 2687.43 1342.14 2684.63 1340.61C2684.63 1340.61 2683.32 1340 2682.75 1338.95C2682.75 1338.95 2681.97 1343.02 2684.19 1345.07C2684.19 1345.07 2686.38 1347.3 2687.65 1349.75V1343.72H2687.56Z" fill="#1A458B"/>
<path d="M2680.39 1349.7H2685.81C2685.81 1349.7 2684.59 1346.95 2681.75 1344.68C2681.75 1344.68 2682.62 1347.43 2680.39 1349.7Z" fill="#1A458B"/>
<path d="M2694.81 1349.7H2689.39C2689.39 1349.7 2690.62 1346.95 2693.46 1344.68C2693.46 1344.68 2692.58 1347.43 2694.81 1349.7Z" fill="#1A458B"/>
<path opacity="0.99" d="M2695.99 1351.14H2679.08C2677.86 1351.14 2676.85 1352.15 2676.85 1353.33C2676.85 1354.51 2677.86 1355.56 2679.08 1355.56H2695.99C2697.21 1355.56 2698.22 1354.55 2698.22 1353.33C2698.22 1352.11 2697.21 1351.14 2695.99 1351.14ZM2679.34 1354.33C2679.34 1354.33 2677.07 1353.29 2679.43 1352.02L2682.62 1352.11C2682.62 1352.11 2681.48 1353.55 2682.84 1354.33H2679.3H2679.34ZM2689.87 1354.38H2685.15C2684.5 1354.38 2683.97 1353.85 2683.97 1353.2C2683.97 1352.54 2684.5 1352.02 2685.15 1352.02H2689.87C2690.53 1352.02 2691.05 1352.54 2691.05 1353.2C2691.05 1353.85 2690.53 1354.38 2689.87 1354.38ZM2695.69 1354.33H2692.15C2693.5 1353.55 2692.36 1352.11 2692.36 1352.11L2695.55 1352.02C2697.91 1353.29 2695.64 1354.33 2695.64 1354.33H2695.69Z" fill="#1A458B"/>
<path d="M2678.86 1356.39H2686.29C2686.29 1356.39 2683.49 1359.75 2682.31 1361.81C2682.31 1361.81 2681.97 1360.32 2681.31 1359.4C2681.31 1359.4 2679.08 1356.87 2678.91 1356.39H2678.86Z" fill="#1A458B"/>
<path d="M2695.73 1356.52L2688.3 1356.26C2688.3 1356.26 2691.01 1359.71 2692.1 1361.85C2692.1 1361.85 2692.5 1360.36 2693.2 1359.45C2693.2 1359.45 2695.51 1357 2695.73 1356.52Z" fill="#1A458B"/>
<path d="M2685.11 1447.76H2689.22C2689.22 1447.76 2689.57 1448.46 2688.96 1448.63V1450.25C2688.96 1450.25 2688.65 1450.82 2688.34 1450.82H2685.81C2685.81 1450.82 2685.37 1450.55 2685.42 1450.12V1448.5C2685.42 1448.5 2684.76 1448.37 2685.11 1447.76Z" fill="#1A458B"/>
<path d="M2685.85 1451.25H2688.3L2688.39 1451.91C2688.39 1451.91 2689.22 1452.39 2688.74 1453.7C2688.74 1453.7 2687.34 1456.8 2687.12 1457.06C2687.12 1457.06 2685.64 1454.4 2685.29 1452.91C2685.29 1452.91 2685.29 1452.26 2685.77 1451.86L2685.85 1451.25Z" fill="#1A458B"/>
<path d="M2688.96 1437.18H2685.55V1439.37H2688.96V1437.18Z" fill="#1A458B"/>
<path d="M2679.52 1429.1C2679.52 1429.1 2678.03 1431.11 2678.64 1435.39C2678.64 1435.39 2679.17 1439.32 2683.71 1441.51C2683.71 1441.51 2689.13 1443.87 2693.19 1440.02C2693.19 1440.02 2698.44 1435.65 2695.29 1429.49C2695.29 1429.49 2697.13 1427.13 2696.08 1422.54C2696.08 1422.54 2697.3 1423.77 2697.3 1426.04C2697.3 1426.04 2698 1424.99 2697.74 1423.68C2697.74 1423.68 2699.4 1424.82 2699.31 1427.26C2699.31 1427.26 2699.22 1428.75 2696.87 1430.67C2696.87 1430.67 2696.38 1432.51 2697.65 1431.89C2697.65 1431.89 2700.58 1429.75 2700.54 1427.57C2700.54 1427.57 2702.63 1430.37 2701.58 1432.46C2701.58 1432.46 2700.62 1434.47 2699.92 1434.87C2699.92 1434.87 2701.15 1434.95 2701.63 1433.64C2701.63 1433.64 2702.5 1437.31 2697.91 1437.88C2697.91 1437.88 2696.47 1438.19 2695.9 1437.92C2695.9 1437.92 2695.07 1438.76 2695.82 1439.02C2695.82 1439.02 2698.18 1440.15 2700.84 1438.32C2700.84 1438.32 2700.06 1441.46 2697.7 1442.82C2697.7 1442.82 2696.56 1443.17 2695.55 1442.95C2695.55 1442.95 2696.12 1443.87 2697.39 1443.61C2697.39 1443.61 2696.04 1446.01 2693.59 1445.18C2693.59 1445.18 2691.49 1444.3 2690.4 1442.47C2690.4 1442.47 2689.09 1442.21 2689.35 1443.52C2689.35 1443.52 2690.05 1445.88 2693.33 1446.18C2693.33 1446.18 2691.23 1448.02 2688.61 1447.41C2688.61 1447.41 2687.16 1446.97 2686.25 1445.53C2686.25 1445.53 2686.33 1446.84 2686.9 1447.49C2686.9 1447.49 2685.02 1447.8 2683.23 1444.7C2683.23 1444.7 2682.75 1443.52 2683.23 1442.34C2683.23 1442.34 2682.97 1441.03 2681.92 1442.03C2681.92 1442.03 2680.79 1443.61 2682.58 1446.66C2682.58 1446.66 2677.29 1445.7 2678.08 1441.77C2678.08 1441.77 2677.29 1442.56 2677.29 1443.74C2677.29 1443.74 2675.15 1441.51 2676.37 1438.62C2676.37 1438.62 2677.29 1436.7 2678.21 1436.53C2678.21 1436.53 2678.29 1435.3 2677.51 1435.48C2677.51 1435.48 2674.58 1436.92 2674.45 1440.2C2674.45 1440.2 2671.39 1435.87 2674.58 1432.68C2674.58 1432.68 2673.14 1433.03 2672.75 1433.82C2672.75 1433.82 2672.79 1429.45 2675.76 1429.19C2675.76 1429.19 2677.51 1429.1 2678.03 1429.97C2678.03 1429.97 2678.95 1429.23 2678.16 1428.53C2678.16 1428.53 2676.07 1426.65 2673.84 1428.62C2673.84 1428.62 2674.49 1424.82 2677.77 1424.16C2677.77 1424.16 2678.91 1424.55 2678.73 1426C2678.73 1426 2678.43 1427.92 2679.52 1429.14V1429.1Z" fill="#1A458B"/>
<path d="M2679.78 1430.32C2679.78 1430.32 2678.73 1433.07 2679.61 1435.57C2679.61 1435.57 2680.57 1439.67 2685.42 1441.2C2685.42 1441.2 2690.27 1442.08 2693.06 1438.71C2693.06 1438.71 2696.38 1435.91 2694.9 1430.72L2693.81 1431.72C2693.81 1431.72 2694.29 1434.69 2692.63 1437.01C2692.63 1437.01 2690.66 1440.02 2687.38 1439.93C2687.38 1439.93 2683.54 1440.07 2681.22 1436.09C2681.22 1436.09 2680.3 1433.47 2680.83 1431.59L2679.78 1430.37V1430.32Z" fill="#1A458B"/>
<path d="M2685.85 1436.53H2688.65C2688.65 1436.53 2689.13 1436.26 2689.17 1435.74V1434.6C2689.17 1434.6 2689.35 1433.6 2691.05 1432.77C2691.05 1432.77 2693.37 1431.68 2694.16 1430.63C2694.16 1430.63 2695.25 1429.8 2695.47 1427.57C2695.47 1427.57 2696.17 1427.04 2695.6 1426.87H2692.85C2692.85 1426.87 2693.11 1428.84 2690.97 1429.23C2690.97 1429.23 2689 1429.19 2688.74 1427.74V1425.65C2688.74 1425.65 2689 1425.65 2689.22 1425.47C2689.22 1425.47 2689.48 1424.95 2689.09 1424.73H2685.85C2685.85 1424.73 2685.42 1424.9 2685.5 1425.12C2685.5 1425.12 2685.42 1425.56 2685.94 1425.69V1427.83C2685.94 1427.83 2685.64 1429.23 2683.8 1429.32C2683.8 1429.32 2682.05 1429.14 2682.1 1426.96H2679.08C2679.08 1426.96 2678.82 1427.48 2679.34 1427.57C2679.34 1427.57 2679.61 1430.41 2682.31 1432.03C2682.31 1432.03 2683.06 1432.38 2683.8 1432.64C2683.8 1432.64 2685.42 1433.03 2685.5 1434.65V1436.09C2685.5 1436.09 2685.5 1436.35 2685.85 1436.61V1436.53Z" fill="#1A458B"/>
<path d="M2678.56 1423.85L2678.64 1421.58C2678.64 1421.58 2677.25 1422.63 2676.55 1423.59C2676.55 1423.59 2678.12 1423.51 2678.56 1423.85Z" fill="#1A458B"/>
<path d="M2685.2 1423.51C2685.2 1423.51 2684.06 1421.76 2682.05 1420.45C2682.05 1420.45 2683.45 1419.49 2684.85 1419.49C2684.85 1419.49 2685.55 1421.23 2685.2 1423.51Z" fill="#1A458B"/>
<path d="M2692.41 1426.21C2692.41 1426.21 2691.18 1424.55 2689.52 1424.12L2689.26 1419.05C2689.26 1419.05 2692.76 1420.45 2692.41 1426.21Z" fill="#1A458B"/>
<path d="M2692.85 1421.67C2692.85 1421.67 2693.63 1420.36 2691.88 1419.83L2692.85 1421.67Z" fill="#1A458B"/>
<path d="M2682.31 1425.69C2682.31 1425.69 2683.71 1424.55 2685.11 1424.47C2685.11 1424.47 2683.19 1422.81 2682.14 1422.37L2682.31 1425.69Z" fill="#1A458B"/>
<path d="M2682.93 1428.14C2682.93 1428.14 2684.15 1427.09 2685.37 1426.65C2685.37 1426.65 2685.55 1426.04 2685.11 1425.52C2685.11 1425.52 2683.1 1426.26 2682.62 1427.09C2682.62 1427.09 2682.4 1427.96 2682.93 1428.14Z" fill="#1A458B"/>
<path d="M2689.83 1425.56C2689.83 1425.56 2691.4 1426.26 2692.06 1427.22C2692.06 1427.22 2692.58 1428.22 2691.4 1428.27C2691.4 1428.27 2690.4 1427.13 2689.66 1426.83C2689.66 1426.83 2689.48 1425.95 2689.83 1425.56Z" fill="#1A458B"/>
<path d="M2685.72 1423.68H2688.87C2688.87 1423.68 2689.31 1423.42 2688.87 1422.89V1420.88C2688.87 1420.88 2689.52 1420.18 2688.87 1419.75H2685.81C2685.81 1419.75 2685.2 1420.45 2685.94 1420.84V1422.81C2685.94 1422.81 2685.42 1423.29 2685.68 1423.68H2685.72Z" fill="#1A458B"/>
<path d="M2679.08 1425.95H2681.79V1423.68H2678.95C2678.95 1423.68 2678.69 1424.2 2679.34 1424.25V1425.38C2679.34 1425.38 2678.86 1425.73 2679.08 1425.95Z" fill="#1A458B"/>
<path d="M2695.73 1425.95H2693.02V1423.68H2695.86C2695.86 1423.68 2696.12 1424.2 2695.47 1424.25V1425.38C2695.47 1425.38 2695.95 1425.73 2695.73 1425.95Z" fill="#1A458B"/>
<path d="M2693.41 1422.85H2695.64C2695.64 1422.85 2695.86 1419.22 2696.25 1415.25C2696.25 1415.25 2696.87 1412.01 2695.9 1409.78C2695.9 1409.78 2694.86 1406.99 2694.81 1405.94C2694.81 1405.94 2694.33 1408.04 2693.68 1409.26C2693.68 1409.26 2692.54 1411.88 2693.06 1415.2C2693.06 1415.2 2693.41 1421.71 2693.41 1422.85Z" fill="#1A458B"/>
<path d="M2681.75 1422.85H2679.52C2679.52 1422.85 2679.3 1419.22 2678.91 1415.25C2678.91 1415.25 2678.29 1412.01 2679.26 1409.78C2679.26 1409.78 2680.3 1406.99 2680.39 1405.94C2680.39 1405.94 2680.83 1408.04 2681.48 1409.26C2681.48 1409.26 2682.62 1411.88 2682.1 1415.2C2682.1 1415.2 2681.75 1421.71 2681.75 1422.85Z" fill="#1A458B"/>
<path d="M2685.98 1418.96H2688.83C2688.83 1418.96 2689.66 1409.57 2689.74 1408.26C2689.74 1408.26 2690.31 1404.37 2689.83 1402.14C2689.83 1402.14 2688.34 1397.55 2687.47 1395.41C2687.47 1395.41 2685.98 1399.6 2685.29 1402.14C2685.29 1402.14 2684.59 1403.62 2685.46 1408.17C2685.46 1408.17 2686.25 1417.78 2686.03 1418.92L2685.98 1418.96Z" fill="#1A458B"/>
<path d="M2682.8 1413.41C2682.8 1413.41 2684.72 1413.98 2685.5 1413.94L2685.59 1415.68C2685.59 1415.68 2683.84 1415.81 2682.66 1415.38L2682.8 1413.46V1413.41Z" fill="#1A458B"/>
<path d="M2689.52 1414.02L2689.39 1415.68C2689.39 1415.68 2692.06 1415.77 2692.76 1415.38C2692.76 1415.38 2692.5 1414.02 2692.63 1413.46C2692.63 1413.46 2691.05 1414.24 2689.52 1414.02Z" fill="#1A458B"/>
<path d="M2696.87 1412.28C2696.87 1412.28 2696.87 1413.72 2696.73 1414.37C2696.73 1414.37 2701.67 1412.58 2703.9 1410.44L2702.24 1409.22C2702.24 1409.22 2699.75 1411.49 2696.87 1412.28Z" fill="#1A458B"/>
<path d="M2672.31 1409.61C2672.31 1409.61 2675.45 1411.4 2678.12 1412.14L2678.03 1414.02C2678.03 1414.02 2673.23 1412.89 2670.87 1410.62L2672.31 1409.61Z" fill="#1A458B"/>
<path d="M2676.42 1365.3C2676.42 1365.3 2688.78 1364.65 2698.48 1365.3C2698.48 1365.3 2694.99 1360.98 2695.9 1358.84C2695.9 1358.84 2693.24 1361.85 2691.88 1364.69C2691.88 1364.69 2688.26 1360.1 2687.51 1357.44C2687.51 1357.44 2685.77 1361.81 2683.36 1364.6C2683.36 1364.6 2682.71 1363.03 2678.91 1359.23C2678.91 1359.23 2679.21 1362.9 2676.37 1365.3H2676.42Z" fill="#1A458B"/>
<path d="M2702.11 1368.84C2701.37 1366.48 2699.05 1366.35 2699.05 1366.35C2690.53 1365.74 2675.06 1366.35 2675.06 1366.35C2672.79 1367.09 2672.57 1369.15 2672.57 1369.15C2673.09 1371.07 2676.02 1371.51 2676.02 1371.51C2684.81 1370.85 2699.53 1371.51 2699.53 1371.51C2702.5 1370.94 2702.11 1368.8 2702.11 1368.8V1368.84ZM2675.54 1370.15C2675.54 1370.15 2674.32 1369.72 2674.32 1368.75C2674.32 1368.75 2674.45 1367.84 2675.67 1367.4C2675.67 1367.4 2677.07 1367.27 2680.35 1367.27C2680.35 1367.27 2678.64 1368.62 2680.57 1370.15H2675.54ZM2692.23 1370.02H2682.49C2679.52 1368.54 2682.49 1367.18 2682.49 1367.18L2692.23 1367.09C2695.42 1368.62 2692.23 1370.02 2692.23 1370.02ZM2699.44 1370.15H2694.42C2696.34 1368.67 2694.64 1367.31 2694.64 1367.31C2697.87 1367.31 2699.31 1367.44 2699.31 1367.44C2700.54 1367.88 2700.67 1368.8 2700.67 1368.8C2700.67 1369.76 2699.44 1370.2 2699.44 1370.2V1370.15Z" fill="#1A458B"/>
<path d="M2703.68 1378.06C2703.68 1378.06 2683.63 1374.96 2671.78 1378.06C2671.78 1378.06 2675.02 1374 2675.15 1371.51C2675.15 1371.51 2677.99 1374 2679.08 1376.62C2679.08 1376.62 2682.8 1372.56 2683.23 1371.46C2683.23 1371.46 2686.42 1375.48 2687.51 1376.44C2687.51 1376.44 2689.44 1375.09 2692.15 1371.42C2692.15 1371.42 2695.69 1375.79 2696.34 1376.84C2696.34 1376.84 2698.05 1373.34 2699.75 1371.81C2699.75 1371.81 2700.1 1373.69 2703.64 1378.06H2703.68Z" fill="#1A458B"/>
<path d="M2665.75 1385.4C2665.75 1385.4 2682.53 1380.55 2711.02 1385.4C2711.02 1385.4 2707.05 1381.6 2706.43 1378.19C2706.43 1378.19 2703.77 1381.21 2703.25 1383.92C2703.25 1383.92 2700.19 1378.72 2700.14 1377.93C2700.14 1377.93 2696.3 1383.09 2696.08 1383.26C2696.08 1383.26 2692.1 1378.02 2691.62 1377.01C2691.62 1377.01 2688.78 1381.78 2687.34 1383C2687.34 1383 2683.71 1378.24 2683.28 1377.01C2683.28 1377.01 2680.7 1381.78 2680.09 1383C2680.09 1383 2677.07 1378.59 2675.89 1377.49C2675.89 1377.49 2674.1 1382.47 2673.09 1383.7C2673.09 1383.7 2671.61 1380.42 2669.16 1377.93C2669.16 1377.93 2669.16 1381.38 2665.8 1385.4H2665.75Z" fill="#1A458B"/>
<path d="M2658.46 1393.84C2658.46 1393.84 2682.66 1383.09 2716.7 1393.84C2716.7 1393.84 2712.86 1388.02 2713.21 1385.66C2713.21 1385.66 2710.06 1390.08 2709.76 1391.56C2709.76 1391.56 2707.05 1386.28 2706.7 1385.05C2706.7 1385.05 2704.12 1388.94 2703.07 1390.08C2703.07 1390.08 2700.67 1386.28 2699.97 1384.14C2699.97 1384.14 2696.25 1388.68 2696.04 1389.25C2696.04 1389.25 2692.41 1384.14 2691.97 1383.48C2691.97 1383.48 2688.74 1387.24 2687.25 1388.77C2687.25 1388.77 2684.67 1384.35 2683.63 1383.39C2683.63 1383.39 2680.96 1387.98 2680.35 1388.81C2680.35 1388.81 2677.51 1385.01 2676.28 1383.92C2676.28 1383.92 2673.84 1388.33 2672.88 1389.68C2672.88 1389.68 2669.34 1385.49 2668.73 1385.05C2668.73 1385.05 2666.58 1390.03 2665.84 1391.17C2665.84 1391.17 2664.4 1387.54 2662.08 1385.62C2662.08 1385.62 2662.04 1389.68 2658.5 1393.84H2658.46Z" fill="#1A458B"/>
<path d="M2658.72 1395.19C2658.72 1395.19 2681.53 1383.74 2716.22 1395.19C2716.22 1395.19 2718.67 1399.78 2705.6 1409.44L2703.68 1408.39C2703.68 1408.39 2708.45 1405.42 2710.06 1403.36C2710.06 1403.36 2699.01 1399.69 2689.31 1399.82L2689 1398.86C2689 1398.86 2692.28 1398.86 2693.41 1396.59C2693.41 1396.59 2694.77 1399.73 2698.4 1400.08C2698.4 1400.08 2701.93 1400.52 2704.29 1397.38C2704.29 1397.38 2704.6 1400.3 2707.92 1401.7C2707.92 1401.7 2711.46 1403.01 2712.81 1399.95C2712.81 1399.95 2713.86 1397.64 2711.42 1396.02C2711.42 1396.02 2708.1 1394.14 2704.25 1396.94C2704.25 1396.94 2703.59 1393.57 2699.01 1393.01C2699.01 1393.01 2695.03 1393.01 2693.5 1395.93C2693.5 1395.93 2693.24 1394.36 2691.1 1393.14C2691.1 1393.14 2687.43 1391.65 2684.19 1393.27C2684.19 1393.27 2682.75 1393.92 2682.05 1395.54C2682.05 1395.54 2681.22 1393.92 2678.69 1393.35C2678.69 1393.35 2675.06 1392.7 2672.57 1394.84C2672.57 1394.84 2671.13 1396.2 2670.69 1397.29C2670.69 1397.29 2669.34 1395.71 2667.85 1395.15C2667.85 1395.15 2663.92 1394.23 2661.65 1396.63C2661.65 1396.63 2659.2 1399.3 2662.48 1401.44C2662.48 1401.44 2664.66 1402.49 2668.81 1400.35C2668.81 1400.35 2670.6 1399.3 2670.74 1397.81C2670.74 1397.81 2671.52 1399.47 2675.02 1399.43C2675.02 1399.43 2678.51 1399.69 2680.7 1397.81C2680.7 1397.81 2681.75 1396.89 2682.14 1396.33C2682.14 1396.33 2683.71 1398.51 2685.9 1399.04L2685.59 1399.73C2685.59 1399.73 2673.75 1399.21 2663.74 1403.23C2663.74 1403.23 2668.29 1407.51 2670.87 1408.74L2668.81 1409.92C2668.81 1409.92 2656.71 1402.09 2658.85 1395.28L2658.72 1395.19Z" fill="#1A458B"/>
<path d="M2684.72 1407.51C2684.72 1407.51 2682.49 1407.6 2681.4 1407.69L2680.83 1406.07C2680.83 1406.07 2683.01 1405.59 2684.5 1405.81L2684.72 1407.47V1407.51Z" fill="#1A458B"/>
<path d="M2690.57 1406.03L2690.31 1407.64C2690.31 1407.64 2692.45 1407.56 2693.68 1407.77L2694.29 1406.07C2694.29 1406.07 2692.23 1405.85 2690.53 1406.03H2690.57Z" fill="#1A458B"/>
</g>
<defs>
<clipPath id="clip0_43_281">
<rect width="314" height="314" fill="white" transform="translate(2532 1261.61)"/>
</clipPath>
</defs>
</svg>
