<svg width="1046" height="1046" viewBox="0 0 1046 1046" fill="none" xmlns="http://www.w3.org/2000/svg">
<rect width="1046" height="1046" rx="523" fill="black"/>
<path d="M427 933.5V920H508.5H590V933.5V947H508.5H427V933.5Z" fill="white"/>
<path d="M344 906V893H385H426V906V919H385H344V906Z" fill="white"/>
<path d="M591 906V893H645.5H700V906V919H645.5H591V906Z" fill="white"/>
<path d="M290 878.5V865H317H344V878.5V892H317H290V878.5Z" fill="white"/>
<path d="M701 878.5V865H728H755V878.5V892H728H701V878.5Z" fill="white"/>
<path d="M262 851V838H275.5H289V851V864H275.5H262V851Z" fill="white"/>
<path d="M756 851V838H769H782V851V864H769H756V851Z" fill="white"/>
<path d="M235 823.5V810H248H261V823.5V837H248H235V823.5Z" fill="white"/>
<path d="M783 823.5V810H796.5H810V796.5V783H823.5H837V796.5V810H823.5H810V823.5V837H796.5H783V823.5Z" fill="white"/>
<path d="M207 796.5V783H220.5H234V796.5V810H220.5H207V796.5Z" fill="white"/>
<path d="M180 769V756H193.5H207V769V782H193.5H180V769Z" fill="white"/>
<path d="M838 769V756H851H864V769V782H851H838V769Z" fill="white"/>
<path d="M153 728V701H166H179V728V755H166H153V728Z" fill="white"/>
<path d="M865 728V701H878.5H892V728V755H878.5H865V728Z" fill="white"/>
<path d="M372 618V509H385H398V605V701H508H618V714V727H495H372V618Z" fill="white"/>
<path d="M125 673V646H138.5H152V673V700H138.5H125V673Z" fill="white"/>
<path d="M619 686.5V673H646H673V659.5V646H686.5H700V659.5V673H686.5H673V686.5V700H646H619V686.5Z" fill="white"/>
<path d="M893 659.5V619H906H919V659.5V700H906H893V659.5Z" fill="white"/>
<path d="M98 522V399H111H124V522V645H111H98V522Z" fill="white"/>
<path d="M701 618V591H714H727V618V645H714H701V618Z" fill="white"/>
<path d="M920 508.5V399H933.5H947V508.5V618H933.5H920V508.5Z" fill="white"/>
<path d="M536 577V564H577H618V577V590H577H536V577Z" fill="white"/>
<path d="M728 536V482H741.5H755V536V590H741.5H728V536Z" fill="white"/>
<path d="M427 549.5V536H454H481V549.5V563H454H427V549.5Z" fill="white"/>
<path d="M482 522V509H508.5H535V522V535H508.5H482V522Z" fill="white"/>
<path d="M427 495V482H454H481V495V508H454H427V495Z" fill="white"/>
<path d="M701 454V427H714H727V454V481H714H701V454Z" fill="white"/>
<path d="M673 412.5V399H686.5H700V412.5V426H686.5H673V412.5Z" fill="white"/>
<path d="M125 357.5V317H138.5H152V357.5V398H138.5H125V357.5Z" fill="white"/>
<path d="M619 385V372H646H673V385V398H646H619V385Z" fill="white"/>
<path d="M893 357.5V317H906H919V357.5V398H906H893V357.5Z" fill="white"/>
<path d="M372 358V345H467.8C520.5 345 575.9 344.7 590.8 344.3L618 343.7V357.3V371H495H372V358Z" fill="white"/>
<path d="M153 289V262H166H179V289V316H166H153V289Z" fill="white"/>
<path d="M865 303V290H878.5H892V303V316H878.5H865V303Z" fill="white"/>
<path d="M838 262V235H851H864V262V289H851H838V262Z" fill="white"/>
<path d="M180 248V235H193.5H207V248V261H193.5H180V248Z" fill="white"/>
<path d="M207 220.5V207H220.5H234V220.5V234H220.5H207V220.5Z" fill="white"/>
<path d="M810 220.5V207H796.5H783V193.5V180H796.5H810V193.5V207H823.5H837V220.5V234H823.5H810V220.5Z" fill="white"/>
<path d="M235 193.5V180H248H261V193.5V207H248H235V193.5Z" fill="white"/>
<path d="M262 166V153H289H316V166V179H289H262V166Z" fill="white"/>
<path d="M728 166V153H755H782V166V179H755H728V166Z" fill="white"/>
<path d="M317 138.5V125H344H371V138.5V152H344H317V138.5Z" fill="white"/>
<path d="M673 138.5V125H700H727V138.5V152H700H673V138.5Z" fill="white"/>
<path d="M372 111V98H522.5H673V111V124H522.5H372V111Z" fill="white"/>
</svg>
