<?xml version="1.0" encoding="UTF-8"?>
<svg xmlns="http://www.w3.org/2000/svg" viewBox="0 0 76.8 34.43">
  <defs>
    <style>
      .cls-1, .cls-2 {
        stroke: #fff;
        stroke-miterlimit: 10;
      }

      .cls-2, .cls-3 {
        fill: #fff;
      }

      .cls-4, .cls-3 {
        stroke-width: 0px;
      }
    </style>
  </defs>
  <g id="Layer_7" data-name="Layer 7">
    <rect class="cls-2" x="2.28" y="2.11" width="72.96" height="29.97" rx="14.98" ry="14.98"/>
  </g>
  <g id="Layer_2" data-name="Layer 2">
    <circle class="cls-1" cx="17.71" cy="17.1" r="14.98"/>
  </g>
  <g id="Layer_3" data-name="Layer 3">
    <path class="cls-3" d="m25.94,17.43c0,3.85-3.12,6.98-6.98,6.98h-6.98v-7.56h1.17v6.39h5.81c3.2,0,5.81-2.6,5.81-5.81s-2.6-5.8-5.81-5.8h-6.98v-1.17h6.98c3.85,0,6.98,3.12,6.98,6.98Z"/>
  </g>
  <g id="Layer_4" data-name="Layer 4">
    <g>
      <path class="cls-3" d="m15.45,16.42l2.34,1.31-2.34,1.31h-.71l2.34-1.31-2.34-1.31h.71Z"/>
      <path class="cls-3" d="m18.76,19.04h2.62v.33s-2.62,0-2.62,0v-.33Z"/>
    </g>
  </g>
  <g id="Layer_5" data-name="Layer 5">
    <g>
      <path class="cls-4" d="m38.59,20.7c0,1.11-.92,2-2.06,2h-2.06v-2.17h.35v1.83h1.71c.94,0,1.71-.75,1.71-1.67s-.77-1.67-1.71-1.67h-2.06v-.34h2.06c1.14,0,2.06.9,2.06,2Z"/>
      <path class="cls-4" d="m41.68,18.7h2.06v.34h-2.06c-.89,0-1.62.66-1.7,1.5h3.76v.34h-3.76c.09.84.82,1.5,1.7,1.5h2.06v.34h-2.06c-1.14,0-2.06-.9-2.06-2s.92-2,2.06-2Z"/>
      <path class="cls-4" d="m48.96,18.7h.42l-2.31,4-2.31-4h.42s1.89,3.28,1.89,3.28l1.89-3.28Z"/>
      <path class="cls-4" d="m50.41,20.53h1.37v.34h-1.37v-.34Z"/>
      <path class="cls-4" d="m54.87,18.7h2.06v.34h-2.06c-.94,0-1.71.75-1.71,1.67s.77,1.67,1.71,1.67h2.06v.34h-2.06c-1.14,0-2.06-.9-2.06-2s.92-2,2.06-2Z"/>
      <path class="cls-4" d="m61.76,22.36h.31v.34h-4.11v-4h.34v3.67h3.46Z"/>
      <path class="cls-4" d="m66.17,18.7h.35v2c0,1.11-.92,2-2.06,2s-2.06-.9-2.06-2v-2h.34v2c0,.92.77,1.67,1.71,1.67s1.71-.75,1.71-1.67v-2Z"/>
      <path class="cls-4" d="m71.13,20.7c.31.19.52.53.52.92,0,.6-.5,1.08-1.11,1.08h-3v-2.17h3c.42,0,.77-.34.77-.75s-.34-.75-.77-.75h-3v-.34h3c.62,0,1.11.49,1.11,1.08,0,.39-.21.72-.52.92Zm-.59.17h-2.65v1.5h2.65c.42,0,.77-.34.77-.75s-.34-.75-.77-.75Z"/>
    </g>
  </g>
  <g id="Layer_6" data-name="Layer 6">
    <g>
      <path class="cls-4" d="m35.5,12.46v2.66h.27v.27h-.81v-.27h.27v-2.66h-.27v-.27h.81v.27h-.27Z"/>
      <path class="cls-4" d="m38.16,12.19h1.6v.27h-1.6c-.73,0-1.33.6-1.33,1.33s.6,1.33,1.33,1.33h1.6v.27h-1.6c-.88,0-1.6-.72-1.6-1.6s.72-1.6,1.6-1.6Z"/>
      <path class="cls-4" d="m40.57,12.19h3.2v.27h-1.46v2.93h-.27v-2.93h-1.46v-.27Z"/>
      <path class="cls-4" d="m44.57,13.65h1.07v.27h-1.07v-.27Z"/>
      <path class="cls-4" d="m50.17,13.19v2.2h-.27v-2.2c0-.4-.33-.73-.73-.73s-.73.33-.73.73v2.2h-.27v-2.2c0-.4-.33-.73-.73-.73s-.73.33-.73.73v2.2h-.27v-2.2c0-.55.45-1,1-1,.37,0,.69.2.87.5.17-.3.5-.5.87-.5.55,0,1,.45,1,1Z"/>
      <path class="cls-4" d="m52.77,12.19l1.8,3.2h-.33s-1.47-2.62-1.47-2.62l-1.47,2.62h-.33l1.8-3.2Z"/>
      <path class="cls-4" d="m58.3,12.19h.27v3.2h-.27v-1.46h-2.66v1.46h-.27v-3.2h.27v1.46h2.66v-1.46Z"/>
      <path class="cls-4" d="m59.9,12.46v2.66h.27v.27h-.81v-.27h.27v-2.66h-.27v-.27h.81v.27h-.27Z"/>
      <path class="cls-4" d="m64.17,13.79c0,.88-.72,1.6-1.6,1.6h-1.6v-1.73h.27v1.46h1.33c.73,0,1.33-.6,1.33-1.33s-.6-1.33-1.33-1.33h-1.6v-.27h1.6c.88,0,1.6.72,1.6,1.6Z"/>
      <path class="cls-4" d="m68.17,13.79c0,.88-.72,1.6-1.6,1.6s-1.6-.72-1.6-1.6.72-1.6,1.6-1.6,1.6.72,1.6,1.6Zm-.27,0c0-.73-.6-1.33-1.33-1.33s-1.33.6-1.33,1.33.6,1.33,1.33,1.33,1.33-.6,1.33-1.33Zm-1.33.2c-.11,0-.2-.09-.2-.2s.09-.2.2-.2.2.09.2.2-.09.2-.2.2Z"/>
      <path class="cls-4" d="m71.93,15.12h.24v.27h-3.2v-3.2h.27v2.93h2.69Z"/>
    </g>
  </g>
</svg>