<?xml version="1.0" encoding="UTF-8"?>
<svg xmlns="http://www.w3.org/2000/svg" viewBox="0 0 76.8 42.02">
  <defs>
    <style>
      .cls-1 {
        fill: #fff;
        stroke-width: 0px;
      }

      .cls-2 {
        fill: none;
        stroke: #fff;
        stroke-miterlimit: 10;
        stroke-width: .5px;
      }
    </style>
  </defs>
  <g id="Layer_2" data-name="Layer 2">
    <circle class="cls-2" cx="17.35" cy="22.16" r="14.98"/>
  </g>
  <g id="Layer_3" data-name="Layer 3">
    <path class="cls-1" d="m25.57,22.5c0,3.85-3.12,6.98-6.98,6.98h-6.98v-7.56h1.17v6.39h5.81c3.2,0,5.81-2.6,5.81-5.81s-2.6-5.8-5.81-5.8h-6.98v-1.17h6.98c3.85,0,6.98,3.12,6.98,6.98Z"/>
  </g>
  <g id="Layer_4" data-name="Layer 4">
    <g>
      <path class="cls-1" d="m15.09,21.49l2.34,1.31-2.34,1.31h-.71l2.34-1.31-2.34-1.31h.71Z"/>
      <path class="cls-1" d="m18.4,24.11h2.62v.33s-2.62,0-2.62,0v-.33Z"/>
    </g>
  </g>
  <g id="Layer_5" data-name="Layer 5">
    <g>
      <path class="cls-1" d="m38.23,25.77c0,1.11-.92,2-2.06,2h-2.06v-2.17h.35v1.83h1.71c.94,0,1.71-.75,1.71-1.67s-.77-1.67-1.71-1.67h-2.06v-.34h2.06c1.14,0,2.06.9,2.06,2Z"/>
      <path class="cls-1" d="m41.31,23.76h2.06v.34h-2.06c-.89,0-1.62.66-1.7,1.5h3.76v.34h-3.76c.09.84.82,1.5,1.7,1.5h2.06v.34h-2.06c-1.14,0-2.06-.9-2.06-2s.92-2,2.06-2Z"/>
      <path class="cls-1" d="m48.6,23.76h.42l-2.31,4-2.31-4h.42s1.89,3.28,1.89,3.28l1.89-3.28Z"/>
      <path class="cls-1" d="m50.05,25.6h1.37v.34h-1.37v-.34Z"/>
      <path class="cls-1" d="m54.51,23.76h2.06v.34h-2.06c-.94,0-1.71.75-1.71,1.67s.77,1.67,1.71,1.67h2.06v.34h-2.06c-1.14,0-2.06-.9-2.06-2s.92-2,2.06-2Z"/>
      <path class="cls-1" d="m61.4,27.43h.31v.34h-4.11v-4h.34v3.67h3.46Z"/>
      <path class="cls-1" d="m65.8,23.76h.35v2c0,1.11-.92,2-2.06,2s-2.06-.9-2.06-2v-2h.34v2c0,.92.77,1.67,1.71,1.67s1.71-.75,1.71-1.67v-2Z"/>
      <path class="cls-1" d="m70.77,25.77c.31.19.52.53.52.92,0,.6-.5,1.08-1.11,1.08h-3v-2.17h3c.42,0,.77-.34.77-.75s-.34-.75-.77-.75h-3v-.34h3c.62,0,1.11.49,1.11,1.08,0,.39-.21.72-.52.92Zm-.59.17h-2.65v1.5h2.65c.42,0,.77-.34.77-.75s-.34-.75-.77-.75Z"/>
    </g>
  </g>
  <g id="Layer_6" data-name="Layer 6">
    <g>
      <path class="cls-1" d="m35.14,17.53v2.66h.27v.27h-.81v-.27h.27v-2.66h-.27v-.27h.81v.27h-.27Z"/>
      <path class="cls-1" d="m37.8,17.26h1.6v.27h-1.6c-.73,0-1.33.6-1.33,1.33s.6,1.33,1.33,1.33h1.6v.27h-1.6c-.88,0-1.6-.72-1.6-1.6s.72-1.6,1.6-1.6Z"/>
      <path class="cls-1" d="m40.2,17.26h3.2v.27h-1.46v2.93h-.27v-2.93h-1.46v-.27Z"/>
      <path class="cls-1" d="m44.2,18.72h1.07v.27h-1.07v-.27Z"/>
      <path class="cls-1" d="m49.81,18.26v2.2h-.27v-2.2c0-.4-.33-.73-.73-.73s-.73.33-.73.73v2.2h-.27v-2.2c0-.4-.33-.73-.73-.73s-.73.33-.73.73v2.2h-.27v-2.2c0-.55.45-1,1-1,.37,0,.69.2.87.5.17-.3.5-.5.87-.5.55,0,1,.45,1,1Z"/>
      <path class="cls-1" d="m52.41,17.26l1.8,3.2h-.33s-1.47-2.62-1.47-2.62l-1.47,2.62h-.33l1.8-3.2Z"/>
      <path class="cls-1" d="m57.93,17.26h.27v3.2h-.27v-1.46h-2.66v1.46h-.27v-3.2h.27v1.46h2.66v-1.46Z"/>
      <path class="cls-1" d="m59.54,17.53v2.66h.27v.27h-.81v-.27h.27v-2.66h-.27v-.27h.81v.27h-.27Z"/>
      <path class="cls-1" d="m63.81,18.86c0,.88-.72,1.6-1.6,1.6h-1.6v-1.73h.27v1.46h1.33c.73,0,1.33-.6,1.33-1.33s-.6-1.33-1.33-1.33h-1.6v-.27h1.6c.88,0,1.6.72,1.6,1.6Z"/>
      <path class="cls-1" d="m67.81,18.86c0,.88-.72,1.6-1.6,1.6s-1.6-.72-1.6-1.6.72-1.6,1.6-1.6,1.6.72,1.6,1.6Zm-.27,0c0-.73-.6-1.33-1.33-1.33s-1.33.6-1.33,1.33.6,1.33,1.33,1.33,1.33-.6,1.33-1.33Zm-1.33.2c-.11,0-.2-.09-.2-.2s.09-.2.2-.2.2.09.2.2-.09.2-.2.2Z"/>
      <path class="cls-1" d="m71.57,20.19h.24v.27h-3.2v-3.2h.27v2.93h2.69Z"/>
    </g>
  </g>
  <g id="Layer_7" data-name="Layer 7">
    <rect class="cls-2" x="1.92" y="7.18" width="72.96" height="29.97" rx="14.98" ry="14.98"/>
  </g>
</svg>