<svg width="1801" height="1788" viewBox="0 0 1801 1788" fill="none" xmlns="http://www.w3.org/2000/svg">
<path d="M924.037 290.195C967.567 217.863 1072.43 217.863 1115.96 290.195L1252.61 517.251C1268.25 543.237 1293.75 561.769 1323.3 568.612L1581.47 628.405C1663.71 647.452 1696.12 747.185 1640.78 810.936L1467.06 1011.06C1447.18 1033.96 1437.43 1063.95 1440.06 1094.16L1462.97 1358.17C1470.27 1442.28 1385.43 1503.91 1307.7 1470.98L1063.69 1367.61C1035.76 1355.78 1004.24 1355.78 976.31 1367.61L732.301 1470.98C654.569 1503.91 569.732 1442.28 577.031 1358.17L599.943 1094.16C602.566 1063.95 592.822 1033.96 572.941 1011.06L399.223 810.936C343.883 747.185 376.288 647.452 458.531 628.405L716.701 568.612C746.247 561.769 771.754 543.237 787.393 517.251L924.037 290.195Z" fill="white"/>
<path d="M1053.42 336.894L1211.09 598.901C1221.15 615.606 1237.55 627.52 1256.54 631.919L1554.45 700.915C1583.82 707.717 1595.39 743.336 1575.63 766.105L1375.17 997.03C1362.39 1011.75 1356.13 1031.03 1357.81 1050.45L1384.25 1355.1C1386.86 1385.14 1356.56 1407.15 1328.8 1395.39L1047.23 1276.1C1029.28 1268.5 1009.01 1268.5 991.057 1276.1L709.489 1395.39C681.728 1407.15 651.429 1385.14 654.035 1355.1L680.475 1050.45C682.161 1031.03 675.897 1011.75 663.117 997.03L462.659 766.105C442.894 743.336 454.467 707.717 483.84 700.915L781.748 631.919C800.742 627.52 817.14 615.606 827.193 598.901L984.871 336.894C1000.42 311.061 1037.87 311.061 1053.42 336.894Z" fill="#FFC700" stroke="black" stroke-width="32"/>
<path d="M992.208 1194.82C981.968 1194.82 971.045 1192.6 959.44 1188.16C948.176 1184.07 938.107 1176.73 929.232 1166.15C920.357 1155.56 914.213 1140.55 910.8 1121.09C909.093 1110.17 906.363 1102.32 902.608 1097.54C898.853 1092.76 892.539 1088.66 883.664 1085.25C865.915 1079.45 849.872 1067.84 835.536 1050.43C821.541 1032.68 810.448 1010.84 802.256 984.898C794.405 958.957 790.48 930.626 790.48 899.906C790.48 873.282 793.381 848.535 799.184 825.666C805.328 802.797 813.691 782.829 824.272 765.762C835.195 748.354 847.824 734.871 862.16 725.314C876.496 715.757 891.856 710.978 908.24 710.978C924.624 710.978 939.813 715.757 953.808 725.314C968.144 734.871 980.773 748.354 991.696 765.762C1002.62 782.829 1010.98 802.797 1016.78 825.666C1022.93 848.535 1026 873.282 1026 899.906C1026 931.309 1021.73 960.322 1013.2 986.946C1005.01 1013.23 993.573 1035.07 978.896 1052.48C964.56 1069.89 948.176 1081.15 929.744 1086.27C927.696 1086.62 926.672 1087.47 926.672 1088.83C926.672 1090.54 927.525 1092.08 929.232 1093.44C933.669 1096.51 937.424 1100.27 940.496 1104.71C943.568 1109.48 946.128 1115.46 948.176 1122.63C954.32 1142.42 962.171 1156.76 971.728 1165.63C981.627 1174.51 992.379 1178.95 1003.98 1178.95C1014.22 1178.95 1024.63 1175.7 1035.22 1169.22C1037.95 1167.51 1040.51 1167 1042.9 1167.68C1045.29 1168.36 1046.48 1170.07 1046.48 1172.8C1046.48 1175.19 1045.11 1177.58 1042.38 1179.97C1036.92 1184.07 1030.1 1187.48 1021.9 1190.21C1014.05 1193.28 1004.15 1194.82 992.208 1194.82ZM908.24 1075.52C932.475 1075.52 951.419 1061.02 965.072 1032C978.725 1002.99 985.552 958.957 985.552 899.906C985.552 840.855 978.725 796.994 965.072 768.322C951.419 739.309 932.475 724.802 908.24 724.802C884.347 724.802 865.403 739.309 851.408 768.322C837.755 796.994 830.928 840.855 830.928 899.906C830.928 958.957 837.755 1002.99 851.408 1032C865.403 1061.02 884.347 1075.52 908.24 1075.52ZM1032.46 1084.74C1027.34 1084.74 1024.78 1083.03 1024.78 1079.62C1024.78 1076.2 1027.17 1073.99 1031.95 1072.96L1039.63 1071.43C1046.46 1070.06 1051.58 1066.82 1054.99 1061.7C1058.41 1056.24 1061.31 1048.73 1063.7 1039.17L1143.06 719.17C1143.74 715.757 1144.76 713.538 1146.13 712.514C1147.83 711.49 1149.37 710.978 1150.74 710.978C1152.44 710.978 1153.98 711.49 1155.34 712.514C1157.05 713.538 1158.25 715.757 1158.93 719.17L1239.82 1043.78C1242.21 1053.34 1244.94 1059.99 1248.02 1063.75C1251.09 1067.5 1255.87 1070.06 1262.35 1071.43L1270.03 1072.96C1274.81 1073.99 1277.2 1076.2 1277.2 1079.62C1277.2 1083.03 1274.64 1084.74 1269.52 1084.74H1181.97C1177.19 1084.74 1174.8 1082.86 1174.8 1079.11C1174.8 1075.35 1177.7 1073.3 1183.5 1072.96L1193.23 1071.94C1199.03 1071.26 1202.62 1069.38 1203.98 1066.31C1205.69 1063.23 1205.69 1057.94 1203.98 1050.43L1184.53 971.074C1182.48 962.199 1176.85 957.762 1167.63 957.762H1113.87C1105 957.762 1099.37 962.199 1096.98 971.074L1079.57 1039.68C1074.45 1059.14 1079.57 1069.89 1094.93 1071.94L1102.61 1072.96C1108.41 1073.99 1111.31 1076.03 1111.31 1079.11C1111.31 1082.86 1108.92 1084.74 1104.14 1084.74H1032.46ZM1112.34 942.402H1168.66C1174.12 942.402 1176.34 939.501 1175.31 933.698L1142.54 796.482H1139.98L1105.68 933.698C1104.66 939.501 1106.87 942.402 1112.34 942.402Z" fill="white"/>
<path opacity="0.56" d="M1775 1475.24C1775 1634.57 1645.83 1763.74 1486.5 1763.74C1327.17 1763.74 1198 1634.57 1198 1475.24C1198 1315.9 1327.17 1186.74 1486.5 1186.74C1645.83 1186.74 1775 1315.9 1775 1475.24Z" fill="black"/>
<path d="M1798 1499.24C1798 1658.57 1668.83 1787.74 1509.5 1787.74C1350.17 1787.74 1221 1658.57 1221 1499.24C1221 1339.9 1350.17 1210.74 1509.5 1210.74C1668.83 1210.74 1798 1339.9 1798 1499.24Z" fill="white"/>
<circle cx="1509.5" cy="1499.24" r="219.5" fill="#00FF66" stroke="black" stroke-width="32"/>
<rect x="1341" y="1500.19" width="67.107" height="181.154" transform="rotate(-45 1341 1500.19)" fill="white"/>
<rect x="1631.42" y="1371.74" width="67.11" height="296.274" transform="rotate(45 1631.42 1371.74)" fill="white"/>
<path d="M274.018 678.258L281.681 675.177L281.853 666.92C283.159 603.969 273.319 559.078 256.877 528.764C240.269 498.143 216.749 482.272 192.128 479.018C148.416 473.239 105.128 508.702 106.42 554.064C63.5306 568.897 45.6691 621.93 66.5318 660.775C78.2828 682.654 101.445 699.043 135.96 703.751C170.129 708.412 215.599 701.741 274.018 678.258Z" fill="#FF5656" stroke="white" stroke-width="25"/>
<path d="M121.346 571.349L129.455 569.983L127.866 561.914C120.894 526.521 154.181 494.679 189.441 499.341C206.496 501.595 224.829 512.675 238.857 538.538C252.577 563.834 262.054 603.164 261.44 661.191C207.382 682.285 167.243 687.328 138.73 683.439C109.579 679.463 92.7322 666.232 84.5919 651.075C67.7618 619.739 85.7749 577.343 121.346 571.349Z" fill="#FF5656" stroke="black" stroke-width="16"/>
<path d="M417.006 99.1618L417.173 99.5627L417.181 99.5796C423.823 115.6 428.194 130.085 429.311 138.641C429.894 143.195 429.672 154.136 426.286 166.562C422.918 178.84 417.057 190.328 408.278 198.178C396.841 208.391 387.227 228.283 397.039 247.948L427.403 308.804C437.119 328.278 459.425 333.898 476.712 327.467L476.719 327.464L476.727 327.462C491.207 322.053 498.899 322.703 507.958 323.47L508.171 323.488L508.957 323.563C515.98 324.35 523.069 324.346 530.091 323.551L530.197 323.539L530.303 323.525C538.955 322.397 547.978 319.616 558.224 314.504L611.473 287.936C629.905 278.739 638.846 262.328 639.72 246.579C640.146 238.995 638.72 231.26 635.35 224.506C634.593 222.989 633.702 221.446 632.659 219.928C633.188 214.824 633.122 209.669 632.46 204.568L632.451 204.499L632.442 204.431C631.605 198.504 629.378 190.27 623.675 183.385C623.523 181.867 623.306 180.422 623.057 179.07L623.053 179.049L623.05 179.028C621.927 173.031 619.8 167.138 617.169 161.866C614.539 156.594 611.11 151.351 606.993 146.847L606.977 146.83L606.961 146.813C606.575 146.393 606.175 145.972 605.763 145.552C605.662 132.517 599.991 121.498 592.064 113.734L592.055 113.726L592.047 113.718C582.151 104.062 567.325 98.0954 553.647 100.03L553.635 100.031C539.815 101.999 526.815 107.631 516.598 113.221C506.967 85.3431 492.086 65.8531 483.341 56.0053L483.335 55.9987L483.329 55.9921C473.941 45.4498 460.28 42.5207 448.592 45.0967C448.587 45.0978 448.582 45.0988 448.577 45.0999L444.132 46.0711L444.11 46.0761L444.087 46.0811C419.513 51.5457 408.174 77.8804 417.006 99.1618ZM446.8 58.282L446.8 58.282L446.8 58.282Z" fill="#49FF71" stroke="white" stroke-width="25"/>
<path d="M519.736 135.112C517.691 136.38 515.675 137.693 513.69 139.051L504.062 145.64L501.386 134.284C493.784 102.024 477.029 79.7723 468.015 69.6207C464.246 65.3924 458.509 63.9008 452.997 65.1177L452.989 65.1196L452.98 65.1215L448.537 66.0923C448.533 66.0932 448.528 66.0942 448.524 66.0952C437.507 68.5535 431.643 80.6518 435.868 91.1251L435.945 91.3113C442.922 108.074 448.168 124.7 449.641 136.004L449.642 136.012L449.643 136.019C450.62 143.622 450.057 157.311 446.061 171.965L446.058 171.976C442.046 186.608 434.618 202.127 421.942 213.46L421.937 213.465C414.77 219.861 411.082 230.176 415.382 238.796L445.746 299.651C450.059 308.294 460.49 311.627 469.559 308.256C488.271 301.267 499.451 302.178 509.969 303.067L510.015 303.07L510.061 303.075L511.019 303.167L511.086 303.173L511.154 303.181C516.657 303.804 522.213 303.807 527.716 303.189C533.749 302.394 540.565 300.405 549.072 296.16L602.321 269.592C613.901 263.814 618.77 254.139 619.251 245.44L619.252 245.432C619.497 241.084 618.646 236.944 617.007 233.658C616.176 231.994 615.135 230.512 613.929 229.351L610.78 226.318L611.633 222.029C612.6 217.163 612.77 212.172 612.136 207.252C611.433 202.312 609.578 197.596 606.265 194.827L603.29 192.34L603.398 188.465C603.449 186.651 603.256 184.748 602.897 182.786C602.174 178.933 600.738 174.851 598.826 171.019C596.913 167.186 594.516 163.583 591.871 160.689C590.678 159.395 589.399 158.195 588.042 157.153L584.334 154.308L584.992 149.681C586.249 140.835 582.976 133.533 577.727 128.387C571.551 122.363 562.841 119.434 556.518 120.328L519.736 135.112ZM519.736 135.112C529.748 128.923 543.117 122.237 556.517 120.328L519.736 135.112Z" fill="#49FF71" stroke="black" stroke-width="16"/>
<path d="M1046.9 143.255L1034.06 63.8491L1033.31 63.9706L1004.49 87.6113L999.824 58.7362L1029.28 34.7606L1066.95 28.6697L1084.5 137.177L1046.9 143.255Z" fill="#8E49FF"/>
<path d="M886.761 134.964L882.129 106.314L989.433 88.9657L994.065 117.615L886.761 134.964ZM930.735 156.867L916.948 71.5951L945.523 66.9753L959.309 152.247L930.735 156.867Z" fill="#8E49FF"/>
<path fill-rule="evenodd" clip-rule="evenodd" d="M1026.21 171.925L1016.25 110.304L986.749 134.504L984.274 119.198L994.065 117.615L989.433 88.9657L979.642 90.5486L972.839 48.4657L1018.69 11.1486L1087.64 5.01513e-05L1113.17 157.866L1026.21 171.925ZM1033.31 63.9706L1034.06 63.849L1046.9 143.255L1084.5 137.177L1066.95 28.6697L1029.28 34.7605L999.824 58.7362L1004.49 87.6112L1033.31 63.9706Z" fill="white"/>
<path fill-rule="evenodd" clip-rule="evenodd" d="M866.072 163.633L853.46 85.6248L892.863 79.2543L888.279 50.9057L966.213 38.3056L970.796 66.6543L1000.33 61.8789L1004.49 87.6112L1013.36 80.3343L1022.74 138.304L983.408 144.663L987.979 172.936L910.046 185.536L905.475 157.263L866.072 163.633ZM926.164 128.593L930.735 156.867L959.31 152.247L954.739 123.973L994.066 117.615L989.434 88.9656L950.107 95.3239L945.523 66.9753L916.949 71.5951L921.532 99.9437L882.13 106.314L886.762 134.964L926.164 128.593Z" fill="white"/>
</svg>
