<svg width="1046" height="1046" viewBox="0 0 1046 1046" fill="none" xmlns="http://www.w3.org/2000/svg">
<circle cx="523" cy="523" r="448.5" stroke="black" stroke-width="3"/>
<path d="M523 74.5C526.896 74.5 531.021 77.1583 535.29 83.0249C539.527 88.8485 543.677 97.5328 547.665 108.861C555.634 131.5 562.835 164.341 568.893 205.023C581.003 286.363 588.5 398.786 588.5 523C588.5 647.214 581.003 759.637 568.893 840.977C562.835 881.659 555.634 914.5 547.665 937.139C543.677 948.467 539.527 957.152 535.29 962.975C531.021 968.842 526.896 971.5 523 971.5C519.104 971.5 514.979 968.842 510.71 962.975C506.473 957.152 502.323 948.467 498.335 937.139C490.366 914.5 483.165 881.659 477.107 840.977C464.997 759.637 457.5 647.214 457.5 523C457.5 398.786 464.997 286.363 477.107 205.023C483.165 164.341 490.366 131.5 498.335 108.861C502.323 97.5328 506.473 88.8485 510.71 83.0249C514.979 77.1583 519.104 74.5 523 74.5Z" stroke="black" stroke-width="3"/>
<path d="M523.5 74.5C603.318 74.5 675.781 124.445 728.363 205.617C780.935 286.775 813.5 398.982 813.5 523C813.5 647.018 780.935 759.225 728.363 840.383C675.781 921.555 603.318 971.5 523.5 971.5C443.682 971.5 371.219 921.555 318.637 840.383C266.065 759.225 233.5 647.018 233.5 523C233.5 398.982 266.065 286.775 318.637 205.617C371.219 124.445 443.682 74.5 523.5 74.5Z" stroke="black" stroke-width="3"/>
<path d="M971.5 523C971.5 526.896 968.842 531.021 962.975 535.29C957.151 539.527 948.467 543.677 937.139 547.665C914.5 555.634 881.659 562.835 840.977 568.893C759.637 581.003 647.214 588.5 523 588.5C398.786 588.5 286.363 581.003 205.023 568.893C164.341 562.835 131.5 555.634 108.861 547.665C97.5328 543.677 88.8485 539.527 83.0249 535.29C77.1583 531.021 74.5 526.896 74.5 523C74.5 519.104 77.1583 514.979 83.0249 510.71C88.8485 506.473 97.5328 502.323 108.861 498.335C131.5 490.366 164.341 483.165 205.023 477.107C286.363 464.997 398.786 457.5 523 457.5C647.214 457.5 759.637 464.997 840.977 477.107C881.659 483.165 914.5 490.366 937.139 498.335C948.467 502.323 957.151 506.473 962.975 510.71C968.842 514.979 971.5 519.104 971.5 523Z" stroke="black" stroke-width="3"/>
<path d="M972 523C972 602.818 922.055 675.281 840.883 727.863C759.725 780.435 647.518 813 523.5 813C399.482 813 287.275 780.435 206.117 727.863C124.945 675.281 75 602.818 75 523C75 443.182 124.945 370.719 206.117 318.137C287.275 265.565 399.482 233 523.5 233C647.518 233 759.725 265.565 840.883 318.137C922.055 370.719 972 443.182 972 523Z" stroke="black" stroke-width="3"/>
<circle cx="523" cy="523" r="43.5" stroke="black" stroke-width="3"/>
</svg>
